%TF.GenerationSoftware,KiCad,Pcbnew,9.0.4*%
%TF.CreationDate,2025-09-28T14:02:47+03:00*%
%TF.ProjectId,Project_MP2494,50726f6a-6563-4745-9f4d-50323439342e,1.0*%
%TF.SameCoordinates,Original*%
%TF.FileFunction,Legend,Bot*%
%TF.FilePolarity,Positive*%
%FSLAX46Y46*%
G04 Gerber Fmt 4.6, Leading zero omitted, Abs format (unit mm)*
G04 Created by KiCad (PCBNEW 9.0.4) date 2025-09-28 14:02:47*
%MOMM*%
%LPD*%
G01*
G04 APERTURE LIST*
G04 Aperture macros list*
%AMRoundRect*
0 Rectangle with rounded corners*
0 $1 Rounding radius*
0 $2 $3 $4 $5 $6 $7 $8 $9 X,Y pos of 4 corners*
0 Add a 4 corners polygon primitive as box body*
4,1,4,$2,$3,$4,$5,$6,$7,$8,$9,$2,$3,0*
0 Add four circle primitives for the rounded corners*
1,1,$1+$1,$2,$3*
1,1,$1+$1,$4,$5*
1,1,$1+$1,$6,$7*
1,1,$1+$1,$8,$9*
0 Add four rect primitives between the rounded corners*
20,1,$1+$1,$2,$3,$4,$5,0*
20,1,$1+$1,$4,$5,$6,$7,0*
20,1,$1+$1,$6,$7,$8,$9,0*
20,1,$1+$1,$8,$9,$2,$3,0*%
G04 Aperture macros list end*
%ADD10C,0.010000*%
%ADD11O,2.604000X1.404000*%
%ADD12RoundRect,0.102000X1.858000X-1.858000X1.858000X1.858000X-1.858000X1.858000X-1.858000X-1.858000X0*%
%ADD13C,3.920000*%
%ADD14O,1.701800X1.092200*%
G04 APERTURE END LIST*
D10*
%TO.C,REF\u002A\u002A*%
X139482829Y-120451097D02*
X139542753Y-120473355D01*
X139567673Y-120490080D01*
X139592910Y-120514043D01*
X139610912Y-120544526D01*
X139622858Y-120586023D01*
X139629930Y-120643032D01*
X139633308Y-120720047D01*
X139634171Y-120821565D01*
X139634002Y-120874027D01*
X139633153Y-120945715D01*
X139631711Y-121002925D01*
X139629814Y-121040809D01*
X139627597Y-121054514D01*
X139613172Y-121049981D01*
X139584054Y-121037670D01*
X139583181Y-121037272D01*
X139568060Y-121029356D01*
X139557891Y-121018495D01*
X139551691Y-120999471D01*
X139548478Y-120967069D01*
X139547270Y-120916071D01*
X139547086Y-120841261D01*
X139546714Y-120793804D01*
X139542750Y-120704615D01*
X139533673Y-120639287D01*
X139518524Y-120594393D01*
X139496345Y-120566507D01*
X139466175Y-120552203D01*
X139461990Y-120551206D01*
X139405480Y-120550427D01*
X139361410Y-120575744D01*
X139330972Y-120626502D01*
X139325544Y-120641175D01*
X139313171Y-120673649D01*
X139306905Y-120688572D01*
X139294036Y-120686516D01*
X139265933Y-120675357D01*
X139239721Y-120656927D01*
X139227771Y-120622098D01*
X139231336Y-120597151D01*
X139253235Y-120546547D01*
X139288644Y-120499128D01*
X139330052Y-120466334D01*
X139347400Y-120458752D01*
X139413089Y-120446076D01*
X139482829Y-120451097D01*
G36*
X139482829Y-120451097D02*
G01*
X139542753Y-120473355D01*
X139567673Y-120490080D01*
X139592910Y-120514043D01*
X139610912Y-120544526D01*
X139622858Y-120586023D01*
X139629930Y-120643032D01*
X139633308Y-120720047D01*
X139634171Y-120821565D01*
X139634002Y-120874027D01*
X139633153Y-120945715D01*
X139631711Y-121002925D01*
X139629814Y-121040809D01*
X139627597Y-121054514D01*
X139613172Y-121049981D01*
X139584054Y-121037670D01*
X139583181Y-121037272D01*
X139568060Y-121029356D01*
X139557891Y-121018495D01*
X139551691Y-120999471D01*
X139548478Y-120967069D01*
X139547270Y-120916071D01*
X139547086Y-120841261D01*
X139546714Y-120793804D01*
X139542750Y-120704615D01*
X139533673Y-120639287D01*
X139518524Y-120594393D01*
X139496345Y-120566507D01*
X139466175Y-120552203D01*
X139461990Y-120551206D01*
X139405480Y-120550427D01*
X139361410Y-120575744D01*
X139330972Y-120626502D01*
X139325544Y-120641175D01*
X139313171Y-120673649D01*
X139306905Y-120688572D01*
X139294036Y-120686516D01*
X139265933Y-120675357D01*
X139239721Y-120656927D01*
X139227771Y-120622098D01*
X139231336Y-120597151D01*
X139253235Y-120546547D01*
X139288644Y-120499128D01*
X139330052Y-120466334D01*
X139347400Y-120458752D01*
X139413089Y-120446076D01*
X139482829Y-120451097D01*
G37*
X143431020Y-120417822D02*
X143498810Y-120449680D01*
X143554366Y-120504770D01*
X143565881Y-120522016D01*
X143575432Y-120541562D01*
X143582206Y-120566198D01*
X143586819Y-120600711D01*
X143589888Y-120649889D01*
X143592029Y-120718519D01*
X143593859Y-120811389D01*
X143598404Y-121069007D01*
X143560225Y-121054491D01*
X143525268Y-121041156D01*
X143499097Y-121028323D01*
X143482013Y-121011780D01*
X143472086Y-120986465D01*
X143467386Y-120947316D01*
X143465982Y-120889268D01*
X143465943Y-120807261D01*
X143465744Y-120741895D01*
X143464559Y-120679173D01*
X143461729Y-120636334D01*
X143456609Y-120608220D01*
X143448553Y-120589675D01*
X143436914Y-120575543D01*
X143408303Y-120555600D01*
X143360239Y-120548083D01*
X143312688Y-120567079D01*
X143309550Y-120569511D01*
X143299769Y-120580748D01*
X143292553Y-120598770D01*
X143287299Y-120628026D01*
X143283402Y-120672962D01*
X143280256Y-120738028D01*
X143277257Y-120827670D01*
X143270000Y-121067697D01*
X143208314Y-121040044D01*
X143146629Y-121012391D01*
X143146629Y-120793246D01*
X143146884Y-120733711D01*
X143149086Y-120650892D01*
X143154661Y-120589227D01*
X143164941Y-120543748D01*
X143181258Y-120509484D01*
X143204943Y-120481466D01*
X143237328Y-120454723D01*
X143283907Y-120427780D01*
X143357287Y-120410191D01*
X143431020Y-120417822D01*
G36*
X143431020Y-120417822D02*
G01*
X143498810Y-120449680D01*
X143554366Y-120504770D01*
X143565881Y-120522016D01*
X143575432Y-120541562D01*
X143582206Y-120566198D01*
X143586819Y-120600711D01*
X143589888Y-120649889D01*
X143592029Y-120718519D01*
X143593859Y-120811389D01*
X143598404Y-121069007D01*
X143560225Y-121054491D01*
X143525268Y-121041156D01*
X143499097Y-121028323D01*
X143482013Y-121011780D01*
X143472086Y-120986465D01*
X143467386Y-120947316D01*
X143465982Y-120889268D01*
X143465943Y-120807261D01*
X143465744Y-120741895D01*
X143464559Y-120679173D01*
X143461729Y-120636334D01*
X143456609Y-120608220D01*
X143448553Y-120589675D01*
X143436914Y-120575543D01*
X143408303Y-120555600D01*
X143360239Y-120548083D01*
X143312688Y-120567079D01*
X143309550Y-120569511D01*
X143299769Y-120580748D01*
X143292553Y-120598770D01*
X143287299Y-120628026D01*
X143283402Y-120672962D01*
X143280256Y-120738028D01*
X143277257Y-120827670D01*
X143270000Y-121067697D01*
X143208314Y-121040044D01*
X143146629Y-121012391D01*
X143146629Y-120793246D01*
X143146884Y-120733711D01*
X143149086Y-120650892D01*
X143154661Y-120589227D01*
X143164941Y-120543748D01*
X143181258Y-120509484D01*
X143204943Y-120481466D01*
X143237328Y-120454723D01*
X143283907Y-120427780D01*
X143357287Y-120410191D01*
X143431020Y-120417822D01*
G37*
X141607691Y-120466467D02*
X141612273Y-120469003D01*
X141649704Y-120498057D01*
X141683170Y-120535410D01*
X141689007Y-120543852D01*
X141700165Y-120563553D01*
X141708136Y-120586935D01*
X141713618Y-120619067D01*
X141717307Y-120665019D01*
X141719899Y-120729859D01*
X141722092Y-120818657D01*
X141722402Y-120833669D01*
X141723400Y-120930999D01*
X141721994Y-120999934D01*
X141718164Y-121040948D01*
X141711889Y-121054514D01*
X141692898Y-121050452D01*
X141660638Y-121038144D01*
X141653041Y-121034545D01*
X141641176Y-121026398D01*
X141632994Y-121013004D01*
X141627643Y-120989608D01*
X141624269Y-120951455D01*
X141622019Y-120893790D01*
X141620040Y-120811857D01*
X141619498Y-120787907D01*
X141617403Y-120712266D01*
X141614683Y-120659328D01*
X141610515Y-120624075D01*
X141604079Y-120601487D01*
X141594550Y-120586544D01*
X141581106Y-120574227D01*
X141541305Y-120552634D01*
X141492341Y-120548476D01*
X141448529Y-120564999D01*
X141417008Y-120599210D01*
X141404914Y-120648114D01*
X141404578Y-120661407D01*
X141397972Y-120685472D01*
X141378470Y-120689144D01*
X141340283Y-120674813D01*
X141331438Y-120670217D01*
X141307534Y-120643186D01*
X141307061Y-120602994D01*
X141329836Y-120547409D01*
X141350727Y-120517117D01*
X141404142Y-120474084D01*
X141470074Y-120449755D01*
X141540574Y-120446443D01*
X141607691Y-120466467D01*
G36*
X141607691Y-120466467D02*
G01*
X141612273Y-120469003D01*
X141649704Y-120498057D01*
X141683170Y-120535410D01*
X141689007Y-120543852D01*
X141700165Y-120563553D01*
X141708136Y-120586935D01*
X141713618Y-120619067D01*
X141717307Y-120665019D01*
X141719899Y-120729859D01*
X141722092Y-120818657D01*
X141722402Y-120833669D01*
X141723400Y-120930999D01*
X141721994Y-120999934D01*
X141718164Y-121040948D01*
X141711889Y-121054514D01*
X141692898Y-121050452D01*
X141660638Y-121038144D01*
X141653041Y-121034545D01*
X141641176Y-121026398D01*
X141632994Y-121013004D01*
X141627643Y-120989608D01*
X141624269Y-120951455D01*
X141622019Y-120893790D01*
X141620040Y-120811857D01*
X141619498Y-120787907D01*
X141617403Y-120712266D01*
X141614683Y-120659328D01*
X141610515Y-120624075D01*
X141604079Y-120601487D01*
X141594550Y-120586544D01*
X141581106Y-120574227D01*
X141541305Y-120552634D01*
X141492341Y-120548476D01*
X141448529Y-120564999D01*
X141417008Y-120599210D01*
X141404914Y-120648114D01*
X141404578Y-120661407D01*
X141397972Y-120685472D01*
X141378470Y-120689144D01*
X141340283Y-120674813D01*
X141331438Y-120670217D01*
X141307534Y-120643186D01*
X141307061Y-120602994D01*
X141329836Y-120547409D01*
X141350727Y-120517117D01*
X141404142Y-120474084D01*
X141470074Y-120449755D01*
X141540574Y-120446443D01*
X141607691Y-120466467D01*
G37*
X140653941Y-120449282D02*
X140685774Y-120461758D01*
X140722743Y-120478602D01*
X140722743Y-120965196D01*
X140676812Y-121011127D01*
X140666320Y-121021427D01*
X140637255Y-121044320D01*
X140607943Y-121051735D01*
X140564326Y-121048321D01*
X140546568Y-121046114D01*
X140500767Y-121041445D01*
X140468743Y-121039585D01*
X140459244Y-121039869D01*
X140420274Y-121042948D01*
X140373160Y-121048321D01*
X140358085Y-121050168D01*
X140320110Y-121050893D01*
X140292325Y-121039429D01*
X140260674Y-121011127D01*
X140214743Y-120965196D01*
X140214743Y-120705055D01*
X140215101Y-120628180D01*
X140216216Y-120554886D01*
X140217952Y-120496850D01*
X140220167Y-120458663D01*
X140222721Y-120444914D01*
X140223256Y-120444951D01*
X140241808Y-120451793D01*
X140273153Y-120466868D01*
X140315608Y-120488822D01*
X140319604Y-120717240D01*
X140323600Y-120945657D01*
X140410686Y-120945657D01*
X140414657Y-120695286D01*
X140415916Y-120627227D01*
X140417718Y-120554482D01*
X140419671Y-120496730D01*
X140421612Y-120458648D01*
X140423377Y-120444914D01*
X140423885Y-120444962D01*
X140441482Y-120450015D01*
X140473834Y-120460849D01*
X140519543Y-120476783D01*
X140519765Y-120696706D01*
X140519988Y-120734909D01*
X140521531Y-120809146D01*
X140524292Y-120871145D01*
X140527977Y-120915308D01*
X140532292Y-120936041D01*
X140547732Y-120947131D01*
X140579241Y-120950556D01*
X140613886Y-120945657D01*
X140617857Y-120695286D01*
X140619278Y-120631663D01*
X140622225Y-120556356D01*
X140626079Y-120497286D01*
X140630542Y-120458718D01*
X140635317Y-120444914D01*
X140653941Y-120449282D01*
G36*
X140653941Y-120449282D02*
G01*
X140685774Y-120461758D01*
X140722743Y-120478602D01*
X140722743Y-120965196D01*
X140676812Y-121011127D01*
X140666320Y-121021427D01*
X140637255Y-121044320D01*
X140607943Y-121051735D01*
X140564326Y-121048321D01*
X140546568Y-121046114D01*
X140500767Y-121041445D01*
X140468743Y-121039585D01*
X140459244Y-121039869D01*
X140420274Y-121042948D01*
X140373160Y-121048321D01*
X140358085Y-121050168D01*
X140320110Y-121050893D01*
X140292325Y-121039429D01*
X140260674Y-121011127D01*
X140214743Y-120965196D01*
X140214743Y-120705055D01*
X140215101Y-120628180D01*
X140216216Y-120554886D01*
X140217952Y-120496850D01*
X140220167Y-120458663D01*
X140222721Y-120444914D01*
X140223256Y-120444951D01*
X140241808Y-120451793D01*
X140273153Y-120466868D01*
X140315608Y-120488822D01*
X140319604Y-120717240D01*
X140323600Y-120945657D01*
X140410686Y-120945657D01*
X140414657Y-120695286D01*
X140415916Y-120627227D01*
X140417718Y-120554482D01*
X140419671Y-120496730D01*
X140421612Y-120458648D01*
X140423377Y-120444914D01*
X140423885Y-120444962D01*
X140441482Y-120450015D01*
X140473834Y-120460849D01*
X140519543Y-120476783D01*
X140519765Y-120696706D01*
X140519988Y-120734909D01*
X140521531Y-120809146D01*
X140524292Y-120871145D01*
X140527977Y-120915308D01*
X140532292Y-120936041D01*
X140547732Y-120947131D01*
X140579241Y-120950556D01*
X140613886Y-120945657D01*
X140617857Y-120695286D01*
X140619278Y-120631663D01*
X140622225Y-120556356D01*
X140626079Y-120497286D01*
X140630542Y-120458718D01*
X140635317Y-120444914D01*
X140653941Y-120449282D01*
G37*
X142678543Y-120249444D02*
X142725714Y-120269342D01*
X142725714Y-120666509D01*
X142725519Y-120769498D01*
X142724998Y-120862141D01*
X142724199Y-120940700D01*
X142723172Y-121001439D01*
X142721963Y-121040623D01*
X142720623Y-121054514D01*
X142720099Y-121054468D01*
X142702287Y-121049420D01*
X142669823Y-121038580D01*
X142624114Y-121022646D01*
X142624114Y-120818173D01*
X142623824Y-120737832D01*
X142622474Y-120679562D01*
X142619369Y-120639909D01*
X142613812Y-120613618D01*
X142605107Y-120595436D01*
X142592556Y-120580107D01*
X142583999Y-120571955D01*
X142537728Y-120549375D01*
X142486728Y-120551375D01*
X142439993Y-120578073D01*
X142433189Y-120584698D01*
X142422293Y-120598456D01*
X142414836Y-120616642D01*
X142410169Y-120644177D01*
X142407642Y-120685981D01*
X142406602Y-120746973D01*
X142406400Y-120832073D01*
X142406303Y-120875234D01*
X142405674Y-120946224D01*
X142404556Y-121003076D01*
X142403063Y-121040828D01*
X142401309Y-121054514D01*
X142400785Y-121054468D01*
X142382973Y-121049420D01*
X142350509Y-121038580D01*
X142304800Y-121022646D01*
X142304823Y-120817237D01*
X142304857Y-120798951D01*
X142306778Y-120703626D01*
X142312678Y-120631543D01*
X142324001Y-120577813D01*
X142342187Y-120537549D01*
X142368679Y-120505861D01*
X142404918Y-120477861D01*
X142440263Y-120460333D01*
X142496773Y-120446785D01*
X142552356Y-120446015D01*
X142595086Y-120459195D01*
X142598298Y-120461015D01*
X142608205Y-120460820D01*
X142614975Y-120445572D01*
X142619861Y-120410613D01*
X142624114Y-120351289D01*
X142631371Y-120229547D01*
X142678543Y-120249444D01*
G36*
X142678543Y-120249444D02*
G01*
X142725714Y-120269342D01*
X142725714Y-120666509D01*
X142725519Y-120769498D01*
X142724998Y-120862141D01*
X142724199Y-120940700D01*
X142723172Y-121001439D01*
X142721963Y-121040623D01*
X142720623Y-121054514D01*
X142720099Y-121054468D01*
X142702287Y-121049420D01*
X142669823Y-121038580D01*
X142624114Y-121022646D01*
X142624114Y-120818173D01*
X142623824Y-120737832D01*
X142622474Y-120679562D01*
X142619369Y-120639909D01*
X142613812Y-120613618D01*
X142605107Y-120595436D01*
X142592556Y-120580107D01*
X142583999Y-120571955D01*
X142537728Y-120549375D01*
X142486728Y-120551375D01*
X142439993Y-120578073D01*
X142433189Y-120584698D01*
X142422293Y-120598456D01*
X142414836Y-120616642D01*
X142410169Y-120644177D01*
X142407642Y-120685981D01*
X142406602Y-120746973D01*
X142406400Y-120832073D01*
X142406303Y-120875234D01*
X142405674Y-120946224D01*
X142404556Y-121003076D01*
X142403063Y-121040828D01*
X142401309Y-121054514D01*
X142400785Y-121054468D01*
X142382973Y-121049420D01*
X142350509Y-121038580D01*
X142304800Y-121022646D01*
X142304823Y-120817237D01*
X142304857Y-120798951D01*
X142306778Y-120703626D01*
X142312678Y-120631543D01*
X142324001Y-120577813D01*
X142342187Y-120537549D01*
X142368679Y-120505861D01*
X142404918Y-120477861D01*
X142440263Y-120460333D01*
X142496773Y-120446785D01*
X142552356Y-120446015D01*
X142595086Y-120459195D01*
X142598298Y-120461015D01*
X142608205Y-120460820D01*
X142614975Y-120445572D01*
X142619861Y-120410613D01*
X142624114Y-120351289D01*
X142631371Y-120229547D01*
X142678543Y-120249444D01*
G37*
X145265714Y-120735200D02*
X145265701Y-120750935D01*
X145264914Y-120821119D01*
X145262210Y-120870022D01*
X145256606Y-120904178D01*
X145247119Y-120930124D01*
X145232768Y-120954397D01*
X145229237Y-120959433D01*
X145191878Y-120999143D01*
X145149311Y-121029092D01*
X145127452Y-121038810D01*
X145048908Y-121055020D01*
X144971231Y-121044535D01*
X144899645Y-121008707D01*
X144839374Y-120948887D01*
X144834286Y-120940873D01*
X144817730Y-120894342D01*
X144806573Y-120829552D01*
X144801160Y-120754727D01*
X144801768Y-120685513D01*
X144948248Y-120685513D01*
X144949402Y-120781399D01*
X144949866Y-120787569D01*
X144956629Y-120840478D01*
X144968671Y-120874029D01*
X144989005Y-120897016D01*
X145023097Y-120918548D01*
X145056814Y-120919680D01*
X145091543Y-120894857D01*
X145097584Y-120888325D01*
X145109417Y-120868779D01*
X145116404Y-120840386D01*
X145119727Y-120796430D01*
X145120571Y-120730192D01*
X145119125Y-120668150D01*
X145111907Y-120609042D01*
X145097006Y-120571686D01*
X145072636Y-120552152D01*
X145037008Y-120546514D01*
X145023440Y-120547635D01*
X144985430Y-120568194D01*
X144960312Y-120614299D01*
X144948248Y-120685513D01*
X144801768Y-120685513D01*
X144801833Y-120678096D01*
X144808937Y-120607882D01*
X144822815Y-120552312D01*
X144840649Y-120515301D01*
X144890855Y-120457733D01*
X144958885Y-120421962D01*
X145042158Y-120409665D01*
X145064398Y-120410331D01*
X145129891Y-120423947D01*
X145183687Y-120458249D01*
X145233057Y-120517338D01*
X145235995Y-120521722D01*
X145249287Y-120545299D01*
X145257932Y-120571949D01*
X145262904Y-120608159D01*
X145265174Y-120660413D01*
X145265678Y-120730192D01*
X145265714Y-120735200D01*
G36*
X145265714Y-120735200D02*
G01*
X145265701Y-120750935D01*
X145264914Y-120821119D01*
X145262210Y-120870022D01*
X145256606Y-120904178D01*
X145247119Y-120930124D01*
X145232768Y-120954397D01*
X145229237Y-120959433D01*
X145191878Y-120999143D01*
X145149311Y-121029092D01*
X145127452Y-121038810D01*
X145048908Y-121055020D01*
X144971231Y-121044535D01*
X144899645Y-121008707D01*
X144839374Y-120948887D01*
X144834286Y-120940873D01*
X144817730Y-120894342D01*
X144806573Y-120829552D01*
X144801160Y-120754727D01*
X144801768Y-120685513D01*
X144948248Y-120685513D01*
X144949402Y-120781399D01*
X144949866Y-120787569D01*
X144956629Y-120840478D01*
X144968671Y-120874029D01*
X144989005Y-120897016D01*
X145023097Y-120918548D01*
X145056814Y-120919680D01*
X145091543Y-120894857D01*
X145097584Y-120888325D01*
X145109417Y-120868779D01*
X145116404Y-120840386D01*
X145119727Y-120796430D01*
X145120571Y-120730192D01*
X145119125Y-120668150D01*
X145111907Y-120609042D01*
X145097006Y-120571686D01*
X145072636Y-120552152D01*
X145037008Y-120546514D01*
X145023440Y-120547635D01*
X144985430Y-120568194D01*
X144960312Y-120614299D01*
X144948248Y-120685513D01*
X144801768Y-120685513D01*
X144801833Y-120678096D01*
X144808937Y-120607882D01*
X144822815Y-120552312D01*
X144840649Y-120515301D01*
X144890855Y-120457733D01*
X144958885Y-120421962D01*
X145042158Y-120409665D01*
X145064398Y-120410331D01*
X145129891Y-120423947D01*
X145183687Y-120458249D01*
X145233057Y-120517338D01*
X145235995Y-120521722D01*
X145249287Y-120545299D01*
X145257932Y-120571949D01*
X145262904Y-120608159D01*
X145265174Y-120660413D01*
X145265678Y-120730192D01*
X145265714Y-120735200D01*
G37*
X139140590Y-120752622D02*
X139140307Y-120791305D01*
X139136762Y-120867521D01*
X139127483Y-120923294D01*
X139110375Y-120964613D01*
X139083344Y-120997467D01*
X139044292Y-121027846D01*
X139019445Y-121041660D01*
X138979615Y-121050965D01*
X138923665Y-121050230D01*
X138892385Y-121047283D01*
X138854653Y-121038283D01*
X138824494Y-121018720D01*
X138789408Y-120982267D01*
X138784720Y-120976943D01*
X138753177Y-120935969D01*
X138738128Y-120900283D01*
X138734286Y-120857966D01*
X138734286Y-120795779D01*
X138777742Y-120812182D01*
X138809424Y-120831356D01*
X138836962Y-120876347D01*
X138842711Y-120890752D01*
X138874855Y-120931546D01*
X138918611Y-120952081D01*
X138966254Y-120950235D01*
X139010057Y-120923886D01*
X139025111Y-120907455D01*
X139038763Y-120882667D01*
X139034493Y-120860144D01*
X139009916Y-120836964D01*
X138962651Y-120810202D01*
X138890314Y-120776934D01*
X138741543Y-120711816D01*
X138737595Y-120647308D01*
X138739079Y-120606220D01*
X138836010Y-120606220D01*
X138843368Y-120631657D01*
X138876848Y-120658814D01*
X138937614Y-120689714D01*
X138947669Y-120694190D01*
X138995751Y-120715017D01*
X139031726Y-120729665D01*
X139048444Y-120735200D01*
X139050977Y-120731126D01*
X139051993Y-120706247D01*
X139048369Y-120666257D01*
X139039242Y-120627152D01*
X139010773Y-120577884D01*
X138969678Y-120550122D01*
X138920590Y-120546364D01*
X138868144Y-120569109D01*
X138853609Y-120580481D01*
X138836010Y-120606220D01*
X138739079Y-120606220D01*
X138739338Y-120599064D01*
X138761281Y-120538096D01*
X138788979Y-120504497D01*
X138846405Y-120466966D01*
X138914527Y-120448006D01*
X138984947Y-120449507D01*
X139049267Y-120473355D01*
X139063426Y-120482513D01*
X139095904Y-120510849D01*
X139118116Y-120546695D01*
X139131804Y-120595384D01*
X139138715Y-120662249D01*
X139139628Y-120706247D01*
X139140590Y-120752622D01*
G36*
X139140590Y-120752622D02*
G01*
X139140307Y-120791305D01*
X139136762Y-120867521D01*
X139127483Y-120923294D01*
X139110375Y-120964613D01*
X139083344Y-120997467D01*
X139044292Y-121027846D01*
X139019445Y-121041660D01*
X138979615Y-121050965D01*
X138923665Y-121050230D01*
X138892385Y-121047283D01*
X138854653Y-121038283D01*
X138824494Y-121018720D01*
X138789408Y-120982267D01*
X138784720Y-120976943D01*
X138753177Y-120935969D01*
X138738128Y-120900283D01*
X138734286Y-120857966D01*
X138734286Y-120795779D01*
X138777742Y-120812182D01*
X138809424Y-120831356D01*
X138836962Y-120876347D01*
X138842711Y-120890752D01*
X138874855Y-120931546D01*
X138918611Y-120952081D01*
X138966254Y-120950235D01*
X139010057Y-120923886D01*
X139025111Y-120907455D01*
X139038763Y-120882667D01*
X139034493Y-120860144D01*
X139009916Y-120836964D01*
X138962651Y-120810202D01*
X138890314Y-120776934D01*
X138741543Y-120711816D01*
X138737595Y-120647308D01*
X138739079Y-120606220D01*
X138836010Y-120606220D01*
X138843368Y-120631657D01*
X138876848Y-120658814D01*
X138937614Y-120689714D01*
X138947669Y-120694190D01*
X138995751Y-120715017D01*
X139031726Y-120729665D01*
X139048444Y-120735200D01*
X139050977Y-120731126D01*
X139051993Y-120706247D01*
X139048369Y-120666257D01*
X139039242Y-120627152D01*
X139010773Y-120577884D01*
X138969678Y-120550122D01*
X138920590Y-120546364D01*
X138868144Y-120569109D01*
X138853609Y-120580481D01*
X138836010Y-120606220D01*
X138739079Y-120606220D01*
X138739338Y-120599064D01*
X138761281Y-120538096D01*
X138788979Y-120504497D01*
X138846405Y-120466966D01*
X138914527Y-120448006D01*
X138984947Y-120449507D01*
X139049267Y-120473355D01*
X139063426Y-120482513D01*
X139095904Y-120510849D01*
X139118116Y-120546695D01*
X139131804Y-120595384D01*
X139138715Y-120662249D01*
X139139628Y-120706247D01*
X139140590Y-120752622D01*
G37*
X141230698Y-120749714D02*
X141229537Y-120806313D01*
X141221345Y-120883462D01*
X141203519Y-120941276D01*
X141173975Y-120985422D01*
X141130625Y-121021568D01*
X141089332Y-121042463D01*
X141019987Y-121054090D01*
X140950736Y-121041377D01*
X140888145Y-121005945D01*
X140838779Y-120949418D01*
X140832818Y-120938995D01*
X140824945Y-120920733D01*
X140819106Y-120897429D01*
X140814999Y-120865085D01*
X140812325Y-120819704D01*
X140810781Y-120757287D01*
X140810734Y-120751748D01*
X140911429Y-120751748D01*
X140911772Y-120804577D01*
X140913942Y-120852362D01*
X140919307Y-120883209D01*
X140929217Y-120903935D01*
X140945021Y-120921356D01*
X140948724Y-120924705D01*
X140996299Y-120949419D01*
X141046635Y-120946890D01*
X141093517Y-120917288D01*
X141107477Y-120901953D01*
X141119160Y-120881622D01*
X141125686Y-120853514D01*
X141128524Y-120810550D01*
X141129143Y-120745647D01*
X141128837Y-120696122D01*
X141126722Y-120647782D01*
X141121390Y-120616587D01*
X141111460Y-120595647D01*
X141095550Y-120578073D01*
X141086204Y-120570159D01*
X141037776Y-120548843D01*
X140987040Y-120552198D01*
X140942987Y-120580107D01*
X140933504Y-120591173D01*
X140921939Y-120612009D01*
X140915252Y-120641106D01*
X140912173Y-120685381D01*
X140911429Y-120751748D01*
X140810734Y-120751748D01*
X140810067Y-120673837D01*
X140809883Y-120565358D01*
X140809829Y-120228601D01*
X140857000Y-120248362D01*
X140869472Y-120253770D01*
X140889324Y-120265985D01*
X140900687Y-120284482D01*
X140906933Y-120316829D01*
X140911429Y-120370593D01*
X140915535Y-120418866D01*
X140920963Y-120450557D01*
X140928739Y-120462383D01*
X140940457Y-120459212D01*
X140970318Y-120448067D01*
X141023684Y-120445304D01*
X141081093Y-120455625D01*
X141130625Y-120477861D01*
X141157876Y-120498443D01*
X141192865Y-120538600D01*
X141215274Y-120590086D01*
X141227190Y-120658568D01*
X141230542Y-120745647D01*
X141230698Y-120749714D01*
G36*
X141230698Y-120749714D02*
G01*
X141229537Y-120806313D01*
X141221345Y-120883462D01*
X141203519Y-120941276D01*
X141173975Y-120985422D01*
X141130625Y-121021568D01*
X141089332Y-121042463D01*
X141019987Y-121054090D01*
X140950736Y-121041377D01*
X140888145Y-121005945D01*
X140838779Y-120949418D01*
X140832818Y-120938995D01*
X140824945Y-120920733D01*
X140819106Y-120897429D01*
X140814999Y-120865085D01*
X140812325Y-120819704D01*
X140810781Y-120757287D01*
X140810734Y-120751748D01*
X140911429Y-120751748D01*
X140911772Y-120804577D01*
X140913942Y-120852362D01*
X140919307Y-120883209D01*
X140929217Y-120903935D01*
X140945021Y-120921356D01*
X140948724Y-120924705D01*
X140996299Y-120949419D01*
X141046635Y-120946890D01*
X141093517Y-120917288D01*
X141107477Y-120901953D01*
X141119160Y-120881622D01*
X141125686Y-120853514D01*
X141128524Y-120810550D01*
X141129143Y-120745647D01*
X141128837Y-120696122D01*
X141126722Y-120647782D01*
X141121390Y-120616587D01*
X141111460Y-120595647D01*
X141095550Y-120578073D01*
X141086204Y-120570159D01*
X141037776Y-120548843D01*
X140987040Y-120552198D01*
X140942987Y-120580107D01*
X140933504Y-120591173D01*
X140921939Y-120612009D01*
X140915252Y-120641106D01*
X140912173Y-120685381D01*
X140911429Y-120751748D01*
X140810734Y-120751748D01*
X140810067Y-120673837D01*
X140809883Y-120565358D01*
X140809829Y-120228601D01*
X140857000Y-120248362D01*
X140869472Y-120253770D01*
X140889324Y-120265985D01*
X140900687Y-120284482D01*
X140906933Y-120316829D01*
X140911429Y-120370593D01*
X140915535Y-120418866D01*
X140920963Y-120450557D01*
X140928739Y-120462383D01*
X140940457Y-120459212D01*
X140970318Y-120448067D01*
X141023684Y-120445304D01*
X141081093Y-120455625D01*
X141130625Y-120477861D01*
X141157876Y-120498443D01*
X141192865Y-120538600D01*
X141215274Y-120590086D01*
X141227190Y-120658568D01*
X141230542Y-120745647D01*
X141230698Y-120749714D01*
G37*
X144162299Y-120694055D02*
X144157684Y-120804078D01*
X144155078Y-120827387D01*
X144135660Y-120910352D01*
X144100573Y-120973448D01*
X144047212Y-121021808D01*
X144044196Y-121023804D01*
X143976362Y-121052185D01*
X143905535Y-121054711D01*
X143837289Y-121033097D01*
X143777196Y-120989062D01*
X143730829Y-120924322D01*
X143730050Y-120922761D01*
X143714643Y-120882558D01*
X143703357Y-120836866D01*
X143697370Y-120793972D01*
X143697861Y-120762160D01*
X143706007Y-120749714D01*
X143713244Y-120750471D01*
X143747851Y-120764235D01*
X143787078Y-120789546D01*
X143820448Y-120818845D01*
X143837483Y-120844572D01*
X143855192Y-120879471D01*
X143891485Y-120911212D01*
X143933630Y-120923886D01*
X143949077Y-120920221D01*
X143979569Y-120901774D01*
X144006128Y-120876166D01*
X144017486Y-120852934D01*
X144017482Y-120852848D01*
X144004596Y-120842179D01*
X143970241Y-120822933D01*
X143919593Y-120797813D01*
X143857829Y-120769524D01*
X143857489Y-120769374D01*
X143790388Y-120739498D01*
X143745411Y-120717973D01*
X143718145Y-120701437D01*
X143704178Y-120686531D01*
X143699097Y-120669893D01*
X143698490Y-120648162D01*
X143702712Y-120607013D01*
X143846000Y-120607013D01*
X143860791Y-120619949D01*
X143897644Y-120639333D01*
X143898725Y-120639881D01*
X143942205Y-120660587D01*
X143981102Y-120677105D01*
X144005778Y-120684093D01*
X144015676Y-120674753D01*
X144017486Y-120642748D01*
X144009966Y-120602915D01*
X143983897Y-120566717D01*
X143946154Y-120547950D01*
X143904077Y-120549845D01*
X143865005Y-120575632D01*
X143849647Y-120593451D01*
X143846000Y-120607013D01*
X143702712Y-120607013D01*
X143703833Y-120596086D01*
X143730251Y-120525335D01*
X143774473Y-120469735D01*
X143831697Y-120431239D01*
X143897120Y-120411797D01*
X143965937Y-120413359D01*
X144033347Y-120437878D01*
X144094544Y-120487302D01*
X144128450Y-120536212D01*
X144152806Y-120606027D01*
X144156767Y-120642748D01*
X144162299Y-120694055D01*
G36*
X144162299Y-120694055D02*
G01*
X144157684Y-120804078D01*
X144155078Y-120827387D01*
X144135660Y-120910352D01*
X144100573Y-120973448D01*
X144047212Y-121021808D01*
X144044196Y-121023804D01*
X143976362Y-121052185D01*
X143905535Y-121054711D01*
X143837289Y-121033097D01*
X143777196Y-120989062D01*
X143730829Y-120924322D01*
X143730050Y-120922761D01*
X143714643Y-120882558D01*
X143703357Y-120836866D01*
X143697370Y-120793972D01*
X143697861Y-120762160D01*
X143706007Y-120749714D01*
X143713244Y-120750471D01*
X143747851Y-120764235D01*
X143787078Y-120789546D01*
X143820448Y-120818845D01*
X143837483Y-120844572D01*
X143855192Y-120879471D01*
X143891485Y-120911212D01*
X143933630Y-120923886D01*
X143949077Y-120920221D01*
X143979569Y-120901774D01*
X144006128Y-120876166D01*
X144017486Y-120852934D01*
X144017482Y-120852848D01*
X144004596Y-120842179D01*
X143970241Y-120822933D01*
X143919593Y-120797813D01*
X143857829Y-120769524D01*
X143857489Y-120769374D01*
X143790388Y-120739498D01*
X143745411Y-120717973D01*
X143718145Y-120701437D01*
X143704178Y-120686531D01*
X143699097Y-120669893D01*
X143698490Y-120648162D01*
X143702712Y-120607013D01*
X143846000Y-120607013D01*
X143860791Y-120619949D01*
X143897644Y-120639333D01*
X143898725Y-120639881D01*
X143942205Y-120660587D01*
X143981102Y-120677105D01*
X144005778Y-120684093D01*
X144015676Y-120674753D01*
X144017486Y-120642748D01*
X144009966Y-120602915D01*
X143983897Y-120566717D01*
X143946154Y-120547950D01*
X143904077Y-120549845D01*
X143865005Y-120575632D01*
X143849647Y-120593451D01*
X143846000Y-120607013D01*
X143702712Y-120607013D01*
X143703833Y-120596086D01*
X143730251Y-120525335D01*
X143774473Y-120469735D01*
X143831697Y-120431239D01*
X143897120Y-120411797D01*
X143965937Y-120413359D01*
X144033347Y-120437878D01*
X144094544Y-120487302D01*
X144128450Y-120536212D01*
X144152806Y-120606027D01*
X144156767Y-120642748D01*
X144162299Y-120694055D01*
G37*
X142089483Y-120460569D02*
X142139376Y-120489661D01*
X142161325Y-120512327D01*
X142203504Y-120580082D01*
X142217714Y-120653950D01*
X142217714Y-120704770D01*
X142170999Y-120685128D01*
X142138692Y-120665308D01*
X142113231Y-120624160D01*
X142110616Y-120615675D01*
X142082478Y-120572451D01*
X142040067Y-120549103D01*
X141991370Y-120548100D01*
X141944373Y-120571914D01*
X141937357Y-120578056D01*
X141913893Y-120604745D01*
X141910019Y-120628014D01*
X141927768Y-120650862D01*
X141969179Y-120676287D01*
X142036286Y-120707288D01*
X142040824Y-120709252D01*
X142115322Y-120743990D01*
X142166203Y-120774763D01*
X142197525Y-120805488D01*
X142213343Y-120840082D01*
X142217714Y-120882462D01*
X142211986Y-120929446D01*
X142183062Y-120989585D01*
X142132178Y-121032788D01*
X142095374Y-121045759D01*
X142043434Y-121052856D01*
X141992999Y-121051340D01*
X141956983Y-121040632D01*
X141953158Y-121037966D01*
X141942998Y-121019337D01*
X141950048Y-120986505D01*
X141962297Y-120960735D01*
X141981939Y-120950006D01*
X142019191Y-120950539D01*
X142070908Y-120947462D01*
X142104701Y-120926212D01*
X142116114Y-120886877D01*
X142116104Y-120885747D01*
X142109187Y-120862913D01*
X142085659Y-120841963D01*
X142039914Y-120817815D01*
X141977704Y-120788741D01*
X141936499Y-120772925D01*
X141912712Y-120773944D01*
X141901597Y-120794837D01*
X141898408Y-120838641D01*
X141898400Y-120908393D01*
X141898044Y-120951452D01*
X141896413Y-121004626D01*
X141893761Y-121041022D01*
X141890422Y-121054514D01*
X141889530Y-121054423D01*
X141870237Y-121047110D01*
X141838284Y-121031678D01*
X141794124Y-121008842D01*
X141799371Y-120803078D01*
X141799736Y-120789432D01*
X141803904Y-120693651D01*
X141811268Y-120621462D01*
X141823330Y-120568058D01*
X141841593Y-120528633D01*
X141867560Y-120498380D01*
X141902733Y-120472493D01*
X141903384Y-120472087D01*
X141960256Y-120450968D01*
X142026033Y-120447400D01*
X142089483Y-120460569D01*
G36*
X142089483Y-120460569D02*
G01*
X142139376Y-120489661D01*
X142161325Y-120512327D01*
X142203504Y-120580082D01*
X142217714Y-120653950D01*
X142217714Y-120704770D01*
X142170999Y-120685128D01*
X142138692Y-120665308D01*
X142113231Y-120624160D01*
X142110616Y-120615675D01*
X142082478Y-120572451D01*
X142040067Y-120549103D01*
X141991370Y-120548100D01*
X141944373Y-120571914D01*
X141937357Y-120578056D01*
X141913893Y-120604745D01*
X141910019Y-120628014D01*
X141927768Y-120650862D01*
X141969179Y-120676287D01*
X142036286Y-120707288D01*
X142040824Y-120709252D01*
X142115322Y-120743990D01*
X142166203Y-120774763D01*
X142197525Y-120805488D01*
X142213343Y-120840082D01*
X142217714Y-120882462D01*
X142211986Y-120929446D01*
X142183062Y-120989585D01*
X142132178Y-121032788D01*
X142095374Y-121045759D01*
X142043434Y-121052856D01*
X141992999Y-121051340D01*
X141956983Y-121040632D01*
X141953158Y-121037966D01*
X141942998Y-121019337D01*
X141950048Y-120986505D01*
X141962297Y-120960735D01*
X141981939Y-120950006D01*
X142019191Y-120950539D01*
X142070908Y-120947462D01*
X142104701Y-120926212D01*
X142116114Y-120886877D01*
X142116104Y-120885747D01*
X142109187Y-120862913D01*
X142085659Y-120841963D01*
X142039914Y-120817815D01*
X141977704Y-120788741D01*
X141936499Y-120772925D01*
X141912712Y-120773944D01*
X141901597Y-120794837D01*
X141898408Y-120838641D01*
X141898400Y-120908393D01*
X141898044Y-120951452D01*
X141896413Y-121004626D01*
X141893761Y-121041022D01*
X141890422Y-121054514D01*
X141889530Y-121054423D01*
X141870237Y-121047110D01*
X141838284Y-121031678D01*
X141794124Y-121008842D01*
X141799371Y-120803078D01*
X141799736Y-120789432D01*
X141803904Y-120693651D01*
X141811268Y-120621462D01*
X141823330Y-120568058D01*
X141841593Y-120528633D01*
X141867560Y-120498380D01*
X141902733Y-120472493D01*
X141903384Y-120472087D01*
X141960256Y-120450968D01*
X142026033Y-120447400D01*
X142089483Y-120460569D01*
G37*
X139967495Y-120446220D02*
X139998599Y-120454121D01*
X140027559Y-120473817D01*
X140064831Y-120510484D01*
X140088801Y-120536378D01*
X140113770Y-120569997D01*
X140125031Y-120601506D01*
X140127657Y-120641485D01*
X140127657Y-120706917D01*
X140083035Y-120683842D01*
X140047673Y-120655724D01*
X140023451Y-120617848D01*
X140019291Y-120607551D01*
X139987594Y-120567637D01*
X139943554Y-120547624D01*
X139895531Y-120549572D01*
X139851886Y-120575543D01*
X139833420Y-120596635D01*
X139822663Y-120623619D01*
X139834178Y-120647634D01*
X139869981Y-120671791D01*
X139932090Y-120699199D01*
X139941515Y-120702985D01*
X139998058Y-120727759D01*
X140046580Y-120752189D01*
X140077451Y-120771486D01*
X140108371Y-120805953D01*
X140128927Y-120860957D01*
X140126744Y-120919983D01*
X140102424Y-120975845D01*
X140056568Y-121021355D01*
X140019438Y-121040727D01*
X139947711Y-121054292D01*
X139907852Y-121052462D01*
X139870953Y-121042568D01*
X139856797Y-121021806D01*
X139862091Y-120987613D01*
X139863631Y-120983092D01*
X139875842Y-120959116D01*
X139896174Y-120950042D01*
X139934908Y-120950649D01*
X139962257Y-120951474D01*
X139994257Y-120944392D01*
X140016182Y-120923219D01*
X140028670Y-120897152D01*
X140030062Y-120869845D01*
X140029998Y-120869685D01*
X140013807Y-120854930D01*
X139979155Y-120833457D01*
X139934321Y-120809458D01*
X139887582Y-120787125D01*
X139847217Y-120770652D01*
X139821504Y-120764229D01*
X139817679Y-120770518D01*
X139812864Y-120800115D01*
X139809566Y-120848447D01*
X139808343Y-120909372D01*
X139808058Y-120951542D01*
X139806718Y-121004653D01*
X139804528Y-121041025D01*
X139801769Y-121054514D01*
X139787344Y-121049981D01*
X139758226Y-121037670D01*
X139721257Y-121020826D01*
X139721257Y-120804721D01*
X139721493Y-120749327D01*
X139723729Y-120665207D01*
X139729423Y-120602800D01*
X139739903Y-120557358D01*
X139756497Y-120524133D01*
X139780531Y-120498378D01*
X139813333Y-120475344D01*
X139855124Y-120456335D01*
X139932287Y-120444914D01*
X139967495Y-120446220D01*
G36*
X139967495Y-120446220D02*
G01*
X139998599Y-120454121D01*
X140027559Y-120473817D01*
X140064831Y-120510484D01*
X140088801Y-120536378D01*
X140113770Y-120569997D01*
X140125031Y-120601506D01*
X140127657Y-120641485D01*
X140127657Y-120706917D01*
X140083035Y-120683842D01*
X140047673Y-120655724D01*
X140023451Y-120617848D01*
X140019291Y-120607551D01*
X139987594Y-120567637D01*
X139943554Y-120547624D01*
X139895531Y-120549572D01*
X139851886Y-120575543D01*
X139833420Y-120596635D01*
X139822663Y-120623619D01*
X139834178Y-120647634D01*
X139869981Y-120671791D01*
X139932090Y-120699199D01*
X139941515Y-120702985D01*
X139998058Y-120727759D01*
X140046580Y-120752189D01*
X140077451Y-120771486D01*
X140108371Y-120805953D01*
X140128927Y-120860957D01*
X140126744Y-120919983D01*
X140102424Y-120975845D01*
X140056568Y-121021355D01*
X140019438Y-121040727D01*
X139947711Y-121054292D01*
X139907852Y-121052462D01*
X139870953Y-121042568D01*
X139856797Y-121021806D01*
X139862091Y-120987613D01*
X139863631Y-120983092D01*
X139875842Y-120959116D01*
X139896174Y-120950042D01*
X139934908Y-120950649D01*
X139962257Y-120951474D01*
X139994257Y-120944392D01*
X140016182Y-120923219D01*
X140028670Y-120897152D01*
X140030062Y-120869845D01*
X140029998Y-120869685D01*
X140013807Y-120854930D01*
X139979155Y-120833457D01*
X139934321Y-120809458D01*
X139887582Y-120787125D01*
X139847217Y-120770652D01*
X139821504Y-120764229D01*
X139817679Y-120770518D01*
X139812864Y-120800115D01*
X139809566Y-120848447D01*
X139808343Y-120909372D01*
X139808058Y-120951542D01*
X139806718Y-121004653D01*
X139804528Y-121041025D01*
X139801769Y-121054514D01*
X139787344Y-121049981D01*
X139758226Y-121037670D01*
X139721257Y-121020826D01*
X139721257Y-120804721D01*
X139721493Y-120749327D01*
X139723729Y-120665207D01*
X139729423Y-120602800D01*
X139739903Y-120557358D01*
X139756497Y-120524133D01*
X139780531Y-120498378D01*
X139813333Y-120475344D01*
X139855124Y-120456335D01*
X139932287Y-120444914D01*
X139967495Y-120446220D01*
G37*
X144709815Y-120801524D02*
X144711252Y-120913000D01*
X144711651Y-120945339D01*
X144712929Y-121053455D01*
X144713185Y-121136186D01*
X144711634Y-121196426D01*
X144707490Y-121237073D01*
X144699964Y-121261023D01*
X144688271Y-121271171D01*
X144671624Y-121270414D01*
X144649236Y-121261648D01*
X144620321Y-121247769D01*
X144614142Y-121244808D01*
X144588413Y-121230311D01*
X144574976Y-121213065D01*
X144569834Y-121184308D01*
X144568990Y-121135283D01*
X144568952Y-121047257D01*
X144478276Y-121047257D01*
X144422498Y-121044815D01*
X144378640Y-121034908D01*
X144342218Y-121014886D01*
X144339503Y-121012929D01*
X144302546Y-120979869D01*
X144276826Y-120939931D01*
X144260606Y-120887657D01*
X144252148Y-120817588D01*
X144250083Y-120738430D01*
X144394857Y-120738430D01*
X144394882Y-120751697D01*
X144396261Y-120811584D01*
X144400687Y-120850732D01*
X144409461Y-120876153D01*
X144423886Y-120894857D01*
X144424784Y-120895750D01*
X144460237Y-120919952D01*
X144494596Y-120917567D01*
X144533403Y-120888260D01*
X144542895Y-120878244D01*
X144556876Y-120857708D01*
X144564760Y-120830997D01*
X144568245Y-120790499D01*
X144569029Y-120728603D01*
X144568350Y-120691130D01*
X144560983Y-120622980D01*
X144544168Y-120578330D01*
X144516234Y-120553926D01*
X144475509Y-120546514D01*
X144458350Y-120548094D01*
X144428660Y-120563766D01*
X144409031Y-120598691D01*
X144398188Y-120655901D01*
X144394857Y-120738430D01*
X144250083Y-120738430D01*
X144249714Y-120724267D01*
X144250253Y-120656169D01*
X144252707Y-120604587D01*
X144258158Y-120568816D01*
X144267686Y-120542015D01*
X144282371Y-120517338D01*
X144295852Y-120498480D01*
X144344799Y-120447568D01*
X144400256Y-120419918D01*
X144469928Y-120411165D01*
X144549664Y-120419890D01*
X144618595Y-120451185D01*
X144673113Y-120506381D01*
X144677223Y-120512224D01*
X144686808Y-120527753D01*
X144694151Y-120545498D01*
X144699612Y-120569290D01*
X144703550Y-120602958D01*
X144706323Y-120650333D01*
X144708292Y-120715245D01*
X144708528Y-120728603D01*
X144709815Y-120801524D01*
G36*
X144709815Y-120801524D02*
G01*
X144711252Y-120913000D01*
X144711651Y-120945339D01*
X144712929Y-121053455D01*
X144713185Y-121136186D01*
X144711634Y-121196426D01*
X144707490Y-121237073D01*
X144699964Y-121261023D01*
X144688271Y-121271171D01*
X144671624Y-121270414D01*
X144649236Y-121261648D01*
X144620321Y-121247769D01*
X144614142Y-121244808D01*
X144588413Y-121230311D01*
X144574976Y-121213065D01*
X144569834Y-121184308D01*
X144568990Y-121135283D01*
X144568952Y-121047257D01*
X144478276Y-121047257D01*
X144422498Y-121044815D01*
X144378640Y-121034908D01*
X144342218Y-121014886D01*
X144339503Y-121012929D01*
X144302546Y-120979869D01*
X144276826Y-120939931D01*
X144260606Y-120887657D01*
X144252148Y-120817588D01*
X144250083Y-120738430D01*
X144394857Y-120738430D01*
X144394882Y-120751697D01*
X144396261Y-120811584D01*
X144400687Y-120850732D01*
X144409461Y-120876153D01*
X144423886Y-120894857D01*
X144424784Y-120895750D01*
X144460237Y-120919952D01*
X144494596Y-120917567D01*
X144533403Y-120888260D01*
X144542895Y-120878244D01*
X144556876Y-120857708D01*
X144564760Y-120830997D01*
X144568245Y-120790499D01*
X144569029Y-120728603D01*
X144568350Y-120691130D01*
X144560983Y-120622980D01*
X144544168Y-120578330D01*
X144516234Y-120553926D01*
X144475509Y-120546514D01*
X144458350Y-120548094D01*
X144428660Y-120563766D01*
X144409031Y-120598691D01*
X144398188Y-120655901D01*
X144394857Y-120738430D01*
X144250083Y-120738430D01*
X144249714Y-120724267D01*
X144250253Y-120656169D01*
X144252707Y-120604587D01*
X144258158Y-120568816D01*
X144267686Y-120542015D01*
X144282371Y-120517338D01*
X144295852Y-120498480D01*
X144344799Y-120447568D01*
X144400256Y-120419918D01*
X144469928Y-120411165D01*
X144549664Y-120419890D01*
X144618595Y-120451185D01*
X144673113Y-120506381D01*
X144677223Y-120512224D01*
X144686808Y-120527753D01*
X144694151Y-120545498D01*
X144699612Y-120569290D01*
X144703550Y-120602958D01*
X144706323Y-120650333D01*
X144708292Y-120715245D01*
X144708528Y-120728603D01*
X144709815Y-120801524D01*
G37*
X142113933Y-115742371D02*
X142189856Y-115742865D01*
X142244491Y-115744135D01*
X142281500Y-115746547D01*
X142304547Y-115750467D01*
X142317296Y-115756262D01*
X142323411Y-115764299D01*
X142326556Y-115774943D01*
X142326646Y-115775325D01*
X142331814Y-115800347D01*
X142341209Y-115848681D01*
X142353867Y-115915260D01*
X142368825Y-115995014D01*
X142385119Y-116082875D01*
X142386448Y-116090064D01*
X142402691Y-116175340D01*
X142417805Y-116250242D01*
X142430808Y-116310219D01*
X142440715Y-116350717D01*
X142446544Y-116367184D01*
X142446575Y-116367210D01*
X142464943Y-116376320D01*
X142502640Y-116391457D01*
X142551543Y-116409358D01*
X142554297Y-116410330D01*
X142616817Y-116433959D01*
X142689543Y-116463595D01*
X142757294Y-116493062D01*
X142868703Y-116543626D01*
X143115399Y-116375160D01*
X143132775Y-116363311D01*
X143207202Y-116312947D01*
X143273614Y-116268612D01*
X143328039Y-116232916D01*
X143366506Y-116208471D01*
X143385042Y-116197889D01*
X143397743Y-116200315D01*
X143426579Y-116219110D01*
X143471143Y-116256330D01*
X143532670Y-116313020D01*
X143612398Y-116390227D01*
X143619532Y-116397255D01*
X143682796Y-116460222D01*
X143738990Y-116517268D01*
X143784677Y-116564817D01*
X143816414Y-116599297D01*
X143830764Y-116617131D01*
X143830810Y-116617217D01*
X143832633Y-116630795D01*
X143825910Y-116652820D01*
X143808946Y-116686304D01*
X143780044Y-116734261D01*
X143737508Y-116799704D01*
X143679644Y-116885645D01*
X143669783Y-116900151D01*
X143619913Y-116973635D01*
X143575905Y-117038687D01*
X143540380Y-117091417D01*
X143515959Y-117127936D01*
X143505264Y-117144356D01*
X143504458Y-117147834D01*
X143509518Y-117173785D01*
X143524677Y-117216159D01*
X143547463Y-117267728D01*
X143578429Y-117335170D01*
X143613004Y-117415195D01*
X143642366Y-117487629D01*
X143649645Y-117506377D01*
X143668710Y-117554246D01*
X143682715Y-117587596D01*
X143689041Y-117600114D01*
X143696025Y-117601050D01*
X143727413Y-117606461D01*
X143778787Y-117615806D01*
X143844802Y-117628069D01*
X143920113Y-117642232D01*
X143999375Y-117657280D01*
X144077243Y-117672195D01*
X144148370Y-117685961D01*
X144207412Y-117697562D01*
X144249022Y-117705980D01*
X144267857Y-117710199D01*
X144270980Y-117711389D01*
X144278591Y-117717805D01*
X144284254Y-117731465D01*
X144288251Y-117755999D01*
X144290866Y-117795038D01*
X144292384Y-117852213D01*
X144293086Y-117931154D01*
X144293257Y-118035492D01*
X144293257Y-118352799D01*
X144217057Y-118367839D01*
X144207840Y-118369642D01*
X144158891Y-118378980D01*
X144091205Y-118391669D01*
X144012478Y-118406273D01*
X143930400Y-118421355D01*
X143898078Y-118427422D01*
X143825855Y-118442181D01*
X143765666Y-118456137D01*
X143723040Y-118467952D01*
X143703510Y-118476287D01*
X143694660Y-118489905D01*
X143678548Y-118525938D01*
X143662065Y-118572572D01*
X143656263Y-118590034D01*
X143634906Y-118647358D01*
X143607359Y-118715201D01*
X143578107Y-118782355D01*
X143562463Y-118817430D01*
X143540174Y-118869822D01*
X143524857Y-118909058D01*
X143519162Y-118928563D01*
X143519478Y-118930036D01*
X143530281Y-118950729D01*
X143554638Y-118990665D01*
X143590081Y-119045972D01*
X143634136Y-119112781D01*
X143684332Y-119187220D01*
X143849501Y-119429623D01*
X143632503Y-119646983D01*
X143611516Y-119667899D01*
X143547342Y-119730505D01*
X143489990Y-119784495D01*
X143442820Y-119826826D01*
X143409192Y-119854457D01*
X143392467Y-119864343D01*
X143374303Y-119856821D01*
X143336265Y-119835227D01*
X143282726Y-119802151D01*
X143217884Y-119760191D01*
X143145940Y-119711943D01*
X143075275Y-119664291D01*
X143011526Y-119622328D01*
X142959513Y-119589165D01*
X142923279Y-119567378D01*
X142906867Y-119559543D01*
X142905905Y-119559614D01*
X142884103Y-119567338D01*
X142845440Y-119585323D01*
X142797612Y-119610013D01*
X142797110Y-119610284D01*
X142733587Y-119642099D01*
X142690060Y-119657642D01*
X142663052Y-119657685D01*
X142649090Y-119643000D01*
X142643180Y-119628544D01*
X142627229Y-119589831D01*
X142602660Y-119530316D01*
X142570779Y-119453165D01*
X142532893Y-119361541D01*
X142490310Y-119258607D01*
X142444337Y-119147526D01*
X142402667Y-119046472D01*
X142360268Y-118942780D01*
X142322756Y-118850119D01*
X142291388Y-118771642D01*
X142267425Y-118710500D01*
X142252123Y-118669843D01*
X142246743Y-118652825D01*
X142257018Y-118637219D01*
X142285563Y-118611162D01*
X142325971Y-118580887D01*
X142422979Y-118501684D01*
X142509793Y-118400475D01*
X142573322Y-118289116D01*
X142613177Y-118170893D01*
X142628965Y-118049095D01*
X142620296Y-117927010D01*
X142586778Y-117807925D01*
X142528021Y-117695129D01*
X142443632Y-117591911D01*
X142399631Y-117551713D01*
X142294211Y-117480638D01*
X142181410Y-117434301D01*
X142064525Y-117411599D01*
X141946853Y-117411428D01*
X141831690Y-117432687D01*
X141722335Y-117474270D01*
X141622083Y-117535076D01*
X141534233Y-117614001D01*
X141462080Y-117709941D01*
X141408922Y-117821795D01*
X141378057Y-117948457D01*
X141372392Y-118009507D01*
X141380185Y-118141776D01*
X141415284Y-118267266D01*
X141476649Y-118383759D01*
X141563243Y-118489039D01*
X141674029Y-118580887D01*
X141712931Y-118609930D01*
X141742104Y-118636272D01*
X141753257Y-118652800D01*
X141748810Y-118667209D01*
X141734378Y-118705815D01*
X141711173Y-118765201D01*
X141680452Y-118842215D01*
X141643474Y-118933703D01*
X141601496Y-119036516D01*
X141555778Y-119147502D01*
X141514178Y-119248072D01*
X141471222Y-119351947D01*
X141432829Y-119444819D01*
X141400305Y-119523525D01*
X141374958Y-119584899D01*
X141358095Y-119625779D01*
X141351025Y-119643000D01*
X141350943Y-119643204D01*
X141336798Y-119657745D01*
X141309659Y-119657579D01*
X141266023Y-119641927D01*
X141202388Y-119610013D01*
X141197379Y-119607326D01*
X141150125Y-119583150D01*
X141112811Y-119566037D01*
X141093133Y-119559543D01*
X141077005Y-119567218D01*
X141040959Y-119588871D01*
X140989092Y-119621928D01*
X140925445Y-119663810D01*
X140854060Y-119711943D01*
X140783724Y-119759131D01*
X140718670Y-119801267D01*
X140664820Y-119834578D01*
X140626374Y-119856469D01*
X140607534Y-119864343D01*
X140604325Y-119863343D01*
X140581954Y-119847584D01*
X140543733Y-119815033D01*
X140493021Y-119768733D01*
X140433181Y-119711726D01*
X140367571Y-119647058D01*
X140150648Y-119429772D01*
X140319601Y-119181253D01*
X140488553Y-118932733D01*
X140437183Y-118821595D01*
X140437031Y-118821266D01*
X140406183Y-118750418D01*
X140374661Y-118671523D01*
X140349266Y-118601600D01*
X140345423Y-118590322D01*
X140326047Y-118537967D01*
X140308574Y-118497283D01*
X140296388Y-118476287D01*
X140291426Y-118473322D01*
X140261634Y-118463375D01*
X140211047Y-118450505D01*
X140145194Y-118436053D01*
X140069600Y-118421355D01*
X140046957Y-118417210D01*
X139965038Y-118402116D01*
X139888600Y-118387899D01*
X139825337Y-118375995D01*
X139782943Y-118367839D01*
X139706743Y-118352799D01*
X139706743Y-118035492D01*
X139706760Y-117996476D01*
X139707082Y-117901292D01*
X139708033Y-117830255D01*
X139709896Y-117779734D01*
X139712955Y-117746098D01*
X139717494Y-117725718D01*
X139723795Y-117714962D01*
X139732143Y-117710199D01*
X139740224Y-117708270D01*
X139773172Y-117701445D01*
X139825736Y-117691022D01*
X139892569Y-117678018D01*
X139968328Y-117663449D01*
X140047665Y-117648333D01*
X140125237Y-117633685D01*
X140195698Y-117620523D01*
X140253702Y-117609863D01*
X140293904Y-117602721D01*
X140310959Y-117600114D01*
X140312112Y-117598541D01*
X140321385Y-117578119D01*
X140337432Y-117539045D01*
X140357635Y-117487629D01*
X140385672Y-117418353D01*
X140420186Y-117338290D01*
X140452538Y-117267728D01*
X140459952Y-117251889D01*
X140480755Y-117202293D01*
X140493219Y-117164038D01*
X140494863Y-117144356D01*
X140494015Y-117142962D01*
X140480548Y-117122420D01*
X140453850Y-117082516D01*
X140416539Y-117027140D01*
X140371234Y-116960177D01*
X140320552Y-116885517D01*
X140263445Y-116800692D01*
X140220607Y-116734800D01*
X140191460Y-116686478D01*
X140174317Y-116652733D01*
X140167495Y-116630572D01*
X140169306Y-116617002D01*
X140169915Y-116615984D01*
X140186297Y-116596210D01*
X140219695Y-116560175D01*
X140266671Y-116511451D01*
X140323786Y-116453612D01*
X140387603Y-116390227D01*
X140453802Y-116325905D01*
X140518648Y-116265447D01*
X140566299Y-116224655D01*
X140597990Y-116202484D01*
X140614958Y-116197889D01*
X140617175Y-116198921D01*
X140640524Y-116212837D01*
X140682912Y-116240030D01*
X140740369Y-116277889D01*
X140808923Y-116323803D01*
X140884601Y-116375160D01*
X141131298Y-116543626D01*
X141242706Y-116493062D01*
X141245943Y-116491597D01*
X141314343Y-116461965D01*
X141386907Y-116432493D01*
X141448457Y-116409358D01*
X141448729Y-116409262D01*
X141497595Y-116391367D01*
X141535212Y-116376253D01*
X141553457Y-116367184D01*
X141553752Y-116366855D01*
X141559946Y-116348282D01*
X141570139Y-116306045D01*
X141583348Y-116244696D01*
X141598590Y-116168789D01*
X141614881Y-116082875D01*
X141615449Y-116079796D01*
X141631713Y-115992128D01*
X141646608Y-115912741D01*
X141659171Y-115846701D01*
X141668438Y-115799079D01*
X141673444Y-115774943D01*
X141673764Y-115773605D01*
X141677060Y-115763273D01*
X141683738Y-115755506D01*
X141697462Y-115749940D01*
X141721895Y-115746207D01*
X141760702Y-115743942D01*
X141817546Y-115742778D01*
X141896090Y-115742348D01*
X142000000Y-115742286D01*
X142013056Y-115742286D01*
X142113933Y-115742371D01*
G36*
X142113933Y-115742371D02*
G01*
X142189856Y-115742865D01*
X142244491Y-115744135D01*
X142281500Y-115746547D01*
X142304547Y-115750467D01*
X142317296Y-115756262D01*
X142323411Y-115764299D01*
X142326556Y-115774943D01*
X142326646Y-115775325D01*
X142331814Y-115800347D01*
X142341209Y-115848681D01*
X142353867Y-115915260D01*
X142368825Y-115995014D01*
X142385119Y-116082875D01*
X142386448Y-116090064D01*
X142402691Y-116175340D01*
X142417805Y-116250242D01*
X142430808Y-116310219D01*
X142440715Y-116350717D01*
X142446544Y-116367184D01*
X142446575Y-116367210D01*
X142464943Y-116376320D01*
X142502640Y-116391457D01*
X142551543Y-116409358D01*
X142554297Y-116410330D01*
X142616817Y-116433959D01*
X142689543Y-116463595D01*
X142757294Y-116493062D01*
X142868703Y-116543626D01*
X143115399Y-116375160D01*
X143132775Y-116363311D01*
X143207202Y-116312947D01*
X143273614Y-116268612D01*
X143328039Y-116232916D01*
X143366506Y-116208471D01*
X143385042Y-116197889D01*
X143397743Y-116200315D01*
X143426579Y-116219110D01*
X143471143Y-116256330D01*
X143532670Y-116313020D01*
X143612398Y-116390227D01*
X143619532Y-116397255D01*
X143682796Y-116460222D01*
X143738990Y-116517268D01*
X143784677Y-116564817D01*
X143816414Y-116599297D01*
X143830764Y-116617131D01*
X143830810Y-116617217D01*
X143832633Y-116630795D01*
X143825910Y-116652820D01*
X143808946Y-116686304D01*
X143780044Y-116734261D01*
X143737508Y-116799704D01*
X143679644Y-116885645D01*
X143669783Y-116900151D01*
X143619913Y-116973635D01*
X143575905Y-117038687D01*
X143540380Y-117091417D01*
X143515959Y-117127936D01*
X143505264Y-117144356D01*
X143504458Y-117147834D01*
X143509518Y-117173785D01*
X143524677Y-117216159D01*
X143547463Y-117267728D01*
X143578429Y-117335170D01*
X143613004Y-117415195D01*
X143642366Y-117487629D01*
X143649645Y-117506377D01*
X143668710Y-117554246D01*
X143682715Y-117587596D01*
X143689041Y-117600114D01*
X143696025Y-117601050D01*
X143727413Y-117606461D01*
X143778787Y-117615806D01*
X143844802Y-117628069D01*
X143920113Y-117642232D01*
X143999375Y-117657280D01*
X144077243Y-117672195D01*
X144148370Y-117685961D01*
X144207412Y-117697562D01*
X144249022Y-117705980D01*
X144267857Y-117710199D01*
X144270980Y-117711389D01*
X144278591Y-117717805D01*
X144284254Y-117731465D01*
X144288251Y-117755999D01*
X144290866Y-117795038D01*
X144292384Y-117852213D01*
X144293086Y-117931154D01*
X144293257Y-118035492D01*
X144293257Y-118352799D01*
X144217057Y-118367839D01*
X144207840Y-118369642D01*
X144158891Y-118378980D01*
X144091205Y-118391669D01*
X144012478Y-118406273D01*
X143930400Y-118421355D01*
X143898078Y-118427422D01*
X143825855Y-118442181D01*
X143765666Y-118456137D01*
X143723040Y-118467952D01*
X143703510Y-118476287D01*
X143694660Y-118489905D01*
X143678548Y-118525938D01*
X143662065Y-118572572D01*
X143656263Y-118590034D01*
X143634906Y-118647358D01*
X143607359Y-118715201D01*
X143578107Y-118782355D01*
X143562463Y-118817430D01*
X143540174Y-118869822D01*
X143524857Y-118909058D01*
X143519162Y-118928563D01*
X143519478Y-118930036D01*
X143530281Y-118950729D01*
X143554638Y-118990665D01*
X143590081Y-119045972D01*
X143634136Y-119112781D01*
X143684332Y-119187220D01*
X143849501Y-119429623D01*
X143632503Y-119646983D01*
X143611516Y-119667899D01*
X143547342Y-119730505D01*
X143489990Y-119784495D01*
X143442820Y-119826826D01*
X143409192Y-119854457D01*
X143392467Y-119864343D01*
X143374303Y-119856821D01*
X143336265Y-119835227D01*
X143282726Y-119802151D01*
X143217884Y-119760191D01*
X143145940Y-119711943D01*
X143075275Y-119664291D01*
X143011526Y-119622328D01*
X142959513Y-119589165D01*
X142923279Y-119567378D01*
X142906867Y-119559543D01*
X142905905Y-119559614D01*
X142884103Y-119567338D01*
X142845440Y-119585323D01*
X142797612Y-119610013D01*
X142797110Y-119610284D01*
X142733587Y-119642099D01*
X142690060Y-119657642D01*
X142663052Y-119657685D01*
X142649090Y-119643000D01*
X142643180Y-119628544D01*
X142627229Y-119589831D01*
X142602660Y-119530316D01*
X142570779Y-119453165D01*
X142532893Y-119361541D01*
X142490310Y-119258607D01*
X142444337Y-119147526D01*
X142402667Y-119046472D01*
X142360268Y-118942780D01*
X142322756Y-118850119D01*
X142291388Y-118771642D01*
X142267425Y-118710500D01*
X142252123Y-118669843D01*
X142246743Y-118652825D01*
X142257018Y-118637219D01*
X142285563Y-118611162D01*
X142325971Y-118580887D01*
X142422979Y-118501684D01*
X142509793Y-118400475D01*
X142573322Y-118289116D01*
X142613177Y-118170893D01*
X142628965Y-118049095D01*
X142620296Y-117927010D01*
X142586778Y-117807925D01*
X142528021Y-117695129D01*
X142443632Y-117591911D01*
X142399631Y-117551713D01*
X142294211Y-117480638D01*
X142181410Y-117434301D01*
X142064525Y-117411599D01*
X141946853Y-117411428D01*
X141831690Y-117432687D01*
X141722335Y-117474270D01*
X141622083Y-117535076D01*
X141534233Y-117614001D01*
X141462080Y-117709941D01*
X141408922Y-117821795D01*
X141378057Y-117948457D01*
X141372392Y-118009507D01*
X141380185Y-118141776D01*
X141415284Y-118267266D01*
X141476649Y-118383759D01*
X141563243Y-118489039D01*
X141674029Y-118580887D01*
X141712931Y-118609930D01*
X141742104Y-118636272D01*
X141753257Y-118652800D01*
X141748810Y-118667209D01*
X141734378Y-118705815D01*
X141711173Y-118765201D01*
X141680452Y-118842215D01*
X141643474Y-118933703D01*
X141601496Y-119036516D01*
X141555778Y-119147502D01*
X141514178Y-119248072D01*
X141471222Y-119351947D01*
X141432829Y-119444819D01*
X141400305Y-119523525D01*
X141374958Y-119584899D01*
X141358095Y-119625779D01*
X141351025Y-119643000D01*
X141350943Y-119643204D01*
X141336798Y-119657745D01*
X141309659Y-119657579D01*
X141266023Y-119641927D01*
X141202388Y-119610013D01*
X141197379Y-119607326D01*
X141150125Y-119583150D01*
X141112811Y-119566037D01*
X141093133Y-119559543D01*
X141077005Y-119567218D01*
X141040959Y-119588871D01*
X140989092Y-119621928D01*
X140925445Y-119663810D01*
X140854060Y-119711943D01*
X140783724Y-119759131D01*
X140718670Y-119801267D01*
X140664820Y-119834578D01*
X140626374Y-119856469D01*
X140607534Y-119864343D01*
X140604325Y-119863343D01*
X140581954Y-119847584D01*
X140543733Y-119815033D01*
X140493021Y-119768733D01*
X140433181Y-119711726D01*
X140367571Y-119647058D01*
X140150648Y-119429772D01*
X140319601Y-119181253D01*
X140488553Y-118932733D01*
X140437183Y-118821595D01*
X140437031Y-118821266D01*
X140406183Y-118750418D01*
X140374661Y-118671523D01*
X140349266Y-118601600D01*
X140345423Y-118590322D01*
X140326047Y-118537967D01*
X140308574Y-118497283D01*
X140296388Y-118476287D01*
X140291426Y-118473322D01*
X140261634Y-118463375D01*
X140211047Y-118450505D01*
X140145194Y-118436053D01*
X140069600Y-118421355D01*
X140046957Y-118417210D01*
X139965038Y-118402116D01*
X139888600Y-118387899D01*
X139825337Y-118375995D01*
X139782943Y-118367839D01*
X139706743Y-118352799D01*
X139706743Y-118035492D01*
X139706760Y-117996476D01*
X139707082Y-117901292D01*
X139708033Y-117830255D01*
X139709896Y-117779734D01*
X139712955Y-117746098D01*
X139717494Y-117725718D01*
X139723795Y-117714962D01*
X139732143Y-117710199D01*
X139740224Y-117708270D01*
X139773172Y-117701445D01*
X139825736Y-117691022D01*
X139892569Y-117678018D01*
X139968328Y-117663449D01*
X140047665Y-117648333D01*
X140125237Y-117633685D01*
X140195698Y-117620523D01*
X140253702Y-117609863D01*
X140293904Y-117602721D01*
X140310959Y-117600114D01*
X140312112Y-117598541D01*
X140321385Y-117578119D01*
X140337432Y-117539045D01*
X140357635Y-117487629D01*
X140385672Y-117418353D01*
X140420186Y-117338290D01*
X140452538Y-117267728D01*
X140459952Y-117251889D01*
X140480755Y-117202293D01*
X140493219Y-117164038D01*
X140494863Y-117144356D01*
X140494015Y-117142962D01*
X140480548Y-117122420D01*
X140453850Y-117082516D01*
X140416539Y-117027140D01*
X140371234Y-116960177D01*
X140320552Y-116885517D01*
X140263445Y-116800692D01*
X140220607Y-116734800D01*
X140191460Y-116686478D01*
X140174317Y-116652733D01*
X140167495Y-116630572D01*
X140169306Y-116617002D01*
X140169915Y-116615984D01*
X140186297Y-116596210D01*
X140219695Y-116560175D01*
X140266671Y-116511451D01*
X140323786Y-116453612D01*
X140387603Y-116390227D01*
X140453802Y-116325905D01*
X140518648Y-116265447D01*
X140566299Y-116224655D01*
X140597990Y-116202484D01*
X140614958Y-116197889D01*
X140617175Y-116198921D01*
X140640524Y-116212837D01*
X140682912Y-116240030D01*
X140740369Y-116277889D01*
X140808923Y-116323803D01*
X140884601Y-116375160D01*
X141131298Y-116543626D01*
X141242706Y-116493062D01*
X141245943Y-116491597D01*
X141314343Y-116461965D01*
X141386907Y-116432493D01*
X141448457Y-116409358D01*
X141448729Y-116409262D01*
X141497595Y-116391367D01*
X141535212Y-116376253D01*
X141553457Y-116367184D01*
X141553752Y-116366855D01*
X141559946Y-116348282D01*
X141570139Y-116306045D01*
X141583348Y-116244696D01*
X141598590Y-116168789D01*
X141614881Y-116082875D01*
X141615449Y-116079796D01*
X141631713Y-115992128D01*
X141646608Y-115912741D01*
X141659171Y-115846701D01*
X141668438Y-115799079D01*
X141673444Y-115774943D01*
X141673764Y-115773605D01*
X141677060Y-115763273D01*
X141683738Y-115755506D01*
X141697462Y-115749940D01*
X141721895Y-115746207D01*
X141760702Y-115743942D01*
X141817546Y-115742778D01*
X141896090Y-115742348D01*
X142000000Y-115742286D01*
X142013056Y-115742286D01*
X142113933Y-115742371D01*
G37*
X137843698Y-102641141D02*
X137869419Y-102656839D01*
X137896070Y-102678419D01*
X137896070Y-103325876D01*
X137869419Y-103347456D01*
X137838059Y-103364931D01*
X137802258Y-103365767D01*
X137770820Y-103345274D01*
X137766944Y-103340608D01*
X137761478Y-103331141D01*
X137757271Y-103317459D01*
X137754159Y-103296940D01*
X137751979Y-103266960D01*
X137750568Y-103224896D01*
X137749763Y-103168124D01*
X137749399Y-103094022D01*
X137749314Y-102999965D01*
X137749314Y-102678419D01*
X137775965Y-102656839D01*
X137799678Y-102642069D01*
X137822692Y-102635259D01*
X137843698Y-102641141D01*
G36*
X137843698Y-102641141D02*
G01*
X137869419Y-102656839D01*
X137896070Y-102678419D01*
X137896070Y-103325876D01*
X137869419Y-103347456D01*
X137838059Y-103364931D01*
X137802258Y-103365767D01*
X137770820Y-103345274D01*
X137766944Y-103340608D01*
X137761478Y-103331141D01*
X137757271Y-103317459D01*
X137754159Y-103296940D01*
X137751979Y-103266960D01*
X137750568Y-103224896D01*
X137749763Y-103168124D01*
X137749399Y-103094022D01*
X137749314Y-102999965D01*
X137749314Y-102678419D01*
X137775965Y-102656839D01*
X137799678Y-102642069D01*
X137822692Y-102635259D01*
X137843698Y-102641141D01*
G37*
X144974429Y-102639655D02*
X145008583Y-102662968D01*
X145036292Y-102690677D01*
X145036292Y-103003729D01*
X145036251Y-103087759D01*
X145035993Y-103161981D01*
X145035322Y-103218733D01*
X145034044Y-103260704D01*
X145031965Y-103290581D01*
X145028891Y-103311053D01*
X145024626Y-103324806D01*
X145018976Y-103334529D01*
X145011747Y-103342909D01*
X144980283Y-103364373D01*
X144945118Y-103366139D01*
X144912114Y-103346459D01*
X144906808Y-103340590D01*
X144901358Y-103331506D01*
X144897192Y-103318165D01*
X144894138Y-103297949D01*
X144892024Y-103268241D01*
X144890678Y-103226424D01*
X144889930Y-103169881D01*
X144889606Y-103095994D01*
X144889537Y-103002148D01*
X144889576Y-102926486D01*
X144889831Y-102848577D01*
X144890475Y-102788567D01*
X144891679Y-102743840D01*
X144893616Y-102711777D01*
X144896456Y-102689763D01*
X144900371Y-102675179D01*
X144905534Y-102665410D01*
X144912114Y-102657837D01*
X144941298Y-102638815D01*
X144974429Y-102639655D01*
G36*
X144974429Y-102639655D02*
G01*
X145008583Y-102662968D01*
X145036292Y-102690677D01*
X145036292Y-103003729D01*
X145036251Y-103087759D01*
X145035993Y-103161981D01*
X145035322Y-103218733D01*
X145034044Y-103260704D01*
X145031965Y-103290581D01*
X145028891Y-103311053D01*
X145024626Y-103324806D01*
X145018976Y-103334529D01*
X145011747Y-103342909D01*
X144980283Y-103364373D01*
X144945118Y-103366139D01*
X144912114Y-103346459D01*
X144906808Y-103340590D01*
X144901358Y-103331506D01*
X144897192Y-103318165D01*
X144894138Y-103297949D01*
X144892024Y-103268241D01*
X144890678Y-103226424D01*
X144889930Y-103169881D01*
X144889606Y-103095994D01*
X144889537Y-103002148D01*
X144889576Y-102926486D01*
X144889831Y-102848577D01*
X144890475Y-102788567D01*
X144891679Y-102743840D01*
X144893616Y-102711777D01*
X144896456Y-102689763D01*
X144900371Y-102675179D01*
X144905534Y-102665410D01*
X144912114Y-102657837D01*
X144941298Y-102638815D01*
X144974429Y-102639655D01*
G37*
X144941012Y-96026581D02*
X145046536Y-96052436D01*
X145146560Y-96098841D01*
X145237934Y-96165803D01*
X145317505Y-96253328D01*
X145382120Y-96361426D01*
X145399443Y-96399506D01*
X145413477Y-96438103D01*
X145421352Y-96476689D01*
X145424803Y-96524415D01*
X145425568Y-96590433D01*
X145425105Y-96645381D01*
X145422319Y-96695880D01*
X145415487Y-96735280D01*
X145402904Y-96772628D01*
X145382864Y-96816973D01*
X145377066Y-96828791D01*
X145308545Y-96937001D01*
X145222365Y-97026033D01*
X145120972Y-97093797D01*
X145006811Y-97138206D01*
X144948234Y-97150598D01*
X144829399Y-97156397D01*
X144714300Y-97137634D01*
X144606312Y-97096232D01*
X144508809Y-97034115D01*
X144425168Y-96953207D01*
X144358763Y-96855432D01*
X144312969Y-96742714D01*
X144296214Y-96650471D01*
X144294705Y-96548677D01*
X144308332Y-96449660D01*
X144336445Y-96363892D01*
X144368930Y-96302573D01*
X144441247Y-96205288D01*
X144526978Y-96128507D01*
X144622973Y-96072238D01*
X144726079Y-96036490D01*
X144833142Y-96021268D01*
X144941012Y-96026581D01*
G36*
X144941012Y-96026581D02*
G01*
X145046536Y-96052436D01*
X145146560Y-96098841D01*
X145237934Y-96165803D01*
X145317505Y-96253328D01*
X145382120Y-96361426D01*
X145399443Y-96399506D01*
X145413477Y-96438103D01*
X145421352Y-96476689D01*
X145424803Y-96524415D01*
X145425568Y-96590433D01*
X145425105Y-96645381D01*
X145422319Y-96695880D01*
X145415487Y-96735280D01*
X145402904Y-96772628D01*
X145382864Y-96816973D01*
X145377066Y-96828791D01*
X145308545Y-96937001D01*
X145222365Y-97026033D01*
X145120972Y-97093797D01*
X145006811Y-97138206D01*
X144948234Y-97150598D01*
X144829399Y-97156397D01*
X144714300Y-97137634D01*
X144606312Y-97096232D01*
X144508809Y-97034115D01*
X144425168Y-96953207D01*
X144358763Y-96855432D01*
X144312969Y-96742714D01*
X144296214Y-96650471D01*
X144294705Y-96548677D01*
X144308332Y-96449660D01*
X144336445Y-96363892D01*
X144368930Y-96302573D01*
X144441247Y-96205288D01*
X144526978Y-96128507D01*
X144622973Y-96072238D01*
X144726079Y-96036490D01*
X144833142Y-96021268D01*
X144941012Y-96026581D01*
G37*
X137144059Y-102635260D02*
X137238182Y-102635350D01*
X137312697Y-102635690D01*
X137370103Y-102636431D01*
X137412903Y-102637727D01*
X137443596Y-102639729D01*
X137464683Y-102642588D01*
X137478665Y-102646458D01*
X137488042Y-102651490D01*
X137495314Y-102657837D01*
X137514120Y-102690554D01*
X137515567Y-102728131D01*
X137499209Y-102761370D01*
X137497849Y-102762823D01*
X137486646Y-102771184D01*
X137469544Y-102776739D01*
X137442374Y-102780032D01*
X137400970Y-102781610D01*
X137341165Y-102782014D01*
X137201803Y-102782014D01*
X137201803Y-103045781D01*
X137201728Y-103121609D01*
X137201320Y-103188275D01*
X137200338Y-103238059D01*
X137198542Y-103273976D01*
X137195691Y-103299042D01*
X137191545Y-103316273D01*
X137185863Y-103328684D01*
X137178406Y-103339292D01*
X137176116Y-103342098D01*
X137144938Y-103364740D01*
X137110558Y-103366304D01*
X137077626Y-103346459D01*
X137070647Y-103338383D01*
X137065175Y-103327785D01*
X137061155Y-103311941D01*
X137058364Y-103287965D01*
X137056580Y-103252966D01*
X137055581Y-103204056D01*
X137055144Y-103138346D01*
X137055048Y-103052948D01*
X137055048Y-102782014D01*
X136909112Y-102782014D01*
X136898012Y-102782013D01*
X136841494Y-102781788D01*
X136802650Y-102780649D01*
X136777257Y-102777849D01*
X136761096Y-102772642D01*
X136749944Y-102764281D01*
X136739581Y-102752018D01*
X136723733Y-102721330D01*
X136726835Y-102687550D01*
X136752479Y-102655014D01*
X136757421Y-102651297D01*
X136767630Y-102646461D01*
X136783056Y-102642698D01*
X136806178Y-102639875D01*
X136839475Y-102637862D01*
X136885429Y-102636525D01*
X136946520Y-102635734D01*
X137025227Y-102635355D01*
X137124032Y-102635259D01*
X137144059Y-102635260D01*
G36*
X137144059Y-102635260D02*
G01*
X137238182Y-102635350D01*
X137312697Y-102635690D01*
X137370103Y-102636431D01*
X137412903Y-102637727D01*
X137443596Y-102639729D01*
X137464683Y-102642588D01*
X137478665Y-102646458D01*
X137488042Y-102651490D01*
X137495314Y-102657837D01*
X137514120Y-102690554D01*
X137515567Y-102728131D01*
X137499209Y-102761370D01*
X137497849Y-102762823D01*
X137486646Y-102771184D01*
X137469544Y-102776739D01*
X137442374Y-102780032D01*
X137400970Y-102781610D01*
X137341165Y-102782014D01*
X137201803Y-102782014D01*
X137201803Y-103045781D01*
X137201728Y-103121609D01*
X137201320Y-103188275D01*
X137200338Y-103238059D01*
X137198542Y-103273976D01*
X137195691Y-103299042D01*
X137191545Y-103316273D01*
X137185863Y-103328684D01*
X137178406Y-103339292D01*
X137176116Y-103342098D01*
X137144938Y-103364740D01*
X137110558Y-103366304D01*
X137077626Y-103346459D01*
X137070647Y-103338383D01*
X137065175Y-103327785D01*
X137061155Y-103311941D01*
X137058364Y-103287965D01*
X137056580Y-103252966D01*
X137055581Y-103204056D01*
X137055144Y-103138346D01*
X137055048Y-103052948D01*
X137055048Y-102782014D01*
X136909112Y-102782014D01*
X136898012Y-102782013D01*
X136841494Y-102781788D01*
X136802650Y-102780649D01*
X136777257Y-102777849D01*
X136761096Y-102772642D01*
X136749944Y-102764281D01*
X136739581Y-102752018D01*
X136723733Y-102721330D01*
X136726835Y-102687550D01*
X136752479Y-102655014D01*
X136757421Y-102651297D01*
X136767630Y-102646461D01*
X136783056Y-102642698D01*
X136806178Y-102639875D01*
X136839475Y-102637862D01*
X136885429Y-102636525D01*
X136946520Y-102635734D01*
X137025227Y-102635355D01*
X137124032Y-102635259D01*
X137144059Y-102635260D01*
G37*
X136468026Y-102657837D02*
X136473658Y-102664027D01*
X136478748Y-102672233D01*
X136482835Y-102684009D01*
X136486013Y-102701468D01*
X136488379Y-102726722D01*
X136490030Y-102761882D01*
X136491061Y-102809061D01*
X136491569Y-102870369D01*
X136491651Y-102947919D01*
X136491401Y-103043823D01*
X136490917Y-103160192D01*
X136490849Y-103174367D01*
X136490263Y-103236129D01*
X136488940Y-103279812D01*
X136486395Y-103309193D01*
X136482140Y-103328047D01*
X136475688Y-103340151D01*
X136466554Y-103349281D01*
X136433096Y-103366698D01*
X136398148Y-103363796D01*
X136367245Y-103339292D01*
X136358236Y-103326089D01*
X136350784Y-103307553D01*
X136346416Y-103281525D01*
X136344361Y-103242979D01*
X136343848Y-103186892D01*
X136343848Y-103064237D01*
X135847137Y-103064237D01*
X135847137Y-103199063D01*
X135847064Y-103234854D01*
X135846301Y-103281184D01*
X135844125Y-103311718D01*
X135839828Y-103330749D01*
X135832704Y-103342566D01*
X135822047Y-103351463D01*
X135789796Y-103366533D01*
X135754509Y-103363865D01*
X135723778Y-103339292D01*
X135719123Y-103333037D01*
X135713187Y-103322513D01*
X135708656Y-103308583D01*
X135705340Y-103288509D01*
X135703051Y-103259552D01*
X135701600Y-103218972D01*
X135700797Y-103164032D01*
X135700454Y-103091991D01*
X135700381Y-103000112D01*
X135700381Y-102690677D01*
X135728090Y-102662968D01*
X135759469Y-102640725D01*
X135792698Y-102638036D01*
X135824559Y-102657837D01*
X135832845Y-102667607D01*
X135840257Y-102683499D01*
X135844594Y-102707467D01*
X135846630Y-102744340D01*
X135847137Y-102798948D01*
X135847137Y-102917481D01*
X136343848Y-102917481D01*
X136343848Y-102801968D01*
X136344286Y-102750270D01*
X136346250Y-102715746D01*
X136350766Y-102693170D01*
X136358859Y-102677318D01*
X136371557Y-102662968D01*
X136402935Y-102640725D01*
X136436164Y-102638036D01*
X136468026Y-102657837D01*
G36*
X136468026Y-102657837D02*
G01*
X136473658Y-102664027D01*
X136478748Y-102672233D01*
X136482835Y-102684009D01*
X136486013Y-102701468D01*
X136488379Y-102726722D01*
X136490030Y-102761882D01*
X136491061Y-102809061D01*
X136491569Y-102870369D01*
X136491651Y-102947919D01*
X136491401Y-103043823D01*
X136490917Y-103160192D01*
X136490849Y-103174367D01*
X136490263Y-103236129D01*
X136488940Y-103279812D01*
X136486395Y-103309193D01*
X136482140Y-103328047D01*
X136475688Y-103340151D01*
X136466554Y-103349281D01*
X136433096Y-103366698D01*
X136398148Y-103363796D01*
X136367245Y-103339292D01*
X136358236Y-103326089D01*
X136350784Y-103307553D01*
X136346416Y-103281525D01*
X136344361Y-103242979D01*
X136343848Y-103186892D01*
X136343848Y-103064237D01*
X135847137Y-103064237D01*
X135847137Y-103199063D01*
X135847064Y-103234854D01*
X135846301Y-103281184D01*
X135844125Y-103311718D01*
X135839828Y-103330749D01*
X135832704Y-103342566D01*
X135822047Y-103351463D01*
X135789796Y-103366533D01*
X135754509Y-103363865D01*
X135723778Y-103339292D01*
X135719123Y-103333037D01*
X135713187Y-103322513D01*
X135708656Y-103308583D01*
X135705340Y-103288509D01*
X135703051Y-103259552D01*
X135701600Y-103218972D01*
X135700797Y-103164032D01*
X135700454Y-103091991D01*
X135700381Y-103000112D01*
X135700381Y-102690677D01*
X135728090Y-102662968D01*
X135759469Y-102640725D01*
X135792698Y-102638036D01*
X135824559Y-102657837D01*
X135832845Y-102667607D01*
X135840257Y-102683499D01*
X135844594Y-102707467D01*
X135846630Y-102744340D01*
X135847137Y-102798948D01*
X135847137Y-102917481D01*
X136343848Y-102917481D01*
X136343848Y-102801968D01*
X136344286Y-102750270D01*
X136346250Y-102715746D01*
X136350766Y-102693170D01*
X136358859Y-102677318D01*
X136371557Y-102662968D01*
X136402935Y-102640725D01*
X136436164Y-102638036D01*
X136468026Y-102657837D01*
G37*
X141173425Y-103246588D02*
X141171455Y-103279367D01*
X141168527Y-103302287D01*
X141164450Y-103318089D01*
X141159035Y-103329511D01*
X141152095Y-103339292D01*
X141128698Y-103369037D01*
X140963006Y-103368443D01*
X140928210Y-103368145D01*
X140829727Y-103364714D01*
X140748765Y-103357031D01*
X140681671Y-103344474D01*
X140624788Y-103326419D01*
X140574461Y-103302244D01*
X140571102Y-103300327D01*
X140513290Y-103263609D01*
X140470936Y-103226643D01*
X140438120Y-103183158D01*
X140408920Y-103126881D01*
X140404638Y-103117265D01*
X140382061Y-103054079D01*
X140376326Y-103008525D01*
X140525571Y-103008525D01*
X140531184Y-103033253D01*
X140536910Y-103049131D01*
X140569840Y-103109039D01*
X140617178Y-103154792D01*
X140680944Y-103187928D01*
X140763153Y-103209982D01*
X140765947Y-103210484D01*
X140812232Y-103216447D01*
X140868628Y-103220675D01*
X140923566Y-103222281D01*
X141017448Y-103222281D01*
X141017448Y-102782014D01*
X140929959Y-102782462D01*
X140863039Y-102784938D01*
X140770641Y-102796190D01*
X140691326Y-102815729D01*
X140629352Y-102842703D01*
X140598412Y-102863432D01*
X140570292Y-102893198D01*
X140546952Y-102935626D01*
X140539825Y-102951592D01*
X140528001Y-102984094D01*
X140525571Y-103008525D01*
X140376326Y-103008525D01*
X140375089Y-102998701D01*
X140383691Y-102943675D01*
X140407833Y-102881543D01*
X140408629Y-102879850D01*
X140449080Y-102810428D01*
X140499765Y-102753830D01*
X140562490Y-102709262D01*
X140639066Y-102675933D01*
X140731301Y-102653053D01*
X140841004Y-102639828D01*
X140969983Y-102635467D01*
X140973555Y-102635462D01*
X141033575Y-102635602D01*
X141075506Y-102636638D01*
X141103620Y-102639232D01*
X141122189Y-102644045D01*
X141135486Y-102651736D01*
X141147783Y-102662968D01*
X141175492Y-102690677D01*
X141175492Y-103000112D01*
X141175467Y-103061718D01*
X141175242Y-103140503D01*
X141174624Y-103201213D01*
X141174067Y-103222281D01*
X141173425Y-103246588D01*
G36*
X141173425Y-103246588D02*
G01*
X141171455Y-103279367D01*
X141168527Y-103302287D01*
X141164450Y-103318089D01*
X141159035Y-103329511D01*
X141152095Y-103339292D01*
X141128698Y-103369037D01*
X140963006Y-103368443D01*
X140928210Y-103368145D01*
X140829727Y-103364714D01*
X140748765Y-103357031D01*
X140681671Y-103344474D01*
X140624788Y-103326419D01*
X140574461Y-103302244D01*
X140571102Y-103300327D01*
X140513290Y-103263609D01*
X140470936Y-103226643D01*
X140438120Y-103183158D01*
X140408920Y-103126881D01*
X140404638Y-103117265D01*
X140382061Y-103054079D01*
X140376326Y-103008525D01*
X140525571Y-103008525D01*
X140531184Y-103033253D01*
X140536910Y-103049131D01*
X140569840Y-103109039D01*
X140617178Y-103154792D01*
X140680944Y-103187928D01*
X140763153Y-103209982D01*
X140765947Y-103210484D01*
X140812232Y-103216447D01*
X140868628Y-103220675D01*
X140923566Y-103222281D01*
X141017448Y-103222281D01*
X141017448Y-102782014D01*
X140929959Y-102782462D01*
X140863039Y-102784938D01*
X140770641Y-102796190D01*
X140691326Y-102815729D01*
X140629352Y-102842703D01*
X140598412Y-102863432D01*
X140570292Y-102893198D01*
X140546952Y-102935626D01*
X140539825Y-102951592D01*
X140528001Y-102984094D01*
X140525571Y-103008525D01*
X140376326Y-103008525D01*
X140375089Y-102998701D01*
X140383691Y-102943675D01*
X140407833Y-102881543D01*
X140408629Y-102879850D01*
X140449080Y-102810428D01*
X140499765Y-102753830D01*
X140562490Y-102709262D01*
X140639066Y-102675933D01*
X140731301Y-102653053D01*
X140841004Y-102639828D01*
X140969983Y-102635467D01*
X140973555Y-102635462D01*
X141033575Y-102635602D01*
X141075506Y-102636638D01*
X141103620Y-102639232D01*
X141122189Y-102644045D01*
X141135486Y-102651736D01*
X141147783Y-102662968D01*
X141175492Y-102690677D01*
X141175492Y-103000112D01*
X141175467Y-103061718D01*
X141175242Y-103140503D01*
X141174624Y-103201213D01*
X141174067Y-103222281D01*
X141173425Y-103246588D01*
G37*
X148265109Y-102820619D02*
X148265162Y-102901233D01*
X148264914Y-103002148D01*
X148264875Y-103077809D01*
X148264620Y-103155718D01*
X148263976Y-103215728D01*
X148262772Y-103260456D01*
X148260835Y-103292518D01*
X148257995Y-103314532D01*
X148254080Y-103329116D01*
X148248918Y-103338886D01*
X148242337Y-103346459D01*
X148235369Y-103352693D01*
X148222371Y-103359993D01*
X148203223Y-103364746D01*
X148173820Y-103367484D01*
X148130054Y-103368737D01*
X148067820Y-103369037D01*
X148018874Y-103368661D01*
X147912014Y-103364233D01*
X147822786Y-103354145D01*
X147747988Y-103337557D01*
X147684417Y-103313627D01*
X147628871Y-103281513D01*
X147578146Y-103240374D01*
X147572158Y-103234522D01*
X147535291Y-103186013D01*
X147504191Y-103125205D01*
X147482709Y-103060961D01*
X147477428Y-103022218D01*
X147624645Y-103022218D01*
X147642927Y-103073153D01*
X147672597Y-103119070D01*
X147719294Y-103161479D01*
X147780684Y-103191282D01*
X147859830Y-103210418D01*
X147861320Y-103210656D01*
X147910291Y-103216448D01*
X147968985Y-103220588D01*
X148025026Y-103222196D01*
X148118159Y-103222281D01*
X148118159Y-102782014D01*
X148041959Y-102782000D01*
X148038931Y-102782009D01*
X147987811Y-102783974D01*
X147927708Y-102788699D01*
X147871000Y-102795227D01*
X147821042Y-102804523D01*
X147746290Y-102830792D01*
X147688781Y-102870091D01*
X147647280Y-102923125D01*
X147626063Y-102974392D01*
X147624645Y-103022218D01*
X147477428Y-103022218D01*
X147474692Y-103002148D01*
X147475971Y-102980931D01*
X147488283Y-102923515D01*
X147510812Y-102863605D01*
X147540042Y-102809555D01*
X147572459Y-102769724D01*
X147592000Y-102752702D01*
X147646712Y-102713514D01*
X147707015Y-102683385D01*
X147776211Y-102661424D01*
X147857603Y-102646742D01*
X147954492Y-102638451D01*
X148070181Y-102635659D01*
X148109663Y-102635258D01*
X148155374Y-102634845D01*
X148191175Y-102636649D01*
X148218266Y-102642931D01*
X148237848Y-102655951D01*
X148251122Y-102677970D01*
X148259290Y-102711247D01*
X148263552Y-102758043D01*
X148264149Y-102782014D01*
X148265109Y-102820619D01*
G36*
X148265109Y-102820619D02*
G01*
X148265162Y-102901233D01*
X148264914Y-103002148D01*
X148264875Y-103077809D01*
X148264620Y-103155718D01*
X148263976Y-103215728D01*
X148262772Y-103260456D01*
X148260835Y-103292518D01*
X148257995Y-103314532D01*
X148254080Y-103329116D01*
X148248918Y-103338886D01*
X148242337Y-103346459D01*
X148235369Y-103352693D01*
X148222371Y-103359993D01*
X148203223Y-103364746D01*
X148173820Y-103367484D01*
X148130054Y-103368737D01*
X148067820Y-103369037D01*
X148018874Y-103368661D01*
X147912014Y-103364233D01*
X147822786Y-103354145D01*
X147747988Y-103337557D01*
X147684417Y-103313627D01*
X147628871Y-103281513D01*
X147578146Y-103240374D01*
X147572158Y-103234522D01*
X147535291Y-103186013D01*
X147504191Y-103125205D01*
X147482709Y-103060961D01*
X147477428Y-103022218D01*
X147624645Y-103022218D01*
X147642927Y-103073153D01*
X147672597Y-103119070D01*
X147719294Y-103161479D01*
X147780684Y-103191282D01*
X147859830Y-103210418D01*
X147861320Y-103210656D01*
X147910291Y-103216448D01*
X147968985Y-103220588D01*
X148025026Y-103222196D01*
X148118159Y-103222281D01*
X148118159Y-102782014D01*
X148041959Y-102782000D01*
X148038931Y-102782009D01*
X147987811Y-102783974D01*
X147927708Y-102788699D01*
X147871000Y-102795227D01*
X147821042Y-102804523D01*
X147746290Y-102830792D01*
X147688781Y-102870091D01*
X147647280Y-102923125D01*
X147626063Y-102974392D01*
X147624645Y-103022218D01*
X147477428Y-103022218D01*
X147474692Y-103002148D01*
X147475971Y-102980931D01*
X147488283Y-102923515D01*
X147510812Y-102863605D01*
X147540042Y-102809555D01*
X147572459Y-102769724D01*
X147592000Y-102752702D01*
X147646712Y-102713514D01*
X147707015Y-102683385D01*
X147776211Y-102661424D01*
X147857603Y-102646742D01*
X147954492Y-102638451D01*
X148070181Y-102635659D01*
X148109663Y-102635258D01*
X148155374Y-102634845D01*
X148191175Y-102636649D01*
X148218266Y-102642931D01*
X148237848Y-102655951D01*
X148251122Y-102677970D01*
X148259290Y-102711247D01*
X148263552Y-102758043D01*
X148264149Y-102782014D01*
X148265109Y-102820619D01*
G37*
X143320185Y-102634084D02*
X143331593Y-102640221D01*
X143342142Y-102650883D01*
X143353428Y-102665003D01*
X143357881Y-102670964D01*
X143363880Y-102681460D01*
X143368459Y-102695285D01*
X143371811Y-102715190D01*
X143374125Y-102743924D01*
X143375593Y-102784237D01*
X143376405Y-102838879D01*
X143376752Y-102910599D01*
X143376826Y-103002148D01*
X143376803Y-103060678D01*
X143376584Y-103139765D01*
X143375975Y-103200708D01*
X143374784Y-103246254D01*
X143372821Y-103279155D01*
X143369895Y-103302160D01*
X143365815Y-103318018D01*
X143360389Y-103329478D01*
X143353428Y-103339292D01*
X143323000Y-103363685D01*
X143288057Y-103366564D01*
X143251076Y-103347474D01*
X143246892Y-103343999D01*
X143238716Y-103335471D01*
X143232656Y-103323920D01*
X143228273Y-103306088D01*
X143225131Y-103278716D01*
X143222794Y-103238546D01*
X143220823Y-103182320D01*
X143218781Y-103106781D01*
X143213137Y-102887650D01*
X142947848Y-103128291D01*
X142874014Y-103195067D01*
X142808834Y-103253183D01*
X142756640Y-103298141D01*
X142715565Y-103331063D01*
X142683747Y-103353071D01*
X142659318Y-103365286D01*
X142640416Y-103368831D01*
X142625175Y-103364828D01*
X142611731Y-103354399D01*
X142598219Y-103338666D01*
X142591974Y-103330183D01*
X142586342Y-103319605D01*
X142582131Y-103305447D01*
X142579179Y-103284995D01*
X142577324Y-103255534D01*
X142576405Y-103214353D01*
X142576260Y-103158736D01*
X142576727Y-103085971D01*
X142577644Y-102993343D01*
X142580959Y-102678391D01*
X142607610Y-102656825D01*
X142633675Y-102640633D01*
X142666533Y-102637862D01*
X142701064Y-102656815D01*
X142705376Y-102660400D01*
X142713508Y-102668929D01*
X142719537Y-102680521D01*
X142723898Y-102698427D01*
X142727026Y-102725898D01*
X142729355Y-102766186D01*
X142731321Y-102822543D01*
X142733359Y-102898221D01*
X142739003Y-103118070D01*
X142919626Y-102954276D01*
X143006364Y-102875643D01*
X143082135Y-102807250D01*
X143144272Y-102751900D01*
X143194370Y-102708530D01*
X143234027Y-102676073D01*
X143264840Y-102653465D01*
X143288406Y-102639640D01*
X143306322Y-102633535D01*
X143320185Y-102634084D01*
G36*
X143320185Y-102634084D02*
G01*
X143331593Y-102640221D01*
X143342142Y-102650883D01*
X143353428Y-102665003D01*
X143357881Y-102670964D01*
X143363880Y-102681460D01*
X143368459Y-102695285D01*
X143371811Y-102715190D01*
X143374125Y-102743924D01*
X143375593Y-102784237D01*
X143376405Y-102838879D01*
X143376752Y-102910599D01*
X143376826Y-103002148D01*
X143376803Y-103060678D01*
X143376584Y-103139765D01*
X143375975Y-103200708D01*
X143374784Y-103246254D01*
X143372821Y-103279155D01*
X143369895Y-103302160D01*
X143365815Y-103318018D01*
X143360389Y-103329478D01*
X143353428Y-103339292D01*
X143323000Y-103363685D01*
X143288057Y-103366564D01*
X143251076Y-103347474D01*
X143246892Y-103343999D01*
X143238716Y-103335471D01*
X143232656Y-103323920D01*
X143228273Y-103306088D01*
X143225131Y-103278716D01*
X143222794Y-103238546D01*
X143220823Y-103182320D01*
X143218781Y-103106781D01*
X143213137Y-102887650D01*
X142947848Y-103128291D01*
X142874014Y-103195067D01*
X142808834Y-103253183D01*
X142756640Y-103298141D01*
X142715565Y-103331063D01*
X142683747Y-103353071D01*
X142659318Y-103365286D01*
X142640416Y-103368831D01*
X142625175Y-103364828D01*
X142611731Y-103354399D01*
X142598219Y-103338666D01*
X142591974Y-103330183D01*
X142586342Y-103319605D01*
X142582131Y-103305447D01*
X142579179Y-103284995D01*
X142577324Y-103255534D01*
X142576405Y-103214353D01*
X142576260Y-103158736D01*
X142576727Y-103085971D01*
X142577644Y-102993343D01*
X142580959Y-102678391D01*
X142607610Y-102656825D01*
X142633675Y-102640633D01*
X142666533Y-102637862D01*
X142701064Y-102656815D01*
X142705376Y-102660400D01*
X142713508Y-102668929D01*
X142719537Y-102680521D01*
X142723898Y-102698427D01*
X142727026Y-102725898D01*
X142729355Y-102766186D01*
X142731321Y-102822543D01*
X142733359Y-102898221D01*
X142739003Y-103118070D01*
X142919626Y-102954276D01*
X143006364Y-102875643D01*
X143082135Y-102807250D01*
X143144272Y-102751900D01*
X143194370Y-102708530D01*
X143234027Y-102676073D01*
X143264840Y-102653465D01*
X143288406Y-102639640D01*
X143306322Y-102633535D01*
X143320185Y-102634084D01*
G37*
X144117442Y-102640371D02*
X144223449Y-102656686D01*
X144317261Y-102684737D01*
X144396057Y-102723644D01*
X144457011Y-102772526D01*
X144483081Y-102805387D01*
X144512589Y-102854586D01*
X144537860Y-102908444D01*
X144555510Y-102959611D01*
X144562150Y-103000736D01*
X144560590Y-103020451D01*
X144547649Y-103071784D01*
X144524486Y-103128310D01*
X144494594Y-103182227D01*
X144461465Y-103225731D01*
X144451269Y-103236079D01*
X144384184Y-103287854D01*
X144304058Y-103327746D01*
X144217848Y-103352148D01*
X144162884Y-103360260D01*
X144069431Y-103366865D01*
X143979650Y-103364778D01*
X143897161Y-103354532D01*
X143825578Y-103336662D01*
X143768520Y-103311700D01*
X143729603Y-103280180D01*
X143728228Y-103278204D01*
X143721140Y-103252978D01*
X143716901Y-103205727D01*
X143715492Y-103136263D01*
X143716352Y-103074030D01*
X143721072Y-103026648D01*
X143732762Y-102994545D01*
X143754531Y-102974992D01*
X143789490Y-102965262D01*
X143840748Y-102962625D01*
X143911415Y-102964353D01*
X143960035Y-102967365D01*
X144010231Y-102975558D01*
X144042725Y-102989611D01*
X144060184Y-103010846D01*
X144065275Y-103040586D01*
X144065169Y-103045128D01*
X144056467Y-103079922D01*
X144032457Y-103103339D01*
X143991192Y-103116539D01*
X143930723Y-103120681D01*
X143862248Y-103120681D01*
X143862248Y-103159033D01*
X143862298Y-103168168D01*
X143864519Y-103185419D01*
X143873786Y-103195713D01*
X143895167Y-103202651D01*
X143933728Y-103209833D01*
X143939202Y-103210767D01*
X144036152Y-103220670D01*
X144126144Y-103217751D01*
X144207052Y-103203021D01*
X144276751Y-103177491D01*
X144333116Y-103142170D01*
X144374021Y-103098071D01*
X144397343Y-103046204D01*
X144400955Y-102987580D01*
X144395437Y-102958686D01*
X144368753Y-102902796D01*
X144322565Y-102857137D01*
X144257583Y-102822300D01*
X144174521Y-102798882D01*
X144149847Y-102794433D01*
X144060518Y-102783934D01*
X143980711Y-102785163D01*
X143902618Y-102798098D01*
X143867475Y-102804888D01*
X143822037Y-102805905D01*
X143790722Y-102793374D01*
X143770569Y-102766587D01*
X143764185Y-102738340D01*
X143773671Y-102707116D01*
X143783000Y-102693691D01*
X143817235Y-102670159D01*
X143869857Y-102652287D01*
X143938373Y-102640791D01*
X144020292Y-102636384D01*
X144117442Y-102640371D01*
G36*
X144117442Y-102640371D02*
G01*
X144223449Y-102656686D01*
X144317261Y-102684737D01*
X144396057Y-102723644D01*
X144457011Y-102772526D01*
X144483081Y-102805387D01*
X144512589Y-102854586D01*
X144537860Y-102908444D01*
X144555510Y-102959611D01*
X144562150Y-103000736D01*
X144560590Y-103020451D01*
X144547649Y-103071784D01*
X144524486Y-103128310D01*
X144494594Y-103182227D01*
X144461465Y-103225731D01*
X144451269Y-103236079D01*
X144384184Y-103287854D01*
X144304058Y-103327746D01*
X144217848Y-103352148D01*
X144162884Y-103360260D01*
X144069431Y-103366865D01*
X143979650Y-103364778D01*
X143897161Y-103354532D01*
X143825578Y-103336662D01*
X143768520Y-103311700D01*
X143729603Y-103280180D01*
X143728228Y-103278204D01*
X143721140Y-103252978D01*
X143716901Y-103205727D01*
X143715492Y-103136263D01*
X143716352Y-103074030D01*
X143721072Y-103026648D01*
X143732762Y-102994545D01*
X143754531Y-102974992D01*
X143789490Y-102965262D01*
X143840748Y-102962625D01*
X143911415Y-102964353D01*
X143960035Y-102967365D01*
X144010231Y-102975558D01*
X144042725Y-102989611D01*
X144060184Y-103010846D01*
X144065275Y-103040586D01*
X144065169Y-103045128D01*
X144056467Y-103079922D01*
X144032457Y-103103339D01*
X143991192Y-103116539D01*
X143930723Y-103120681D01*
X143862248Y-103120681D01*
X143862248Y-103159033D01*
X143862298Y-103168168D01*
X143864519Y-103185419D01*
X143873786Y-103195713D01*
X143895167Y-103202651D01*
X143933728Y-103209833D01*
X143939202Y-103210767D01*
X144036152Y-103220670D01*
X144126144Y-103217751D01*
X144207052Y-103203021D01*
X144276751Y-103177491D01*
X144333116Y-103142170D01*
X144374021Y-103098071D01*
X144397343Y-103046204D01*
X144400955Y-102987580D01*
X144395437Y-102958686D01*
X144368753Y-102902796D01*
X144322565Y-102857137D01*
X144257583Y-102822300D01*
X144174521Y-102798882D01*
X144149847Y-102794433D01*
X144060518Y-102783934D01*
X143980711Y-102785163D01*
X143902618Y-102798098D01*
X143867475Y-102804888D01*
X143822037Y-102805905D01*
X143790722Y-102793374D01*
X143770569Y-102766587D01*
X143764185Y-102738340D01*
X143773671Y-102707116D01*
X143783000Y-102693691D01*
X143817235Y-102670159D01*
X143869857Y-102652287D01*
X143938373Y-102640791D01*
X144020292Y-102636384D01*
X144117442Y-102640371D01*
G37*
X142168095Y-102665003D02*
X142173044Y-102671687D01*
X142178888Y-102682258D01*
X142183349Y-102696345D01*
X142186613Y-102716670D01*
X142188866Y-102745957D01*
X142190294Y-102786929D01*
X142191084Y-102842309D01*
X142191421Y-102914820D01*
X142191492Y-103007186D01*
X142191463Y-103073103D01*
X142191231Y-103151420D01*
X142190611Y-103211688D01*
X142189418Y-103256585D01*
X142187471Y-103288794D01*
X142184586Y-103310992D01*
X142180580Y-103325861D01*
X142175271Y-103336081D01*
X142168475Y-103344330D01*
X142163960Y-103348987D01*
X142155730Y-103355474D01*
X142144370Y-103360386D01*
X142127102Y-103363941D01*
X142101147Y-103366359D01*
X142063728Y-103367859D01*
X142012065Y-103368659D01*
X141943381Y-103368979D01*
X141854898Y-103369037D01*
X141835223Y-103369030D01*
X141748198Y-103368764D01*
X141680546Y-103367998D01*
X141629591Y-103366584D01*
X141592659Y-103364372D01*
X141567075Y-103361214D01*
X141550163Y-103356961D01*
X141539249Y-103351463D01*
X141528756Y-103341477D01*
X141515495Y-103310360D01*
X141516678Y-103274472D01*
X141532842Y-103242925D01*
X141535031Y-103240649D01*
X141543719Y-103234381D01*
X141557061Y-103229715D01*
X141578044Y-103226419D01*
X141609655Y-103224260D01*
X141654882Y-103223006D01*
X141716712Y-103222423D01*
X141798131Y-103222281D01*
X142044737Y-103222281D01*
X142044737Y-103064237D01*
X141882298Y-103064237D01*
X141846630Y-103064156D01*
X141790860Y-103063359D01*
X141751722Y-103061354D01*
X141725268Y-103057713D01*
X141707551Y-103052004D01*
X141694621Y-103043799D01*
X141690978Y-103040615D01*
X141672570Y-103009640D01*
X141671936Y-102973304D01*
X141689475Y-102939685D01*
X141689537Y-102939616D01*
X141699208Y-102930990D01*
X141712501Y-102924934D01*
X141733209Y-102921003D01*
X141765120Y-102918748D01*
X141812026Y-102917723D01*
X141877716Y-102917481D01*
X142045863Y-102917481D01*
X142042478Y-102852570D01*
X142039092Y-102787659D01*
X141797015Y-102784606D01*
X141771999Y-102784278D01*
X141690379Y-102782798D01*
X141628060Y-102780414D01*
X141582446Y-102776419D01*
X141550944Y-102770105D01*
X141530959Y-102760766D01*
X141519896Y-102747695D01*
X141515161Y-102730184D01*
X141514159Y-102707527D01*
X141514165Y-102705162D01*
X141515319Y-102685131D01*
X141520116Y-102669338D01*
X141530924Y-102657282D01*
X141550109Y-102648459D01*
X141580037Y-102642367D01*
X141623075Y-102638503D01*
X141681591Y-102636366D01*
X141757949Y-102635452D01*
X141854518Y-102635259D01*
X142144698Y-102635259D01*
X142168095Y-102665003D01*
G36*
X142168095Y-102665003D02*
G01*
X142173044Y-102671687D01*
X142178888Y-102682258D01*
X142183349Y-102696345D01*
X142186613Y-102716670D01*
X142188866Y-102745957D01*
X142190294Y-102786929D01*
X142191084Y-102842309D01*
X142191421Y-102914820D01*
X142191492Y-103007186D01*
X142191463Y-103073103D01*
X142191231Y-103151420D01*
X142190611Y-103211688D01*
X142189418Y-103256585D01*
X142187471Y-103288794D01*
X142184586Y-103310992D01*
X142180580Y-103325861D01*
X142175271Y-103336081D01*
X142168475Y-103344330D01*
X142163960Y-103348987D01*
X142155730Y-103355474D01*
X142144370Y-103360386D01*
X142127102Y-103363941D01*
X142101147Y-103366359D01*
X142063728Y-103367859D01*
X142012065Y-103368659D01*
X141943381Y-103368979D01*
X141854898Y-103369037D01*
X141835223Y-103369030D01*
X141748198Y-103368764D01*
X141680546Y-103367998D01*
X141629591Y-103366584D01*
X141592659Y-103364372D01*
X141567075Y-103361214D01*
X141550163Y-103356961D01*
X141539249Y-103351463D01*
X141528756Y-103341477D01*
X141515495Y-103310360D01*
X141516678Y-103274472D01*
X141532842Y-103242925D01*
X141535031Y-103240649D01*
X141543719Y-103234381D01*
X141557061Y-103229715D01*
X141578044Y-103226419D01*
X141609655Y-103224260D01*
X141654882Y-103223006D01*
X141716712Y-103222423D01*
X141798131Y-103222281D01*
X142044737Y-103222281D01*
X142044737Y-103064237D01*
X141882298Y-103064237D01*
X141846630Y-103064156D01*
X141790860Y-103063359D01*
X141751722Y-103061354D01*
X141725268Y-103057713D01*
X141707551Y-103052004D01*
X141694621Y-103043799D01*
X141690978Y-103040615D01*
X141672570Y-103009640D01*
X141671936Y-102973304D01*
X141689475Y-102939685D01*
X141689537Y-102939616D01*
X141699208Y-102930990D01*
X141712501Y-102924934D01*
X141733209Y-102921003D01*
X141765120Y-102918748D01*
X141812026Y-102917723D01*
X141877716Y-102917481D01*
X142045863Y-102917481D01*
X142042478Y-102852570D01*
X142039092Y-102787659D01*
X141797015Y-102784606D01*
X141771999Y-102784278D01*
X141690379Y-102782798D01*
X141628060Y-102780414D01*
X141582446Y-102776419D01*
X141550944Y-102770105D01*
X141530959Y-102760766D01*
X141519896Y-102747695D01*
X141515161Y-102730184D01*
X141514159Y-102707527D01*
X141514165Y-102705162D01*
X141515319Y-102685131D01*
X141520116Y-102669338D01*
X141530924Y-102657282D01*
X141550109Y-102648459D01*
X141580037Y-102642367D01*
X141623075Y-102638503D01*
X141681591Y-102636366D01*
X141757949Y-102635452D01*
X141854518Y-102635259D01*
X142144698Y-102635259D01*
X142168095Y-102665003D01*
G37*
X146845026Y-102635275D02*
X146922123Y-102635467D01*
X146981069Y-102636052D01*
X147024656Y-102637243D01*
X147055675Y-102639256D01*
X147076917Y-102642304D01*
X147091174Y-102646601D01*
X147101237Y-102652364D01*
X147109898Y-102659804D01*
X147111683Y-102661485D01*
X147118927Y-102669024D01*
X147124569Y-102678042D01*
X147128809Y-102691176D01*
X147131848Y-102711064D01*
X147133886Y-102740343D01*
X147135122Y-102781650D01*
X147135757Y-102837623D01*
X147135992Y-102910899D01*
X147136026Y-103004115D01*
X147135989Y-103076905D01*
X147135740Y-103155081D01*
X147135104Y-103215295D01*
X147133907Y-103260174D01*
X147131976Y-103292344D01*
X147129138Y-103314431D01*
X147125219Y-103329062D01*
X147120047Y-103338862D01*
X147113448Y-103346459D01*
X147110114Y-103349636D01*
X147101592Y-103355746D01*
X147089590Y-103360421D01*
X147071379Y-103363851D01*
X147044232Y-103366228D01*
X147005421Y-103367744D01*
X146952216Y-103368590D01*
X146881890Y-103368957D01*
X146791714Y-103369037D01*
X146749606Y-103369025D01*
X146668459Y-103368843D01*
X146605967Y-103368290D01*
X146559401Y-103367174D01*
X146526033Y-103365305D01*
X146503136Y-103362490D01*
X146487980Y-103358538D01*
X146477838Y-103353258D01*
X146469981Y-103346459D01*
X146455255Y-103324859D01*
X146447403Y-103295659D01*
X146452902Y-103271752D01*
X146469981Y-103244859D01*
X146474960Y-103240251D01*
X146484735Y-103233964D01*
X146498851Y-103229338D01*
X146520346Y-103226122D01*
X146552260Y-103224062D01*
X146597634Y-103222904D01*
X146659505Y-103222394D01*
X146740914Y-103222281D01*
X146989270Y-103222281D01*
X146989270Y-103064237D01*
X146828093Y-103064237D01*
X146792275Y-103064091D01*
X146726651Y-103062368D01*
X146679410Y-103057933D01*
X146647675Y-103049829D01*
X146628569Y-103037098D01*
X146619215Y-103018784D01*
X146616737Y-102993930D01*
X146617534Y-102973674D01*
X146622786Y-102951848D01*
X146635580Y-102936496D01*
X146658920Y-102926501D01*
X146695809Y-102920745D01*
X146749251Y-102918111D01*
X146822250Y-102917481D01*
X146990397Y-102917481D01*
X146987011Y-102852570D01*
X146983626Y-102787659D01*
X146735909Y-102784610D01*
X146673318Y-102783731D01*
X146604857Y-102782287D01*
X146553953Y-102780356D01*
X146517700Y-102777706D01*
X146493193Y-102774102D01*
X146477527Y-102769313D01*
X146467798Y-102763105D01*
X146461783Y-102756702D01*
X146448774Y-102725020D01*
X146452335Y-102689334D01*
X146472110Y-102658276D01*
X146475361Y-102655353D01*
X146484341Y-102649002D01*
X146496445Y-102644149D01*
X146514451Y-102640595D01*
X146541139Y-102638138D01*
X146579289Y-102636577D01*
X146631678Y-102635710D01*
X146701086Y-102635338D01*
X146790293Y-102635259D01*
X146845026Y-102635275D01*
G36*
X146845026Y-102635275D02*
G01*
X146922123Y-102635467D01*
X146981069Y-102636052D01*
X147024656Y-102637243D01*
X147055675Y-102639256D01*
X147076917Y-102642304D01*
X147091174Y-102646601D01*
X147101237Y-102652364D01*
X147109898Y-102659804D01*
X147111683Y-102661485D01*
X147118927Y-102669024D01*
X147124569Y-102678042D01*
X147128809Y-102691176D01*
X147131848Y-102711064D01*
X147133886Y-102740343D01*
X147135122Y-102781650D01*
X147135757Y-102837623D01*
X147135992Y-102910899D01*
X147136026Y-103004115D01*
X147135989Y-103076905D01*
X147135740Y-103155081D01*
X147135104Y-103215295D01*
X147133907Y-103260174D01*
X147131976Y-103292344D01*
X147129138Y-103314431D01*
X147125219Y-103329062D01*
X147120047Y-103338862D01*
X147113448Y-103346459D01*
X147110114Y-103349636D01*
X147101592Y-103355746D01*
X147089590Y-103360421D01*
X147071379Y-103363851D01*
X147044232Y-103366228D01*
X147005421Y-103367744D01*
X146952216Y-103368590D01*
X146881890Y-103368957D01*
X146791714Y-103369037D01*
X146749606Y-103369025D01*
X146668459Y-103368843D01*
X146605967Y-103368290D01*
X146559401Y-103367174D01*
X146526033Y-103365305D01*
X146503136Y-103362490D01*
X146487980Y-103358538D01*
X146477838Y-103353258D01*
X146469981Y-103346459D01*
X146455255Y-103324859D01*
X146447403Y-103295659D01*
X146452902Y-103271752D01*
X146469981Y-103244859D01*
X146474960Y-103240251D01*
X146484735Y-103233964D01*
X146498851Y-103229338D01*
X146520346Y-103226122D01*
X146552260Y-103224062D01*
X146597634Y-103222904D01*
X146659505Y-103222394D01*
X146740914Y-103222281D01*
X146989270Y-103222281D01*
X146989270Y-103064237D01*
X146828093Y-103064237D01*
X146792275Y-103064091D01*
X146726651Y-103062368D01*
X146679410Y-103057933D01*
X146647675Y-103049829D01*
X146628569Y-103037098D01*
X146619215Y-103018784D01*
X146616737Y-102993930D01*
X146617534Y-102973674D01*
X146622786Y-102951848D01*
X146635580Y-102936496D01*
X146658920Y-102926501D01*
X146695809Y-102920745D01*
X146749251Y-102918111D01*
X146822250Y-102917481D01*
X146990397Y-102917481D01*
X146987011Y-102852570D01*
X146983626Y-102787659D01*
X146735909Y-102784610D01*
X146673318Y-102783731D01*
X146604857Y-102782287D01*
X146553953Y-102780356D01*
X146517700Y-102777706D01*
X146493193Y-102774102D01*
X146477527Y-102769313D01*
X146467798Y-102763105D01*
X146461783Y-102756702D01*
X146448774Y-102725020D01*
X146452335Y-102689334D01*
X146472110Y-102658276D01*
X146475361Y-102655353D01*
X146484341Y-102649002D01*
X146496445Y-102644149D01*
X146514451Y-102640595D01*
X146541139Y-102638138D01*
X146579289Y-102636577D01*
X146631678Y-102635710D01*
X146701086Y-102635338D01*
X146790293Y-102635259D01*
X146845026Y-102635275D01*
G37*
X138277994Y-102644670D02*
X138295955Y-102663181D01*
X138316555Y-102694263D01*
X138341387Y-102739948D01*
X138372042Y-102802270D01*
X138410112Y-102883263D01*
X138424746Y-102914646D01*
X138454495Y-102977830D01*
X138480589Y-103032436D01*
X138501584Y-103075482D01*
X138516031Y-103103985D01*
X138522483Y-103114962D01*
X138523842Y-103114381D01*
X138533834Y-103100434D01*
X138551125Y-103070896D01*
X138573722Y-103029279D01*
X138599630Y-102979095D01*
X138615603Y-102947606D01*
X138644553Y-102892253D01*
X138667041Y-102853236D01*
X138685257Y-102827758D01*
X138701388Y-102813023D01*
X138717622Y-102806234D01*
X138736149Y-102804592D01*
X138746652Y-102805067D01*
X138762768Y-102809274D01*
X138778082Y-102820138D01*
X138794680Y-102840411D01*
X138814649Y-102872846D01*
X138840075Y-102920196D01*
X138873044Y-102985214D01*
X138882777Y-103004469D01*
X138907235Y-103051138D01*
X138927470Y-103087301D01*
X138941603Y-103109689D01*
X138947752Y-103115037D01*
X138949119Y-103111765D01*
X138958494Y-103090856D01*
X138975354Y-103053917D01*
X138998271Y-103004066D01*
X139025812Y-102944418D01*
X139056547Y-102878090D01*
X139083262Y-102820869D01*
X139112885Y-102758880D01*
X139135956Y-102713141D01*
X139153935Y-102681100D01*
X139168282Y-102660206D01*
X139180458Y-102647910D01*
X139191924Y-102641658D01*
X139201334Y-102638766D01*
X139226439Y-102638617D01*
X139253582Y-102653960D01*
X139254882Y-102654945D01*
X139276966Y-102677580D01*
X139288015Y-102699805D01*
X139288061Y-102700445D01*
X139283520Y-102718107D01*
X139270656Y-102752673D01*
X139250897Y-102801018D01*
X139225673Y-102860017D01*
X139196411Y-102926547D01*
X139164542Y-102997483D01*
X139131493Y-103069699D01*
X139098693Y-103140072D01*
X139067572Y-103205477D01*
X139039557Y-103262789D01*
X139016078Y-103308884D01*
X138998564Y-103340638D01*
X138988443Y-103354925D01*
X138954035Y-103368294D01*
X138912338Y-103361933D01*
X138906973Y-103357236D01*
X138891144Y-103335085D01*
X138868942Y-103298324D01*
X138842525Y-103250607D01*
X138814052Y-103195585D01*
X138734278Y-103036342D01*
X138661091Y-103182934D01*
X138651395Y-103202224D01*
X138624417Y-103254572D01*
X138600388Y-103299362D01*
X138581624Y-103332346D01*
X138570438Y-103349281D01*
X138569292Y-103350524D01*
X138541171Y-103365811D01*
X138506109Y-103367494D01*
X138475068Y-103354925D01*
X138472642Y-103352076D01*
X138460382Y-103331451D01*
X138440644Y-103293900D01*
X138414740Y-103242072D01*
X138383977Y-103178615D01*
X138349667Y-103106177D01*
X138313117Y-103027408D01*
X138292877Y-102983285D01*
X138256104Y-102902557D01*
X138227647Y-102838879D01*
X138206623Y-102789944D01*
X138192146Y-102753449D01*
X138183331Y-102727087D01*
X138179296Y-102708553D01*
X138179154Y-102695544D01*
X138182022Y-102685753D01*
X138196679Y-102664870D01*
X138223282Y-102644569D01*
X138224037Y-102644227D01*
X138243627Y-102637226D01*
X138261082Y-102636696D01*
X138277994Y-102644670D01*
G36*
X138277994Y-102644670D02*
G01*
X138295955Y-102663181D01*
X138316555Y-102694263D01*
X138341387Y-102739948D01*
X138372042Y-102802270D01*
X138410112Y-102883263D01*
X138424746Y-102914646D01*
X138454495Y-102977830D01*
X138480589Y-103032436D01*
X138501584Y-103075482D01*
X138516031Y-103103985D01*
X138522483Y-103114962D01*
X138523842Y-103114381D01*
X138533834Y-103100434D01*
X138551125Y-103070896D01*
X138573722Y-103029279D01*
X138599630Y-102979095D01*
X138615603Y-102947606D01*
X138644553Y-102892253D01*
X138667041Y-102853236D01*
X138685257Y-102827758D01*
X138701388Y-102813023D01*
X138717622Y-102806234D01*
X138736149Y-102804592D01*
X138746652Y-102805067D01*
X138762768Y-102809274D01*
X138778082Y-102820138D01*
X138794680Y-102840411D01*
X138814649Y-102872846D01*
X138840075Y-102920196D01*
X138873044Y-102985214D01*
X138882777Y-103004469D01*
X138907235Y-103051138D01*
X138927470Y-103087301D01*
X138941603Y-103109689D01*
X138947752Y-103115037D01*
X138949119Y-103111765D01*
X138958494Y-103090856D01*
X138975354Y-103053917D01*
X138998271Y-103004066D01*
X139025812Y-102944418D01*
X139056547Y-102878090D01*
X139083262Y-102820869D01*
X139112885Y-102758880D01*
X139135956Y-102713141D01*
X139153935Y-102681100D01*
X139168282Y-102660206D01*
X139180458Y-102647910D01*
X139191924Y-102641658D01*
X139201334Y-102638766D01*
X139226439Y-102638617D01*
X139253582Y-102653960D01*
X139254882Y-102654945D01*
X139276966Y-102677580D01*
X139288015Y-102699805D01*
X139288061Y-102700445D01*
X139283520Y-102718107D01*
X139270656Y-102752673D01*
X139250897Y-102801018D01*
X139225673Y-102860017D01*
X139196411Y-102926547D01*
X139164542Y-102997483D01*
X139131493Y-103069699D01*
X139098693Y-103140072D01*
X139067572Y-103205477D01*
X139039557Y-103262789D01*
X139016078Y-103308884D01*
X138998564Y-103340638D01*
X138988443Y-103354925D01*
X138954035Y-103368294D01*
X138912338Y-103361933D01*
X138906973Y-103357236D01*
X138891144Y-103335085D01*
X138868942Y-103298324D01*
X138842525Y-103250607D01*
X138814052Y-103195585D01*
X138734278Y-103036342D01*
X138661091Y-103182934D01*
X138651395Y-103202224D01*
X138624417Y-103254572D01*
X138600388Y-103299362D01*
X138581624Y-103332346D01*
X138570438Y-103349281D01*
X138569292Y-103350524D01*
X138541171Y-103365811D01*
X138506109Y-103367494D01*
X138475068Y-103354925D01*
X138472642Y-103352076D01*
X138460382Y-103331451D01*
X138440644Y-103293900D01*
X138414740Y-103242072D01*
X138383977Y-103178615D01*
X138349667Y-103106177D01*
X138313117Y-103027408D01*
X138292877Y-102983285D01*
X138256104Y-102902557D01*
X138227647Y-102838879D01*
X138206623Y-102789944D01*
X138192146Y-102753449D01*
X138183331Y-102727087D01*
X138179296Y-102708553D01*
X138179154Y-102695544D01*
X138182022Y-102685753D01*
X138196679Y-102664870D01*
X138223282Y-102644569D01*
X138224037Y-102644227D01*
X138243627Y-102637226D01*
X138261082Y-102636696D01*
X138277994Y-102644670D01*
G37*
X145829145Y-102636128D02*
X145895392Y-102641558D01*
X145950692Y-102651156D01*
X146001575Y-102666017D01*
X146072887Y-102699150D01*
X146124044Y-102741832D01*
X146154867Y-102793897D01*
X146165181Y-102855175D01*
X146164244Y-102886424D01*
X146158452Y-102911221D01*
X146143645Y-102932891D01*
X146115672Y-102960241D01*
X146107694Y-102967570D01*
X146083984Y-102988473D01*
X146061590Y-103005443D01*
X146037557Y-103019397D01*
X146008929Y-103031248D01*
X145972752Y-103041912D01*
X145926072Y-103052303D01*
X145865933Y-103063338D01*
X145789382Y-103075930D01*
X145693463Y-103090996D01*
X145675100Y-103094030D01*
X145612770Y-103107650D01*
X145567552Y-103123384D01*
X145541268Y-103140455D01*
X145535739Y-103158089D01*
X145538360Y-103162360D01*
X145556292Y-103177425D01*
X145584418Y-103194059D01*
X145597218Y-103200049D01*
X145618516Y-103207242D01*
X145644902Y-103212019D01*
X145680746Y-103214838D01*
X145730420Y-103216156D01*
X145798292Y-103216429D01*
X145816077Y-103216356D01*
X145883698Y-103215245D01*
X145948637Y-103213020D01*
X146004262Y-103209954D01*
X146043943Y-103206319D01*
X146079454Y-103202251D01*
X146108707Y-103201468D01*
X146127607Y-103206068D01*
X146142721Y-103216743D01*
X146146377Y-103220336D01*
X146162719Y-103252110D01*
X146161399Y-103287764D01*
X146142442Y-103318382D01*
X146122072Y-103329988D01*
X146086088Y-103342683D01*
X146043664Y-103352733D01*
X146040214Y-103353332D01*
X145997544Y-103358548D01*
X145940158Y-103362922D01*
X145875141Y-103366010D01*
X145809581Y-103367369D01*
X145793349Y-103367410D01*
X145695036Y-103364933D01*
X145614984Y-103356927D01*
X145549805Y-103342395D01*
X145496109Y-103320341D01*
X145450508Y-103289768D01*
X145409615Y-103249678D01*
X145389494Y-103223451D01*
X145377868Y-103193904D01*
X145374959Y-103154187D01*
X145375100Y-103142218D01*
X145378973Y-103109537D01*
X145391357Y-103083011D01*
X145416522Y-103052163D01*
X145437734Y-103030023D01*
X145464130Y-103007477D01*
X145493847Y-102989109D01*
X145530077Y-102973853D01*
X145576009Y-102960641D01*
X145634836Y-102948406D01*
X145709748Y-102936081D01*
X145803937Y-102922598D01*
X145849249Y-102915588D01*
X145917203Y-102901029D01*
X145966339Y-102884529D01*
X145995906Y-102866631D01*
X146005156Y-102847877D01*
X145993340Y-102828807D01*
X145959708Y-102809963D01*
X145956662Y-102808749D01*
X145910303Y-102796671D01*
X145847653Y-102788471D01*
X145774219Y-102784311D01*
X145695509Y-102784353D01*
X145617031Y-102788761D01*
X145544292Y-102797697D01*
X145540365Y-102798346D01*
X145491549Y-102806053D01*
X145459297Y-102809665D01*
X145438300Y-102809068D01*
X145423246Y-102804146D01*
X145408826Y-102794788D01*
X145407656Y-102793917D01*
X145383139Y-102763543D01*
X145378346Y-102728042D01*
X145394152Y-102693461D01*
X145398698Y-102689005D01*
X145428312Y-102673865D01*
X145475294Y-102660742D01*
X145535598Y-102649942D01*
X145605180Y-102641773D01*
X145679995Y-102636543D01*
X145755998Y-102634559D01*
X145829145Y-102636128D01*
G36*
X145829145Y-102636128D02*
G01*
X145895392Y-102641558D01*
X145950692Y-102651156D01*
X146001575Y-102666017D01*
X146072887Y-102699150D01*
X146124044Y-102741832D01*
X146154867Y-102793897D01*
X146165181Y-102855175D01*
X146164244Y-102886424D01*
X146158452Y-102911221D01*
X146143645Y-102932891D01*
X146115672Y-102960241D01*
X146107694Y-102967570D01*
X146083984Y-102988473D01*
X146061590Y-103005443D01*
X146037557Y-103019397D01*
X146008929Y-103031248D01*
X145972752Y-103041912D01*
X145926072Y-103052303D01*
X145865933Y-103063338D01*
X145789382Y-103075930D01*
X145693463Y-103090996D01*
X145675100Y-103094030D01*
X145612770Y-103107650D01*
X145567552Y-103123384D01*
X145541268Y-103140455D01*
X145535739Y-103158089D01*
X145538360Y-103162360D01*
X145556292Y-103177425D01*
X145584418Y-103194059D01*
X145597218Y-103200049D01*
X145618516Y-103207242D01*
X145644902Y-103212019D01*
X145680746Y-103214838D01*
X145730420Y-103216156D01*
X145798292Y-103216429D01*
X145816077Y-103216356D01*
X145883698Y-103215245D01*
X145948637Y-103213020D01*
X146004262Y-103209954D01*
X146043943Y-103206319D01*
X146079454Y-103202251D01*
X146108707Y-103201468D01*
X146127607Y-103206068D01*
X146142721Y-103216743D01*
X146146377Y-103220336D01*
X146162719Y-103252110D01*
X146161399Y-103287764D01*
X146142442Y-103318382D01*
X146122072Y-103329988D01*
X146086088Y-103342683D01*
X146043664Y-103352733D01*
X146040214Y-103353332D01*
X145997544Y-103358548D01*
X145940158Y-103362922D01*
X145875141Y-103366010D01*
X145809581Y-103367369D01*
X145793349Y-103367410D01*
X145695036Y-103364933D01*
X145614984Y-103356927D01*
X145549805Y-103342395D01*
X145496109Y-103320341D01*
X145450508Y-103289768D01*
X145409615Y-103249678D01*
X145389494Y-103223451D01*
X145377868Y-103193904D01*
X145374959Y-103154187D01*
X145375100Y-103142218D01*
X145378973Y-103109537D01*
X145391357Y-103083011D01*
X145416522Y-103052163D01*
X145437734Y-103030023D01*
X145464130Y-103007477D01*
X145493847Y-102989109D01*
X145530077Y-102973853D01*
X145576009Y-102960641D01*
X145634836Y-102948406D01*
X145709748Y-102936081D01*
X145803937Y-102922598D01*
X145849249Y-102915588D01*
X145917203Y-102901029D01*
X145966339Y-102884529D01*
X145995906Y-102866631D01*
X146005156Y-102847877D01*
X145993340Y-102828807D01*
X145959708Y-102809963D01*
X145956662Y-102808749D01*
X145910303Y-102796671D01*
X145847653Y-102788471D01*
X145774219Y-102784311D01*
X145695509Y-102784353D01*
X145617031Y-102788761D01*
X145544292Y-102797697D01*
X145540365Y-102798346D01*
X145491549Y-102806053D01*
X145459297Y-102809665D01*
X145438300Y-102809068D01*
X145423246Y-102804146D01*
X145408826Y-102794788D01*
X145407656Y-102793917D01*
X145383139Y-102763543D01*
X145378346Y-102728042D01*
X145394152Y-102693461D01*
X145398698Y-102689005D01*
X145428312Y-102673865D01*
X145475294Y-102660742D01*
X145535598Y-102649942D01*
X145605180Y-102641773D01*
X145679995Y-102636543D01*
X145755998Y-102634559D01*
X145829145Y-102636128D01*
G37*
X141828847Y-97158078D02*
X142013348Y-97175015D01*
X142184749Y-97209174D01*
X142349427Y-97261991D01*
X142513756Y-97334905D01*
X142676424Y-97428001D01*
X142850999Y-97554914D01*
X143012888Y-97701650D01*
X143158528Y-97864576D01*
X143284352Y-98040059D01*
X143386797Y-98224468D01*
X143396096Y-98244196D01*
X143473973Y-98434613D01*
X143533148Y-98632477D01*
X143574387Y-98841570D01*
X143598452Y-99065670D01*
X143606111Y-99308559D01*
X143596799Y-99559643D01*
X143567244Y-99806912D01*
X143516987Y-100038383D01*
X143445577Y-100255699D01*
X143352566Y-100460502D01*
X143237504Y-100654433D01*
X143129422Y-100802594D01*
X142980184Y-100969300D01*
X142817521Y-101112089D01*
X142641505Y-101230914D01*
X142452207Y-101325729D01*
X142249697Y-101396487D01*
X142034048Y-101443142D01*
X142031587Y-101443505D01*
X141990058Y-101447149D01*
X141927388Y-101449852D01*
X141849373Y-101451487D01*
X141761808Y-101451930D01*
X141670487Y-101451052D01*
X141606484Y-101449767D01*
X141511523Y-101446790D01*
X141435428Y-101442528D01*
X141372712Y-101436526D01*
X141317885Y-101428329D01*
X141265460Y-101417482D01*
X141206477Y-101403465D01*
X141144940Y-101387503D01*
X141089286Y-101370758D01*
X141034463Y-101351268D01*
X140975422Y-101327073D01*
X140907111Y-101296210D01*
X140824478Y-101256719D01*
X140722473Y-101206639D01*
X140440352Y-101067215D01*
X140666313Y-100696067D01*
X140695896Y-100647490D01*
X140749043Y-100560289D01*
X140796614Y-100482331D01*
X140836868Y-100416458D01*
X140868068Y-100365516D01*
X140888476Y-100332347D01*
X140896352Y-100319795D01*
X140898542Y-100320170D01*
X140916188Y-100332454D01*
X140947189Y-100357947D01*
X140986647Y-100392694D01*
X141056920Y-100452729D01*
X141182371Y-100541506D01*
X141304089Y-100603394D01*
X141392045Y-100634300D01*
X141540817Y-100665885D01*
X141686989Y-100671484D01*
X141828443Y-100651477D01*
X141963058Y-100606246D01*
X142088714Y-100536173D01*
X142203293Y-100441639D01*
X142267049Y-100372011D01*
X142356867Y-100243224D01*
X142430567Y-100093773D01*
X142488501Y-99922892D01*
X142531021Y-99729817D01*
X142532951Y-99717831D01*
X142541863Y-99640143D01*
X142548497Y-99543617D01*
X142552800Y-99434849D01*
X142554719Y-99320434D01*
X142554198Y-99206968D01*
X142551185Y-99101046D01*
X142545626Y-99009263D01*
X142537467Y-98938217D01*
X142506194Y-98777280D01*
X142453574Y-98589286D01*
X142387395Y-98424700D01*
X142307747Y-98283649D01*
X142214717Y-98166260D01*
X142108394Y-98072663D01*
X141988867Y-98002982D01*
X141856224Y-97957347D01*
X141826795Y-97951683D01*
X141753044Y-97944288D01*
X141666856Y-97941874D01*
X141577884Y-97944308D01*
X141495786Y-97951460D01*
X141430217Y-97963195D01*
X141320986Y-98000561D01*
X141194227Y-98068778D01*
X141081358Y-98158550D01*
X141061437Y-98177461D01*
X141025340Y-98210918D01*
X140999829Y-98233438D01*
X140989464Y-98240928D01*
X140986913Y-98237346D01*
X140971206Y-98214723D01*
X140942832Y-98173647D01*
X140903664Y-98116836D01*
X140855578Y-98047012D01*
X140800448Y-97966893D01*
X140740149Y-97879201D01*
X140493514Y-97520402D01*
X140548611Y-97503895D01*
X140554360Y-97502024D01*
X140591785Y-97487166D01*
X140645744Y-97463208D01*
X140709902Y-97433031D01*
X140777929Y-97399517D01*
X140807572Y-97384700D01*
X140972176Y-97308201D01*
X141123890Y-97249045D01*
X141268548Y-97205718D01*
X141411986Y-97176707D01*
X141560038Y-97160499D01*
X141718541Y-97155580D01*
X141828847Y-97158078D01*
G36*
X141828847Y-97158078D02*
G01*
X142013348Y-97175015D01*
X142184749Y-97209174D01*
X142349427Y-97261991D01*
X142513756Y-97334905D01*
X142676424Y-97428001D01*
X142850999Y-97554914D01*
X143012888Y-97701650D01*
X143158528Y-97864576D01*
X143284352Y-98040059D01*
X143386797Y-98224468D01*
X143396096Y-98244196D01*
X143473973Y-98434613D01*
X143533148Y-98632477D01*
X143574387Y-98841570D01*
X143598452Y-99065670D01*
X143606111Y-99308559D01*
X143596799Y-99559643D01*
X143567244Y-99806912D01*
X143516987Y-100038383D01*
X143445577Y-100255699D01*
X143352566Y-100460502D01*
X143237504Y-100654433D01*
X143129422Y-100802594D01*
X142980184Y-100969300D01*
X142817521Y-101112089D01*
X142641505Y-101230914D01*
X142452207Y-101325729D01*
X142249697Y-101396487D01*
X142034048Y-101443142D01*
X142031587Y-101443505D01*
X141990058Y-101447149D01*
X141927388Y-101449852D01*
X141849373Y-101451487D01*
X141761808Y-101451930D01*
X141670487Y-101451052D01*
X141606484Y-101449767D01*
X141511523Y-101446790D01*
X141435428Y-101442528D01*
X141372712Y-101436526D01*
X141317885Y-101428329D01*
X141265460Y-101417482D01*
X141206477Y-101403465D01*
X141144940Y-101387503D01*
X141089286Y-101370758D01*
X141034463Y-101351268D01*
X140975422Y-101327073D01*
X140907111Y-101296210D01*
X140824478Y-101256719D01*
X140722473Y-101206639D01*
X140440352Y-101067215D01*
X140666313Y-100696067D01*
X140695896Y-100647490D01*
X140749043Y-100560289D01*
X140796614Y-100482331D01*
X140836868Y-100416458D01*
X140868068Y-100365516D01*
X140888476Y-100332347D01*
X140896352Y-100319795D01*
X140898542Y-100320170D01*
X140916188Y-100332454D01*
X140947189Y-100357947D01*
X140986647Y-100392694D01*
X141056920Y-100452729D01*
X141182371Y-100541506D01*
X141304089Y-100603394D01*
X141392045Y-100634300D01*
X141540817Y-100665885D01*
X141686989Y-100671484D01*
X141828443Y-100651477D01*
X141963058Y-100606246D01*
X142088714Y-100536173D01*
X142203293Y-100441639D01*
X142267049Y-100372011D01*
X142356867Y-100243224D01*
X142430567Y-100093773D01*
X142488501Y-99922892D01*
X142531021Y-99729817D01*
X142532951Y-99717831D01*
X142541863Y-99640143D01*
X142548497Y-99543617D01*
X142552800Y-99434849D01*
X142554719Y-99320434D01*
X142554198Y-99206968D01*
X142551185Y-99101046D01*
X142545626Y-99009263D01*
X142537467Y-98938217D01*
X142506194Y-98777280D01*
X142453574Y-98589286D01*
X142387395Y-98424700D01*
X142307747Y-98283649D01*
X142214717Y-98166260D01*
X142108394Y-98072663D01*
X141988867Y-98002982D01*
X141856224Y-97957347D01*
X141826795Y-97951683D01*
X141753044Y-97944288D01*
X141666856Y-97941874D01*
X141577884Y-97944308D01*
X141495786Y-97951460D01*
X141430217Y-97963195D01*
X141320986Y-98000561D01*
X141194227Y-98068778D01*
X141081358Y-98158550D01*
X141061437Y-98177461D01*
X141025340Y-98210918D01*
X140999829Y-98233438D01*
X140989464Y-98240928D01*
X140986913Y-98237346D01*
X140971206Y-98214723D01*
X140942832Y-98173647D01*
X140903664Y-98116836D01*
X140855578Y-98047012D01*
X140800448Y-97966893D01*
X140740149Y-97879201D01*
X140493514Y-97520402D01*
X140548611Y-97503895D01*
X140554360Y-97502024D01*
X140591785Y-97487166D01*
X140645744Y-97463208D01*
X140709902Y-97433031D01*
X140777929Y-97399517D01*
X140807572Y-97384700D01*
X140972176Y-97308201D01*
X141123890Y-97249045D01*
X141268548Y-97205718D01*
X141411986Y-97176707D01*
X141560038Y-97160499D01*
X141718541Y-97155580D01*
X141828847Y-97158078D01*
G37*
X137343755Y-100019001D02*
X137340842Y-100146057D01*
X137332512Y-100258109D01*
X137318120Y-100361252D01*
X137297021Y-100461581D01*
X137268570Y-100565190D01*
X137225428Y-100689033D01*
X137146190Y-100856216D01*
X137048993Y-101005961D01*
X136935325Y-101136852D01*
X136806672Y-101247474D01*
X136664521Y-101336412D01*
X136510359Y-101402250D01*
X136345674Y-101443574D01*
X136343692Y-101443906D01*
X136223337Y-101455486D01*
X136091099Y-101453941D01*
X135956404Y-101440222D01*
X135828684Y-101415283D01*
X135717366Y-101380077D01*
X135669851Y-101358653D01*
X135607969Y-101326090D01*
X135544380Y-101288846D01*
X135485721Y-101251021D01*
X135438626Y-101216714D01*
X135409730Y-101190024D01*
X135403097Y-101182696D01*
X135395189Y-101180135D01*
X135389903Y-101192851D01*
X135386008Y-101224899D01*
X135382271Y-101280331D01*
X135375406Y-101395838D01*
X134849569Y-101399434D01*
X134323732Y-101403031D01*
X134360116Y-101340946D01*
X134362285Y-101337276D01*
X134372865Y-101320044D01*
X134382463Y-101304693D01*
X134391131Y-101289889D01*
X134398920Y-101274299D01*
X134405882Y-101256589D01*
X134412069Y-101235424D01*
X134417531Y-101209473D01*
X134422322Y-101177400D01*
X134426492Y-101137872D01*
X134430094Y-101089557D01*
X134433178Y-101031119D01*
X134435797Y-100961226D01*
X134438002Y-100878544D01*
X134439844Y-100781739D01*
X134441376Y-100669477D01*
X134442649Y-100540425D01*
X134443715Y-100393250D01*
X134444625Y-100226618D01*
X134445431Y-100039194D01*
X134446185Y-99829646D01*
X134446938Y-99596640D01*
X134447742Y-99338842D01*
X134448451Y-99116982D01*
X135444054Y-99116982D01*
X135444054Y-100544205D01*
X135512703Y-100589233D01*
X135539103Y-100605453D01*
X135599552Y-100637857D01*
X135656865Y-100663661D01*
X135681965Y-100672398D01*
X135761831Y-100689841D01*
X135862811Y-100698748D01*
X135914159Y-100700601D01*
X135961823Y-100700179D01*
X135997304Y-100695419D01*
X136029129Y-100685014D01*
X136065823Y-100667659D01*
X136136342Y-100621169D01*
X136197435Y-100555406D01*
X136246337Y-100470658D01*
X136283515Y-100365597D01*
X136309432Y-100238895D01*
X136324556Y-100089222D01*
X136329350Y-99915252D01*
X136329117Y-99875700D01*
X136322225Y-99692444D01*
X136305488Y-99532985D01*
X136278501Y-99395643D01*
X136240855Y-99278734D01*
X136192144Y-99180577D01*
X136131961Y-99099488D01*
X136106993Y-99074740D01*
X136029613Y-99023181D01*
X135938776Y-98991807D01*
X135838419Y-98980795D01*
X135732475Y-98990324D01*
X135624879Y-99020572D01*
X135519568Y-99071718D01*
X135444054Y-99116982D01*
X134448451Y-99116982D01*
X134448649Y-99054919D01*
X134455514Y-96961135D01*
X135001271Y-96957545D01*
X135040959Y-96957304D01*
X135157730Y-96956825D01*
X135264535Y-96956727D01*
X135358458Y-96956992D01*
X135436584Y-96957599D01*
X135495998Y-96958528D01*
X135533784Y-96959759D01*
X135547027Y-96961272D01*
X135545333Y-96966069D01*
X135532694Y-96988810D01*
X135511760Y-97021881D01*
X135509672Y-97025043D01*
X135493442Y-97050577D01*
X135479833Y-97075421D01*
X135468616Y-97102134D01*
X135459559Y-97133274D01*
X135452431Y-97171402D01*
X135447003Y-97219075D01*
X135443043Y-97278853D01*
X135440320Y-97353295D01*
X135438605Y-97444960D01*
X135437665Y-97556408D01*
X135437270Y-97690196D01*
X135437189Y-97848885D01*
X135437333Y-97972781D01*
X135437774Y-98094419D01*
X135438479Y-98204711D01*
X135439417Y-98300973D01*
X135440557Y-98380519D01*
X135441865Y-98440663D01*
X135443310Y-98478718D01*
X135444859Y-98492000D01*
X135449858Y-98489939D01*
X135471831Y-98475422D01*
X135503211Y-98451581D01*
X135548704Y-98419519D01*
X135634178Y-98372279D01*
X135731872Y-98330140D01*
X135832666Y-98297370D01*
X135917352Y-98280660D01*
X136022823Y-98270009D01*
X136136971Y-98266318D01*
X136250989Y-98269594D01*
X136356067Y-98279840D01*
X136443396Y-98297060D01*
X136532317Y-98326068D01*
X136680658Y-98396389D01*
X136818010Y-98489877D01*
X136941841Y-98604377D01*
X137049615Y-98737739D01*
X137138799Y-98887808D01*
X137160940Y-98933826D01*
X137222987Y-99089048D01*
X137271496Y-99257513D01*
X137307080Y-99442192D01*
X137330353Y-99646053D01*
X137341927Y-99872067D01*
X137342465Y-99915252D01*
X137343755Y-100019001D01*
G36*
X137343755Y-100019001D02*
G01*
X137340842Y-100146057D01*
X137332512Y-100258109D01*
X137318120Y-100361252D01*
X137297021Y-100461581D01*
X137268570Y-100565190D01*
X137225428Y-100689033D01*
X137146190Y-100856216D01*
X137048993Y-101005961D01*
X136935325Y-101136852D01*
X136806672Y-101247474D01*
X136664521Y-101336412D01*
X136510359Y-101402250D01*
X136345674Y-101443574D01*
X136343692Y-101443906D01*
X136223337Y-101455486D01*
X136091099Y-101453941D01*
X135956404Y-101440222D01*
X135828684Y-101415283D01*
X135717366Y-101380077D01*
X135669851Y-101358653D01*
X135607969Y-101326090D01*
X135544380Y-101288846D01*
X135485721Y-101251021D01*
X135438626Y-101216714D01*
X135409730Y-101190024D01*
X135403097Y-101182696D01*
X135395189Y-101180135D01*
X135389903Y-101192851D01*
X135386008Y-101224899D01*
X135382271Y-101280331D01*
X135375406Y-101395838D01*
X134849569Y-101399434D01*
X134323732Y-101403031D01*
X134360116Y-101340946D01*
X134362285Y-101337276D01*
X134372865Y-101320044D01*
X134382463Y-101304693D01*
X134391131Y-101289889D01*
X134398920Y-101274299D01*
X134405882Y-101256589D01*
X134412069Y-101235424D01*
X134417531Y-101209473D01*
X134422322Y-101177400D01*
X134426492Y-101137872D01*
X134430094Y-101089557D01*
X134433178Y-101031119D01*
X134435797Y-100961226D01*
X134438002Y-100878544D01*
X134439844Y-100781739D01*
X134441376Y-100669477D01*
X134442649Y-100540425D01*
X134443715Y-100393250D01*
X134444625Y-100226618D01*
X134445431Y-100039194D01*
X134446185Y-99829646D01*
X134446938Y-99596640D01*
X134447742Y-99338842D01*
X134448451Y-99116982D01*
X135444054Y-99116982D01*
X135444054Y-100544205D01*
X135512703Y-100589233D01*
X135539103Y-100605453D01*
X135599552Y-100637857D01*
X135656865Y-100663661D01*
X135681965Y-100672398D01*
X135761831Y-100689841D01*
X135862811Y-100698748D01*
X135914159Y-100700601D01*
X135961823Y-100700179D01*
X135997304Y-100695419D01*
X136029129Y-100685014D01*
X136065823Y-100667659D01*
X136136342Y-100621169D01*
X136197435Y-100555406D01*
X136246337Y-100470658D01*
X136283515Y-100365597D01*
X136309432Y-100238895D01*
X136324556Y-100089222D01*
X136329350Y-99915252D01*
X136329117Y-99875700D01*
X136322225Y-99692444D01*
X136305488Y-99532985D01*
X136278501Y-99395643D01*
X136240855Y-99278734D01*
X136192144Y-99180577D01*
X136131961Y-99099488D01*
X136106993Y-99074740D01*
X136029613Y-99023181D01*
X135938776Y-98991807D01*
X135838419Y-98980795D01*
X135732475Y-98990324D01*
X135624879Y-99020572D01*
X135519568Y-99071718D01*
X135444054Y-99116982D01*
X134448451Y-99116982D01*
X134448649Y-99054919D01*
X134455514Y-96961135D01*
X135001271Y-96957545D01*
X135040959Y-96957304D01*
X135157730Y-96956825D01*
X135264535Y-96956727D01*
X135358458Y-96956992D01*
X135436584Y-96957599D01*
X135495998Y-96958528D01*
X135533784Y-96959759D01*
X135547027Y-96961272D01*
X135545333Y-96966069D01*
X135532694Y-96988810D01*
X135511760Y-97021881D01*
X135509672Y-97025043D01*
X135493442Y-97050577D01*
X135479833Y-97075421D01*
X135468616Y-97102134D01*
X135459559Y-97133274D01*
X135452431Y-97171402D01*
X135447003Y-97219075D01*
X135443043Y-97278853D01*
X135440320Y-97353295D01*
X135438605Y-97444960D01*
X135437665Y-97556408D01*
X135437270Y-97690196D01*
X135437189Y-97848885D01*
X135437333Y-97972781D01*
X135437774Y-98094419D01*
X135438479Y-98204711D01*
X135439417Y-98300973D01*
X135440557Y-98380519D01*
X135441865Y-98440663D01*
X135443310Y-98478718D01*
X135444859Y-98492000D01*
X135449858Y-98489939D01*
X135471831Y-98475422D01*
X135503211Y-98451581D01*
X135548704Y-98419519D01*
X135634178Y-98372279D01*
X135731872Y-98330140D01*
X135832666Y-98297370D01*
X135917352Y-98280660D01*
X136022823Y-98270009D01*
X136136971Y-98266318D01*
X136250989Y-98269594D01*
X136356067Y-98279840D01*
X136443396Y-98297060D01*
X136532317Y-98326068D01*
X136680658Y-98396389D01*
X136818010Y-98489877D01*
X136941841Y-98604377D01*
X137049615Y-98737739D01*
X137138799Y-98887808D01*
X137160940Y-98933826D01*
X137222987Y-99089048D01*
X137271496Y-99257513D01*
X137307080Y-99442192D01*
X137330353Y-99646053D01*
X137341927Y-99872067D01*
X137342465Y-99915252D01*
X137343755Y-100019001D01*
G37*
X140447128Y-100451034D02*
X140440962Y-100561736D01*
X140427635Y-100664739D01*
X140407526Y-100750541D01*
X140375440Y-100838818D01*
X140301063Y-100984299D01*
X140205994Y-101112295D01*
X140091218Y-101221933D01*
X139957719Y-101312342D01*
X139806480Y-101382648D01*
X139638487Y-101431981D01*
X139569983Y-101443108D01*
X139472093Y-101450841D01*
X139365484Y-101452580D01*
X139259065Y-101448465D01*
X139161745Y-101438637D01*
X139082433Y-101423236D01*
X139042579Y-101411110D01*
X138952063Y-101375626D01*
X138860052Y-101330575D01*
X138776038Y-101280843D01*
X138709515Y-101231316D01*
X138708697Y-101230601D01*
X138672243Y-101199692D01*
X138644196Y-101177683D01*
X138630569Y-101169298D01*
X138629079Y-101171300D01*
X138625708Y-101192926D01*
X138623365Y-101233260D01*
X138622487Y-101286000D01*
X138622487Y-101402703D01*
X138107622Y-101402703D01*
X138093916Y-101402701D01*
X137978965Y-101402500D01*
X137873464Y-101401999D01*
X137780414Y-101401237D01*
X137702817Y-101400249D01*
X137643674Y-101399074D01*
X137605986Y-101397749D01*
X137592757Y-101396311D01*
X137593065Y-101395054D01*
X137601720Y-101376501D01*
X137619863Y-101341645D01*
X137644244Y-101296770D01*
X137695730Y-101203622D01*
X137703279Y-100283981D01*
X138677406Y-100283981D01*
X138677789Y-100356640D01*
X138679644Y-100432985D01*
X138683279Y-100488168D01*
X138688958Y-100525782D01*
X138696946Y-100549421D01*
X138707222Y-100566301D01*
X138745918Y-100612317D01*
X138797765Y-100660221D01*
X138854592Y-100702904D01*
X138908225Y-100733253D01*
X138937982Y-100744389D01*
X139006499Y-100759216D01*
X139095988Y-100766796D01*
X139190338Y-100765648D01*
X139279934Y-100750056D01*
X139354718Y-100717846D01*
X139419421Y-100667567D01*
X139437622Y-100648970D01*
X139485011Y-100585546D01*
X139510652Y-100517184D01*
X139518352Y-100434925D01*
X139516266Y-100391467D01*
X139495635Y-100302005D01*
X139452295Y-100225219D01*
X139385457Y-100160243D01*
X139294331Y-100106215D01*
X139178128Y-100062270D01*
X139131281Y-100050738D01*
X139074568Y-100042842D01*
X139003195Y-100038457D01*
X138910811Y-100036982D01*
X138895804Y-100036983D01*
X138826689Y-100037827D01*
X138767320Y-100039866D01*
X138723600Y-100042833D01*
X138701433Y-100046461D01*
X138698882Y-100047639D01*
X138690635Y-100055035D01*
X138684794Y-100069899D01*
X138680955Y-100096227D01*
X138678713Y-100138018D01*
X138677665Y-100199270D01*
X138677406Y-100283981D01*
X137703279Y-100283981D01*
X137703676Y-100235676D01*
X137704857Y-100094695D01*
X137706509Y-99914893D01*
X137708243Y-99758799D01*
X137710200Y-99624205D01*
X137712519Y-99508905D01*
X137715340Y-99410689D01*
X137718804Y-99327352D01*
X137723050Y-99256685D01*
X137728220Y-99196480D01*
X137734452Y-99144531D01*
X137741887Y-99098630D01*
X137750666Y-99056569D01*
X137760927Y-99016141D01*
X137772813Y-98975137D01*
X137786461Y-98931352D01*
X137840230Y-98794085D01*
X137913865Y-98667222D01*
X138005566Y-98558608D01*
X138116175Y-98467674D01*
X138246530Y-98393853D01*
X138397471Y-98336575D01*
X138569837Y-98295273D01*
X138764469Y-98269378D01*
X138832495Y-98264229D01*
X138947062Y-98260464D01*
X139060616Y-98263854D01*
X139178473Y-98274972D01*
X139305950Y-98294388D01*
X139448363Y-98322674D01*
X139611027Y-98360403D01*
X139648627Y-98369532D01*
X139743049Y-98391996D01*
X139832543Y-98412679D01*
X139911681Y-98430361D01*
X139975036Y-98443820D01*
X140017180Y-98451833D01*
X140114414Y-98467803D01*
X139977716Y-98799118D01*
X139943523Y-98881840D01*
X139909885Y-98962896D01*
X139881023Y-99032101D01*
X139858355Y-99086068D01*
X139843297Y-99121412D01*
X139837267Y-99134746D01*
X139836319Y-99134937D01*
X139818844Y-99128984D01*
X139784483Y-99113728D01*
X139739434Y-99091883D01*
X139645802Y-99049343D01*
X139516958Y-99002830D01*
X139385086Y-98967210D01*
X139255344Y-98943378D01*
X139132889Y-98932227D01*
X139022877Y-98934654D01*
X138930465Y-98951552D01*
X138865969Y-98978364D01*
X138792720Y-99033310D01*
X138736333Y-99107852D01*
X138698421Y-99199695D01*
X138680599Y-99306547D01*
X138674323Y-99405027D01*
X139001945Y-99405924D01*
X139112432Y-99406851D01*
X139234638Y-99410141D01*
X139339035Y-99416351D01*
X139431024Y-99426084D01*
X139516004Y-99439943D01*
X139599377Y-99458533D01*
X139686541Y-99482458D01*
X139816960Y-99527996D01*
X139970360Y-99602988D01*
X140104988Y-99694847D01*
X140219516Y-99802280D01*
X140312616Y-99923995D01*
X140382961Y-100058701D01*
X140429223Y-100205105D01*
X140436468Y-100244536D01*
X140445756Y-100342133D01*
X140446926Y-100434925D01*
X140447128Y-100451034D01*
G36*
X140447128Y-100451034D02*
G01*
X140440962Y-100561736D01*
X140427635Y-100664739D01*
X140407526Y-100750541D01*
X140375440Y-100838818D01*
X140301063Y-100984299D01*
X140205994Y-101112295D01*
X140091218Y-101221933D01*
X139957719Y-101312342D01*
X139806480Y-101382648D01*
X139638487Y-101431981D01*
X139569983Y-101443108D01*
X139472093Y-101450841D01*
X139365484Y-101452580D01*
X139259065Y-101448465D01*
X139161745Y-101438637D01*
X139082433Y-101423236D01*
X139042579Y-101411110D01*
X138952063Y-101375626D01*
X138860052Y-101330575D01*
X138776038Y-101280843D01*
X138709515Y-101231316D01*
X138708697Y-101230601D01*
X138672243Y-101199692D01*
X138644196Y-101177683D01*
X138630569Y-101169298D01*
X138629079Y-101171300D01*
X138625708Y-101192926D01*
X138623365Y-101233260D01*
X138622487Y-101286000D01*
X138622487Y-101402703D01*
X138107622Y-101402703D01*
X138093916Y-101402701D01*
X137978965Y-101402500D01*
X137873464Y-101401999D01*
X137780414Y-101401237D01*
X137702817Y-101400249D01*
X137643674Y-101399074D01*
X137605986Y-101397749D01*
X137592757Y-101396311D01*
X137593065Y-101395054D01*
X137601720Y-101376501D01*
X137619863Y-101341645D01*
X137644244Y-101296770D01*
X137695730Y-101203622D01*
X137703279Y-100283981D01*
X138677406Y-100283981D01*
X138677789Y-100356640D01*
X138679644Y-100432985D01*
X138683279Y-100488168D01*
X138688958Y-100525782D01*
X138696946Y-100549421D01*
X138707222Y-100566301D01*
X138745918Y-100612317D01*
X138797765Y-100660221D01*
X138854592Y-100702904D01*
X138908225Y-100733253D01*
X138937982Y-100744389D01*
X139006499Y-100759216D01*
X139095988Y-100766796D01*
X139190338Y-100765648D01*
X139279934Y-100750056D01*
X139354718Y-100717846D01*
X139419421Y-100667567D01*
X139437622Y-100648970D01*
X139485011Y-100585546D01*
X139510652Y-100517184D01*
X139518352Y-100434925D01*
X139516266Y-100391467D01*
X139495635Y-100302005D01*
X139452295Y-100225219D01*
X139385457Y-100160243D01*
X139294331Y-100106215D01*
X139178128Y-100062270D01*
X139131281Y-100050738D01*
X139074568Y-100042842D01*
X139003195Y-100038457D01*
X138910811Y-100036982D01*
X138895804Y-100036983D01*
X138826689Y-100037827D01*
X138767320Y-100039866D01*
X138723600Y-100042833D01*
X138701433Y-100046461D01*
X138698882Y-100047639D01*
X138690635Y-100055035D01*
X138684794Y-100069899D01*
X138680955Y-100096227D01*
X138678713Y-100138018D01*
X138677665Y-100199270D01*
X138677406Y-100283981D01*
X137703279Y-100283981D01*
X137703676Y-100235676D01*
X137704857Y-100094695D01*
X137706509Y-99914893D01*
X137708243Y-99758799D01*
X137710200Y-99624205D01*
X137712519Y-99508905D01*
X137715340Y-99410689D01*
X137718804Y-99327352D01*
X137723050Y-99256685D01*
X137728220Y-99196480D01*
X137734452Y-99144531D01*
X137741887Y-99098630D01*
X137750666Y-99056569D01*
X137760927Y-99016141D01*
X137772813Y-98975137D01*
X137786461Y-98931352D01*
X137840230Y-98794085D01*
X137913865Y-98667222D01*
X138005566Y-98558608D01*
X138116175Y-98467674D01*
X138246530Y-98393853D01*
X138397471Y-98336575D01*
X138569837Y-98295273D01*
X138764469Y-98269378D01*
X138832495Y-98264229D01*
X138947062Y-98260464D01*
X139060616Y-98263854D01*
X139178473Y-98274972D01*
X139305950Y-98294388D01*
X139448363Y-98322674D01*
X139611027Y-98360403D01*
X139648627Y-98369532D01*
X139743049Y-98391996D01*
X139832543Y-98412679D01*
X139911681Y-98430361D01*
X139975036Y-98443820D01*
X140017180Y-98451833D01*
X140114414Y-98467803D01*
X139977716Y-98799118D01*
X139943523Y-98881840D01*
X139909885Y-98962896D01*
X139881023Y-99032101D01*
X139858355Y-99086068D01*
X139843297Y-99121412D01*
X139837267Y-99134746D01*
X139836319Y-99134937D01*
X139818844Y-99128984D01*
X139784483Y-99113728D01*
X139739434Y-99091883D01*
X139645802Y-99049343D01*
X139516958Y-99002830D01*
X139385086Y-98967210D01*
X139255344Y-98943378D01*
X139132889Y-98932227D01*
X139022877Y-98934654D01*
X138930465Y-98951552D01*
X138865969Y-98978364D01*
X138792720Y-99033310D01*
X138736333Y-99107852D01*
X138698421Y-99199695D01*
X138680599Y-99306547D01*
X138674323Y-99405027D01*
X139001945Y-99405924D01*
X139112432Y-99406851D01*
X139234638Y-99410141D01*
X139339035Y-99416351D01*
X139431024Y-99426084D01*
X139516004Y-99439943D01*
X139599377Y-99458533D01*
X139686541Y-99482458D01*
X139816960Y-99527996D01*
X139970360Y-99602988D01*
X140104988Y-99694847D01*
X140219516Y-99802280D01*
X140312616Y-99923995D01*
X140382961Y-100058701D01*
X140429223Y-100205105D01*
X140436468Y-100244536D01*
X140445756Y-100342133D01*
X140446926Y-100434925D01*
X140447128Y-100451034D01*
G37*
X149657945Y-101429840D02*
X149656532Y-101536310D01*
X149654777Y-101628024D01*
X149652646Y-101706117D01*
X149650102Y-101771724D01*
X149647111Y-101825981D01*
X149643635Y-101870023D01*
X149639640Y-101904985D01*
X149635089Y-101932003D01*
X149629947Y-101952212D01*
X149624179Y-101966747D01*
X149617748Y-101976744D01*
X149610619Y-101983338D01*
X149602755Y-101987665D01*
X149594122Y-101990859D01*
X149584684Y-101994056D01*
X149574404Y-101998391D01*
X149568620Y-102000563D01*
X149558010Y-102002936D01*
X149542245Y-102005110D01*
X149520210Y-102007093D01*
X149490790Y-102008896D01*
X149452869Y-102010525D01*
X149405332Y-102011991D01*
X149347064Y-102013301D01*
X149276950Y-102014465D01*
X149193874Y-102015491D01*
X149096721Y-102016388D01*
X148984376Y-102017165D01*
X148855725Y-102017830D01*
X148709650Y-102018392D01*
X148545038Y-102018860D01*
X148360773Y-102019242D01*
X148155740Y-102019548D01*
X147928824Y-102019785D01*
X147678909Y-102019963D01*
X147404881Y-102020091D01*
X147105623Y-102020176D01*
X146780021Y-102020228D01*
X146676839Y-102020238D01*
X146358303Y-102020245D01*
X146065787Y-102020205D01*
X145798188Y-102020110D01*
X145554404Y-102019953D01*
X145333332Y-102019725D01*
X145133872Y-102019419D01*
X144954921Y-102019025D01*
X144795376Y-102018538D01*
X144654136Y-102017947D01*
X144530099Y-102017247D01*
X144422163Y-102016427D01*
X144329226Y-102015481D01*
X144250185Y-102014400D01*
X144183939Y-102013177D01*
X144129385Y-102011803D01*
X144085422Y-102010271D01*
X144050947Y-102008572D01*
X144024859Y-102006698D01*
X144006056Y-102004642D01*
X143993435Y-102002396D01*
X143985894Y-101999950D01*
X143983495Y-101998862D01*
X143973673Y-101995287D01*
X143964666Y-101992676D01*
X143956437Y-101989893D01*
X143948950Y-101985800D01*
X143942168Y-101979260D01*
X143936055Y-101969137D01*
X143930575Y-101954293D01*
X143925690Y-101933591D01*
X143921364Y-101905895D01*
X143917561Y-101870068D01*
X143914244Y-101824973D01*
X143911376Y-101769472D01*
X143908922Y-101702429D01*
X143906844Y-101622707D01*
X143905107Y-101529170D01*
X143903673Y-101420679D01*
X143903202Y-101370440D01*
X144265255Y-101370440D01*
X144265652Y-101375251D01*
X144272935Y-101379150D01*
X144289389Y-101382232D01*
X144317301Y-101384594D01*
X144358957Y-101386330D01*
X144416642Y-101387536D01*
X144492642Y-101388308D01*
X144589244Y-101388741D01*
X144708734Y-101388931D01*
X144853396Y-101388973D01*
X145459373Y-101388973D01*
X145408146Y-101296298D01*
X145356919Y-101203622D01*
X145356919Y-98512595D01*
X145408146Y-98419919D01*
X145459373Y-98327244D01*
X144376211Y-98327244D01*
X144368379Y-101176162D01*
X144329981Y-101258168D01*
X144309736Y-101298815D01*
X144286813Y-101339532D01*
X144269501Y-101364574D01*
X144269458Y-101364622D01*
X144265255Y-101370440D01*
X143903202Y-101370440D01*
X143902506Y-101296098D01*
X143901570Y-101154290D01*
X143900828Y-100994119D01*
X143900243Y-100814447D01*
X143899779Y-100614137D01*
X143899400Y-100392052D01*
X143899069Y-100147056D01*
X143898749Y-99878012D01*
X143898404Y-99583782D01*
X143897998Y-99263230D01*
X143897945Y-99224424D01*
X143897492Y-98905903D01*
X143897059Y-98613572D01*
X143896677Y-98346293D01*
X143896380Y-98102929D01*
X143896198Y-97882342D01*
X143896165Y-97683395D01*
X143896311Y-97504950D01*
X143896670Y-97345871D01*
X143897274Y-97205019D01*
X143898154Y-97081257D01*
X143899342Y-96973447D01*
X143900871Y-96880453D01*
X143902772Y-96801137D01*
X143905078Y-96734360D01*
X143907821Y-96678987D01*
X143911032Y-96633879D01*
X143914745Y-96597899D01*
X143918990Y-96569909D01*
X143923801Y-96548772D01*
X143929208Y-96533351D01*
X143935245Y-96522508D01*
X143941943Y-96515106D01*
X143949335Y-96510007D01*
X143957451Y-96506073D01*
X143966325Y-96502168D01*
X143975989Y-96497154D01*
X143978817Y-96495556D01*
X144021604Y-96480089D01*
X144068443Y-96473732D01*
X144121244Y-96473734D01*
X144122124Y-96593867D01*
X144122347Y-96607692D01*
X144139129Y-96748215D01*
X144181873Y-96880435D01*
X144249983Y-97002952D01*
X144342868Y-97114363D01*
X144392712Y-97159803D01*
X144503695Y-97235120D01*
X144624788Y-97287643D01*
X144752465Y-97317342D01*
X144883197Y-97324190D01*
X145013460Y-97308159D01*
X145139725Y-97269221D01*
X145243522Y-97215135D01*
X145702907Y-97215135D01*
X145763319Y-97258599D01*
X145814410Y-97299448D01*
X145886403Y-97366076D01*
X145968060Y-97449580D01*
X146056290Y-97546778D01*
X146148000Y-97654487D01*
X146171617Y-97683290D01*
X146211827Y-97732692D01*
X146264387Y-97797505D01*
X146327556Y-97875566D01*
X146399592Y-97964711D01*
X146478754Y-98062778D01*
X146563302Y-98167604D01*
X146651493Y-98277024D01*
X146691944Y-98327244D01*
X146741586Y-98388876D01*
X146831840Y-98500997D01*
X146920515Y-98611224D01*
X147005868Y-98717392D01*
X147086158Y-98817340D01*
X147159644Y-98908903D01*
X147224585Y-98989919D01*
X147279240Y-99058224D01*
X147321866Y-99111655D01*
X147350724Y-99148048D01*
X147364071Y-99165242D01*
X147365173Y-99171703D01*
X147361508Y-99183992D01*
X147352013Y-99203325D01*
X147335738Y-99231074D01*
X147311736Y-99268610D01*
X147279060Y-99317304D01*
X147236761Y-99378529D01*
X147183891Y-99453654D01*
X147119503Y-99544052D01*
X147042648Y-99651094D01*
X146952380Y-99776152D01*
X146847749Y-99920596D01*
X146727809Y-100085798D01*
X146632242Y-100217297D01*
X146515648Y-100377605D01*
X146413088Y-100518387D01*
X146323369Y-100641204D01*
X146245300Y-100747619D01*
X146177688Y-100839195D01*
X146119338Y-100917494D01*
X146069060Y-100984079D01*
X146025661Y-101040511D01*
X145987946Y-101088354D01*
X145954725Y-101129169D01*
X145924803Y-101164520D01*
X145896989Y-101195968D01*
X145870090Y-101225076D01*
X145842913Y-101253406D01*
X145814265Y-101282522D01*
X145708692Y-101388973D01*
X147128054Y-101389031D01*
X147123595Y-101303019D01*
X147123379Y-101298697D01*
X147122532Y-101264313D01*
X147124137Y-101231368D01*
X147129266Y-101198058D01*
X147138993Y-101162578D01*
X147154391Y-101123125D01*
X147176534Y-101077893D01*
X147206495Y-101025077D01*
X147245348Y-100962874D01*
X147294166Y-100889477D01*
X147354022Y-100803084D01*
X147425990Y-100701890D01*
X147511143Y-100584088D01*
X147610554Y-100447876D01*
X147725298Y-100291449D01*
X148130325Y-99740041D01*
X148133893Y-100379382D01*
X148134209Y-100439020D01*
X148134767Y-100599657D01*
X148134513Y-100736289D01*
X148133150Y-100851502D01*
X148130377Y-100947883D01*
X148125898Y-101028016D01*
X148119413Y-101094487D01*
X148110623Y-101149883D01*
X148099230Y-101196788D01*
X148084935Y-101237788D01*
X148067440Y-101275469D01*
X148046447Y-101312417D01*
X148021655Y-101351217D01*
X147996734Y-101388973D01*
X149291884Y-101388973D01*
X149258429Y-101344352D01*
X149253190Y-101337293D01*
X149211302Y-101272594D01*
X149182427Y-101207190D01*
X149163466Y-101132248D01*
X149151321Y-101038933D01*
X149150987Y-101034865D01*
X149149225Y-100996375D01*
X149147633Y-100932156D01*
X149146220Y-100843676D01*
X149144992Y-100732403D01*
X149143956Y-100599803D01*
X149143118Y-100447345D01*
X149142486Y-100276496D01*
X149142067Y-100088722D01*
X149141868Y-99885493D01*
X149141895Y-99668274D01*
X149142155Y-99438535D01*
X149142655Y-99197741D01*
X149143185Y-98981748D01*
X149143752Y-98746635D01*
X149144311Y-98536279D01*
X149144930Y-98349206D01*
X149145681Y-98183942D01*
X149146634Y-98039013D01*
X149147858Y-97912947D01*
X149149423Y-97804268D01*
X149151401Y-97711504D01*
X149153860Y-97633180D01*
X149156871Y-97567822D01*
X149160504Y-97513958D01*
X149164829Y-97470113D01*
X149169916Y-97434813D01*
X149175835Y-97406585D01*
X149182657Y-97383955D01*
X149190451Y-97365449D01*
X149199288Y-97349594D01*
X149209237Y-97334915D01*
X149220369Y-97319940D01*
X149232754Y-97303193D01*
X149244732Y-97286412D01*
X149267885Y-97253231D01*
X149281753Y-97232298D01*
X149282088Y-97231421D01*
X149277246Y-97227462D01*
X149260157Y-97224159D01*
X149228921Y-97221461D01*
X149181635Y-97219317D01*
X149116398Y-97217676D01*
X149031310Y-97216489D01*
X148924467Y-97215703D01*
X148793969Y-97215269D01*
X148637914Y-97215135D01*
X147983722Y-97215135D01*
X148018200Y-97256110D01*
X148038182Y-97284253D01*
X148071443Y-97350608D01*
X148100591Y-97433135D01*
X148122838Y-97524679D01*
X148124256Y-97533369D01*
X148128474Y-97579183D01*
X148131669Y-97649989D01*
X148133849Y-97746275D01*
X148135021Y-97868532D01*
X148135195Y-98017251D01*
X148134378Y-98192922D01*
X148130325Y-98779412D01*
X147711568Y-98249859D01*
X147699574Y-98234690D01*
X147593381Y-98100255D01*
X147502721Y-97985124D01*
X147426151Y-97887339D01*
X147362227Y-97804943D01*
X147309507Y-97735978D01*
X147266549Y-97678486D01*
X147231909Y-97630510D01*
X147204145Y-97590093D01*
X147181814Y-97555276D01*
X147163472Y-97524103D01*
X147147678Y-97494615D01*
X147132988Y-97464855D01*
X147110390Y-97412177D01*
X147095791Y-97356606D01*
X147091908Y-97296666D01*
X147092298Y-97215135D01*
X145702907Y-97215135D01*
X145243522Y-97215135D01*
X145258466Y-97207348D01*
X145366157Y-97122511D01*
X145396094Y-97092602D01*
X145484577Y-96981862D01*
X145547364Y-96861684D01*
X145584789Y-96731291D01*
X145597189Y-96589910D01*
X145597189Y-96473730D01*
X147568088Y-96473730D01*
X147691220Y-96473725D01*
X147955743Y-96473689D01*
X148194702Y-96473663D01*
X148409418Y-96473699D01*
X148601213Y-96473849D01*
X148771407Y-96474166D01*
X148921323Y-96474702D01*
X149052282Y-96475508D01*
X149165605Y-96476638D01*
X149262614Y-96478144D01*
X149344629Y-96480077D01*
X149412974Y-96482491D01*
X149468968Y-96485436D01*
X149513933Y-96488966D01*
X149549191Y-96493133D01*
X149576063Y-96497989D01*
X149595871Y-96503586D01*
X149609935Y-96509976D01*
X149619578Y-96517212D01*
X149626121Y-96525346D01*
X149630885Y-96534431D01*
X149635192Y-96544518D01*
X149640363Y-96555659D01*
X149640455Y-96555841D01*
X149642966Y-96563134D01*
X149645268Y-96575347D01*
X149647372Y-96593605D01*
X149649286Y-96619037D01*
X149651018Y-96652769D01*
X149652578Y-96695928D01*
X149653973Y-96749641D01*
X149655213Y-96815035D01*
X149656307Y-96893238D01*
X149657263Y-96985376D01*
X149658090Y-97092576D01*
X149658797Y-97215966D01*
X149659393Y-97356671D01*
X149659885Y-97515820D01*
X149660284Y-97694540D01*
X149660597Y-97893957D01*
X149660833Y-98115198D01*
X149661002Y-98359390D01*
X149661112Y-98627661D01*
X149661172Y-98921137D01*
X149661189Y-99240946D01*
X149661190Y-99303773D01*
X149661220Y-99620249D01*
X149661267Y-99910615D01*
X149661295Y-100176007D01*
X149661267Y-100417560D01*
X149661150Y-100636410D01*
X149660905Y-100833691D01*
X149660498Y-101010539D01*
X149659893Y-101168090D01*
X149659054Y-101307479D01*
X149658315Y-101388973D01*
X149657945Y-101429840D01*
G36*
X149657945Y-101429840D02*
G01*
X149656532Y-101536310D01*
X149654777Y-101628024D01*
X149652646Y-101706117D01*
X149650102Y-101771724D01*
X149647111Y-101825981D01*
X149643635Y-101870023D01*
X149639640Y-101904985D01*
X149635089Y-101932003D01*
X149629947Y-101952212D01*
X149624179Y-101966747D01*
X149617748Y-101976744D01*
X149610619Y-101983338D01*
X149602755Y-101987665D01*
X149594122Y-101990859D01*
X149584684Y-101994056D01*
X149574404Y-101998391D01*
X149568620Y-102000563D01*
X149558010Y-102002936D01*
X149542245Y-102005110D01*
X149520210Y-102007093D01*
X149490790Y-102008896D01*
X149452869Y-102010525D01*
X149405332Y-102011991D01*
X149347064Y-102013301D01*
X149276950Y-102014465D01*
X149193874Y-102015491D01*
X149096721Y-102016388D01*
X148984376Y-102017165D01*
X148855725Y-102017830D01*
X148709650Y-102018392D01*
X148545038Y-102018860D01*
X148360773Y-102019242D01*
X148155740Y-102019548D01*
X147928824Y-102019785D01*
X147678909Y-102019963D01*
X147404881Y-102020091D01*
X147105623Y-102020176D01*
X146780021Y-102020228D01*
X146676839Y-102020238D01*
X146358303Y-102020245D01*
X146065787Y-102020205D01*
X145798188Y-102020110D01*
X145554404Y-102019953D01*
X145333332Y-102019725D01*
X145133872Y-102019419D01*
X144954921Y-102019025D01*
X144795376Y-102018538D01*
X144654136Y-102017947D01*
X144530099Y-102017247D01*
X144422163Y-102016427D01*
X144329226Y-102015481D01*
X144250185Y-102014400D01*
X144183939Y-102013177D01*
X144129385Y-102011803D01*
X144085422Y-102010271D01*
X144050947Y-102008572D01*
X144024859Y-102006698D01*
X144006056Y-102004642D01*
X143993435Y-102002396D01*
X143985894Y-101999950D01*
X143983495Y-101998862D01*
X143973673Y-101995287D01*
X143964666Y-101992676D01*
X143956437Y-101989893D01*
X143948950Y-101985800D01*
X143942168Y-101979260D01*
X143936055Y-101969137D01*
X143930575Y-101954293D01*
X143925690Y-101933591D01*
X143921364Y-101905895D01*
X143917561Y-101870068D01*
X143914244Y-101824973D01*
X143911376Y-101769472D01*
X143908922Y-101702429D01*
X143906844Y-101622707D01*
X143905107Y-101529170D01*
X143903673Y-101420679D01*
X143903202Y-101370440D01*
X144265255Y-101370440D01*
X144265652Y-101375251D01*
X144272935Y-101379150D01*
X144289389Y-101382232D01*
X144317301Y-101384594D01*
X144358957Y-101386330D01*
X144416642Y-101387536D01*
X144492642Y-101388308D01*
X144589244Y-101388741D01*
X144708734Y-101388931D01*
X144853396Y-101388973D01*
X145459373Y-101388973D01*
X145408146Y-101296298D01*
X145356919Y-101203622D01*
X145356919Y-98512595D01*
X145408146Y-98419919D01*
X145459373Y-98327244D01*
X144376211Y-98327244D01*
X144368379Y-101176162D01*
X144329981Y-101258168D01*
X144309736Y-101298815D01*
X144286813Y-101339532D01*
X144269501Y-101364574D01*
X144269458Y-101364622D01*
X144265255Y-101370440D01*
X143903202Y-101370440D01*
X143902506Y-101296098D01*
X143901570Y-101154290D01*
X143900828Y-100994119D01*
X143900243Y-100814447D01*
X143899779Y-100614137D01*
X143899400Y-100392052D01*
X143899069Y-100147056D01*
X143898749Y-99878012D01*
X143898404Y-99583782D01*
X143897998Y-99263230D01*
X143897945Y-99224424D01*
X143897492Y-98905903D01*
X143897059Y-98613572D01*
X143896677Y-98346293D01*
X143896380Y-98102929D01*
X143896198Y-97882342D01*
X143896165Y-97683395D01*
X143896311Y-97504950D01*
X143896670Y-97345871D01*
X143897274Y-97205019D01*
X143898154Y-97081257D01*
X143899342Y-96973447D01*
X143900871Y-96880453D01*
X143902772Y-96801137D01*
X143905078Y-96734360D01*
X143907821Y-96678987D01*
X143911032Y-96633879D01*
X143914745Y-96597899D01*
X143918990Y-96569909D01*
X143923801Y-96548772D01*
X143929208Y-96533351D01*
X143935245Y-96522508D01*
X143941943Y-96515106D01*
X143949335Y-96510007D01*
X143957451Y-96506073D01*
X143966325Y-96502168D01*
X143975989Y-96497154D01*
X143978817Y-96495556D01*
X144021604Y-96480089D01*
X144068443Y-96473732D01*
X144121244Y-96473734D01*
X144122124Y-96593867D01*
X144122347Y-96607692D01*
X144139129Y-96748215D01*
X144181873Y-96880435D01*
X144249983Y-97002952D01*
X144342868Y-97114363D01*
X144392712Y-97159803D01*
X144503695Y-97235120D01*
X144624788Y-97287643D01*
X144752465Y-97317342D01*
X144883197Y-97324190D01*
X145013460Y-97308159D01*
X145139725Y-97269221D01*
X145243522Y-97215135D01*
X145702907Y-97215135D01*
X145763319Y-97258599D01*
X145814410Y-97299448D01*
X145886403Y-97366076D01*
X145968060Y-97449580D01*
X146056290Y-97546778D01*
X146148000Y-97654487D01*
X146171617Y-97683290D01*
X146211827Y-97732692D01*
X146264387Y-97797505D01*
X146327556Y-97875566D01*
X146399592Y-97964711D01*
X146478754Y-98062778D01*
X146563302Y-98167604D01*
X146651493Y-98277024D01*
X146691944Y-98327244D01*
X146741586Y-98388876D01*
X146831840Y-98500997D01*
X146920515Y-98611224D01*
X147005868Y-98717392D01*
X147086158Y-98817340D01*
X147159644Y-98908903D01*
X147224585Y-98989919D01*
X147279240Y-99058224D01*
X147321866Y-99111655D01*
X147350724Y-99148048D01*
X147364071Y-99165242D01*
X147365173Y-99171703D01*
X147361508Y-99183992D01*
X147352013Y-99203325D01*
X147335738Y-99231074D01*
X147311736Y-99268610D01*
X147279060Y-99317304D01*
X147236761Y-99378529D01*
X147183891Y-99453654D01*
X147119503Y-99544052D01*
X147042648Y-99651094D01*
X146952380Y-99776152D01*
X146847749Y-99920596D01*
X146727809Y-100085798D01*
X146632242Y-100217297D01*
X146515648Y-100377605D01*
X146413088Y-100518387D01*
X146323369Y-100641204D01*
X146245300Y-100747619D01*
X146177688Y-100839195D01*
X146119338Y-100917494D01*
X146069060Y-100984079D01*
X146025661Y-101040511D01*
X145987946Y-101088354D01*
X145954725Y-101129169D01*
X145924803Y-101164520D01*
X145896989Y-101195968D01*
X145870090Y-101225076D01*
X145842913Y-101253406D01*
X145814265Y-101282522D01*
X145708692Y-101388973D01*
X147128054Y-101389031D01*
X147123595Y-101303019D01*
X147123379Y-101298697D01*
X147122532Y-101264313D01*
X147124137Y-101231368D01*
X147129266Y-101198058D01*
X147138993Y-101162578D01*
X147154391Y-101123125D01*
X147176534Y-101077893D01*
X147206495Y-101025077D01*
X147245348Y-100962874D01*
X147294166Y-100889477D01*
X147354022Y-100803084D01*
X147425990Y-100701890D01*
X147511143Y-100584088D01*
X147610554Y-100447876D01*
X147725298Y-100291449D01*
X148130325Y-99740041D01*
X148133893Y-100379382D01*
X148134209Y-100439020D01*
X148134767Y-100599657D01*
X148134513Y-100736289D01*
X148133150Y-100851502D01*
X148130377Y-100947883D01*
X148125898Y-101028016D01*
X148119413Y-101094487D01*
X148110623Y-101149883D01*
X148099230Y-101196788D01*
X148084935Y-101237788D01*
X148067440Y-101275469D01*
X148046447Y-101312417D01*
X148021655Y-101351217D01*
X147996734Y-101388973D01*
X149291884Y-101388973D01*
X149258429Y-101344352D01*
X149253190Y-101337293D01*
X149211302Y-101272594D01*
X149182427Y-101207190D01*
X149163466Y-101132248D01*
X149151321Y-101038933D01*
X149150987Y-101034865D01*
X149149225Y-100996375D01*
X149147633Y-100932156D01*
X149146220Y-100843676D01*
X149144992Y-100732403D01*
X149143956Y-100599803D01*
X149143118Y-100447345D01*
X149142486Y-100276496D01*
X149142067Y-100088722D01*
X149141868Y-99885493D01*
X149141895Y-99668274D01*
X149142155Y-99438535D01*
X149142655Y-99197741D01*
X149143185Y-98981748D01*
X149143752Y-98746635D01*
X149144311Y-98536279D01*
X149144930Y-98349206D01*
X149145681Y-98183942D01*
X149146634Y-98039013D01*
X149147858Y-97912947D01*
X149149423Y-97804268D01*
X149151401Y-97711504D01*
X149153860Y-97633180D01*
X149156871Y-97567822D01*
X149160504Y-97513958D01*
X149164829Y-97470113D01*
X149169916Y-97434813D01*
X149175835Y-97406585D01*
X149182657Y-97383955D01*
X149190451Y-97365449D01*
X149199288Y-97349594D01*
X149209237Y-97334915D01*
X149220369Y-97319940D01*
X149232754Y-97303193D01*
X149244732Y-97286412D01*
X149267885Y-97253231D01*
X149281753Y-97232298D01*
X149282088Y-97231421D01*
X149277246Y-97227462D01*
X149260157Y-97224159D01*
X149228921Y-97221461D01*
X149181635Y-97219317D01*
X149116398Y-97217676D01*
X149031310Y-97216489D01*
X148924467Y-97215703D01*
X148793969Y-97215269D01*
X148637914Y-97215135D01*
X147983722Y-97215135D01*
X148018200Y-97256110D01*
X148038182Y-97284253D01*
X148071443Y-97350608D01*
X148100591Y-97433135D01*
X148122838Y-97524679D01*
X148124256Y-97533369D01*
X148128474Y-97579183D01*
X148131669Y-97649989D01*
X148133849Y-97746275D01*
X148135021Y-97868532D01*
X148135195Y-98017251D01*
X148134378Y-98192922D01*
X148130325Y-98779412D01*
X147711568Y-98249859D01*
X147699574Y-98234690D01*
X147593381Y-98100255D01*
X147502721Y-97985124D01*
X147426151Y-97887339D01*
X147362227Y-97804943D01*
X147309507Y-97735978D01*
X147266549Y-97678486D01*
X147231909Y-97630510D01*
X147204145Y-97590093D01*
X147181814Y-97555276D01*
X147163472Y-97524103D01*
X147147678Y-97494615D01*
X147132988Y-97464855D01*
X147110390Y-97412177D01*
X147095791Y-97356606D01*
X147091908Y-97296666D01*
X147092298Y-97215135D01*
X145702907Y-97215135D01*
X145243522Y-97215135D01*
X145258466Y-97207348D01*
X145366157Y-97122511D01*
X145396094Y-97092602D01*
X145484577Y-96981862D01*
X145547364Y-96861684D01*
X145584789Y-96731291D01*
X145597189Y-96589910D01*
X145597189Y-96473730D01*
X147568088Y-96473730D01*
X147691220Y-96473725D01*
X147955743Y-96473689D01*
X148194702Y-96473663D01*
X148409418Y-96473699D01*
X148601213Y-96473849D01*
X148771407Y-96474166D01*
X148921323Y-96474702D01*
X149052282Y-96475508D01*
X149165605Y-96476638D01*
X149262614Y-96478144D01*
X149344629Y-96480077D01*
X149412974Y-96482491D01*
X149468968Y-96485436D01*
X149513933Y-96488966D01*
X149549191Y-96493133D01*
X149576063Y-96497989D01*
X149595871Y-96503586D01*
X149609935Y-96509976D01*
X149619578Y-96517212D01*
X149626121Y-96525346D01*
X149630885Y-96534431D01*
X149635192Y-96544518D01*
X149640363Y-96555659D01*
X149640455Y-96555841D01*
X149642966Y-96563134D01*
X149645268Y-96575347D01*
X149647372Y-96593605D01*
X149649286Y-96619037D01*
X149651018Y-96652769D01*
X149652578Y-96695928D01*
X149653973Y-96749641D01*
X149655213Y-96815035D01*
X149656307Y-96893238D01*
X149657263Y-96985376D01*
X149658090Y-97092576D01*
X149658797Y-97215966D01*
X149659393Y-97356671D01*
X149659885Y-97515820D01*
X149660284Y-97694540D01*
X149660597Y-97893957D01*
X149660833Y-98115198D01*
X149661002Y-98359390D01*
X149661112Y-98627661D01*
X149661172Y-98921137D01*
X149661189Y-99240946D01*
X149661190Y-99303773D01*
X149661220Y-99620249D01*
X149661267Y-99910615D01*
X149661295Y-100176007D01*
X149661267Y-100417560D01*
X149661150Y-100636410D01*
X149660905Y-100833691D01*
X149660498Y-101010539D01*
X149659893Y-101168090D01*
X149659054Y-101307479D01*
X149658315Y-101388973D01*
X149657945Y-101429840D01*
G37*
%TD*%
%LPC*%
D11*
%TO.C,J1*%
X116250000Y-116750000D03*
X116250000Y-103250000D03*
D12*
X122250000Y-106400000D03*
D13*
X122250000Y-113600000D03*
%TD*%
D14*
%TO.C,J2*%
X159045600Y-114320000D03*
X162845599Y-114320000D03*
X159045600Y-105680000D03*
X162845599Y-105680000D03*
%TD*%
%LPD*%
M02*
