%TF.GenerationSoftware,KiCad,Pcbnew,9.0.4*%
%TF.CreationDate,2025-09-28T14:02:47+03:00*%
%TF.ProjectId,Project_MP2494,50726f6a-6563-4745-9f4d-50323439342e,1.0*%
%TF.SameCoordinates,Original*%
%TF.FileFunction,Copper,L1,Top*%
%TF.FilePolarity,Positive*%
%FSLAX46Y46*%
G04 Gerber Fmt 4.6, Leading zero omitted, Abs format (unit mm)*
G04 Created by KiCad (PCBNEW 9.0.4) date 2025-09-28 14:02:47*
%MOMM*%
%LPD*%
G01*
G04 APERTURE LIST*
G04 Aperture macros list*
%AMRoundRect*
0 Rectangle with rounded corners*
0 $1 Rounding radius*
0 $2 $3 $4 $5 $6 $7 $8 $9 X,Y pos of 4 corners*
0 Add a 4 corners polygon primitive as box body*
4,1,4,$2,$3,$4,$5,$6,$7,$8,$9,$2,$3,0*
0 Add four circle primitives for the rounded corners*
1,1,$1+$1,$2,$3*
1,1,$1+$1,$4,$5*
1,1,$1+$1,$6,$7*
1,1,$1+$1,$8,$9*
0 Add four rect primitives between the rounded corners*
20,1,$1+$1,$2,$3,$4,$5,0*
20,1,$1+$1,$4,$5,$6,$7,0*
20,1,$1+$1,$6,$7,$8,$9,0*
20,1,$1+$1,$8,$9,$2,$3,0*%
G04 Aperture macros list end*
%TA.AperFunction,SMDPad,CuDef*%
%ADD10RoundRect,0.250000X-0.325000X-0.450000X0.325000X-0.450000X0.325000X0.450000X-0.325000X0.450000X0*%
%TD*%
%TA.AperFunction,SMDPad,CuDef*%
%ADD11R,1.600000X3.000000*%
%TD*%
%TA.AperFunction,SMDPad,CuDef*%
%ADD12RoundRect,0.250000X-0.350000X-0.450000X0.350000X-0.450000X0.350000X0.450000X-0.350000X0.450000X0*%
%TD*%
%TA.AperFunction,SMDPad,CuDef*%
%ADD13RoundRect,0.250000X0.475000X-0.337500X0.475000X0.337500X-0.475000X0.337500X-0.475000X-0.337500X0*%
%TD*%
%TA.AperFunction,SMDPad,CuDef*%
%ADD14RoundRect,0.250000X0.350000X0.450000X-0.350000X0.450000X-0.350000X-0.450000X0.350000X-0.450000X0*%
%TD*%
%TA.AperFunction,ComponentPad*%
%ADD15O,2.400000X1.200000*%
%TD*%
%TA.AperFunction,ComponentPad*%
%ADD16R,3.716000X3.716000*%
%TD*%
%TA.AperFunction,ComponentPad*%
%ADD17C,3.716000*%
%TD*%
%TA.AperFunction,SMDPad,CuDef*%
%ADD18RoundRect,0.237500X0.237500X-0.300000X0.237500X0.300000X-0.237500X0.300000X-0.237500X-0.300000X0*%
%TD*%
%TA.AperFunction,SMDPad,CuDef*%
%ADD19RoundRect,0.250000X-0.450000X0.350000X-0.450000X-0.350000X0.450000X-0.350000X0.450000X0.350000X0*%
%TD*%
%TA.AperFunction,SMDPad,CuDef*%
%ADD20R,2.500000X5.800000*%
%TD*%
%TA.AperFunction,SMDPad,CuDef*%
%ADD21RoundRect,0.250000X-0.650000X0.412500X-0.650000X-0.412500X0.650000X-0.412500X0.650000X0.412500X0*%
%TD*%
%TA.AperFunction,ComponentPad*%
%ADD22O,1.701800X1.092200*%
%TD*%
%TA.AperFunction,SMDPad,CuDef*%
%ADD23R,1.193800X0.711200*%
%TD*%
%TA.AperFunction,SMDPad,CuDef*%
%ADD24R,1.193800X0.762000*%
%TD*%
%TA.AperFunction,SMDPad,CuDef*%
%ADD25R,1.193800X0.812800*%
%TD*%
%TA.AperFunction,SMDPad,CuDef*%
%ADD26RoundRect,0.075000X-0.910000X-0.225000X0.910000X-0.225000X0.910000X0.225000X-0.910000X0.225000X0*%
%TD*%
%TA.AperFunction,SMDPad,CuDef*%
%ADD27R,2.410000X3.300000*%
%TD*%
%TA.AperFunction,SMDPad,CuDef*%
%ADD28RoundRect,0.250000X0.450000X-0.350000X0.450000X0.350000X-0.450000X0.350000X-0.450000X-0.350000X0*%
%TD*%
%TA.AperFunction,SMDPad,CuDef*%
%ADD29R,5.400000X2.900000*%
%TD*%
%TA.AperFunction,SMDPad,CuDef*%
%ADD30R,1.600000X1.200000*%
%TD*%
%TA.AperFunction,ViaPad*%
%ADD31C,0.800000*%
%TD*%
%TA.AperFunction,ViaPad*%
%ADD32C,0.600000*%
%TD*%
%TA.AperFunction,Conductor*%
%ADD33C,0.304800*%
%TD*%
%TA.AperFunction,Conductor*%
%ADD34C,0.508000*%
%TD*%
G04 APERTURE END LIST*
D10*
%TO.P,D2,1,K*%
%TO.N,GND*%
X150450000Y-122500000D03*
%TO.P,D2,2,A*%
%TO.N,Net-(D2-A)*%
X152500000Y-122500000D03*
%TD*%
D11*
%TO.P,C6,1,1*%
%TO.N,+5V*%
X154000000Y-112300000D03*
%TO.P,C6,2,2*%
%TO.N,GND*%
X154000000Y-116700000D03*
%TD*%
D12*
%TO.P,R2,1*%
%TO.N,Net-(U1-EN)*%
X128500000Y-116562500D03*
%TO.P,R2,2*%
%TO.N,GND*%
X130500000Y-116562500D03*
%TD*%
D13*
%TO.P,C7,1,1*%
%TO.N,+5V*%
X156000000Y-108037500D03*
%TO.P,C7,2,2*%
%TO.N,GND*%
X156000000Y-105962500D03*
%TD*%
D14*
%TO.P,R1,1*%
%TO.N,VIN*%
X130500000Y-113437500D03*
%TO.P,R1,2*%
%TO.N,Net-(U1-EN)*%
X128500000Y-113437500D03*
%TD*%
D15*
%TO.P,J1,*%
%TO.N,*%
X116250000Y-116750000D03*
X116250000Y-103250000D03*
D16*
%TO.P,J1,1,1*%
%TO.N,VIN*%
X122250000Y-106400000D03*
D17*
%TO.P,J1,2,2*%
%TO.N,GND*%
X122250000Y-113600000D03*
%TD*%
D18*
%TO.P,C4,1,1*%
%TO.N,Net-(U1-BST)*%
X144500000Y-113820000D03*
%TO.P,C4,2,2*%
%TO.N,Net-(D1-C)*%
X144500000Y-112095000D03*
%TD*%
D12*
%TO.P,R5,1*%
%TO.N,+5V*%
X150500000Y-120000000D03*
%TO.P,R5,2*%
%TO.N,Net-(D2-A)*%
X152500000Y-120000000D03*
%TD*%
D19*
%TO.P,R4,1*%
%TO.N,/FB*%
X136525000Y-120500000D03*
%TO.P,R4,2*%
%TO.N,GND*%
X136525000Y-122500000D03*
%TD*%
D20*
%TO.P,C1,1,1*%
%TO.N,VIN*%
X133000000Y-108050000D03*
%TO.P,C1,2,2*%
%TO.N,GND*%
X133000000Y-97950000D03*
%TD*%
D18*
%TO.P,C5,1,1*%
%TO.N,+5V*%
X141500000Y-122225000D03*
%TO.P,C5,2,2*%
%TO.N,/FB*%
X141500000Y-120500000D03*
%TD*%
D21*
%TO.P,C2,1,1*%
%TO.N,VIN*%
X133000000Y-113437500D03*
%TO.P,C2,2,2*%
%TO.N,GND*%
X133000000Y-116562500D03*
%TD*%
D22*
%TO.P,J2,7,SH*%
%TO.N,GND*%
X159045600Y-114320000D03*
X162845599Y-114320000D03*
X159045600Y-105680000D03*
X162845599Y-105680000D03*
D23*
%TO.P,J2,A5,CC1*%
%TO.N,unconnected-(J2-CC1-PadA5)*%
X158965599Y-110499999D03*
D24*
%TO.P,J2,A9,VBUS*%
%TO.N,+5V*%
X158965599Y-108480000D03*
D25*
%TO.P,J2,A12,GND*%
%TO.N,GND*%
X158965599Y-107250000D03*
D23*
%TO.P,J2,B5,CC2*%
%TO.N,unconnected-(J2-CC2-PadB5)*%
X158965599Y-109500001D03*
D24*
%TO.P,J2,B9,VBUS*%
%TO.N,+5V*%
X158965716Y-111519936D03*
D25*
%TO.P,J2,B12,GND*%
%TO.N,GND*%
X158965716Y-112749936D03*
%TD*%
D26*
%TO.P,U1,1,VIN*%
%TO.N,VIN*%
X136525000Y-112095000D03*
%TO.P,U1,2,GND*%
%TO.N,GND*%
X136525000Y-113365000D03*
D27*
X139000000Y-114000000D03*
D26*
%TO.P,U1,3,EN*%
%TO.N,Net-(U1-EN)*%
X136525000Y-114635000D03*
%TO.P,U1,4,FB*%
%TO.N,/FB*%
X136525000Y-115905000D03*
%TO.P,U1,5,SS*%
%TO.N,Net-(U1-SS)*%
X141475000Y-115905000D03*
%TO.P,U1,6,GS*%
%TO.N,GND*%
X141475000Y-114635000D03*
%TO.P,U1,7,BST*%
%TO.N,Net-(U1-BST)*%
X141475000Y-113365000D03*
%TO.P,U1,8,SW*%
%TO.N,Net-(D1-C)*%
X141475000Y-112095000D03*
%TD*%
D18*
%TO.P,C3,1,1*%
%TO.N,GND*%
X144500000Y-117630000D03*
%TO.P,C3,2,2*%
%TO.N,Net-(U1-SS)*%
X144500000Y-115905000D03*
%TD*%
D28*
%TO.P,R3,1*%
%TO.N,+5V*%
X139000000Y-122500000D03*
%TO.P,R3,2*%
%TO.N,/FB*%
X139000000Y-120500000D03*
%TD*%
D29*
%TO.P,L1,1,1*%
%TO.N,Net-(D1-C)*%
X147500000Y-106950000D03*
%TO.P,L1,2,2*%
%TO.N,+5V*%
X147500000Y-97050000D03*
%TD*%
D30*
%TO.P,D1,1,C*%
%TO.N,Net-(D1-C)*%
X147500000Y-112175900D03*
%TO.P,D1,2,A*%
%TO.N,GND*%
X147500000Y-116824100D03*
%TD*%
D31*
%TO.N,GND*%
X121450000Y-119500000D03*
D32*
X138200000Y-113600000D03*
X139000000Y-112800000D03*
D31*
X158650000Y-96300000D03*
D32*
X139000000Y-113600000D03*
D31*
X119650000Y-119500000D03*
X135000000Y-113365000D03*
X158650000Y-101700000D03*
X123750000Y-98450000D03*
X121650000Y-98450000D03*
D32*
X138200000Y-114400000D03*
D31*
X157100000Y-122400000D03*
X135000000Y-97950000D03*
X116250000Y-96650000D03*
X162500000Y-122400000D03*
X162500000Y-118800000D03*
X156850000Y-98100000D03*
X144500000Y-119000000D03*
X128700000Y-119500000D03*
X152250000Y-116700000D03*
X162250000Y-103500000D03*
X156000000Y-104750000D03*
X126900000Y-123100000D03*
X147500000Y-118250000D03*
X158650000Y-99900000D03*
X118050000Y-98450000D03*
X125100000Y-123100000D03*
X162250000Y-101700000D03*
X123750000Y-100250000D03*
D32*
X138200000Y-112800000D03*
X139800000Y-112800000D03*
D31*
X121450000Y-123100000D03*
X160450000Y-103500000D03*
X155750000Y-116700000D03*
X128700000Y-123100000D03*
X158900000Y-120600000D03*
X119850000Y-96650000D03*
X157100000Y-117000000D03*
X119850000Y-98450000D03*
X162500000Y-120600000D03*
X143250000Y-117630000D03*
X157100000Y-120600000D03*
X121450000Y-121300000D03*
X123250000Y-119500000D03*
D32*
X139000000Y-115200000D03*
D31*
X131000000Y-97950000D03*
X123750000Y-96650000D03*
X130500000Y-118000000D03*
X118050000Y-96650000D03*
X160700000Y-117000000D03*
X157100000Y-118800000D03*
X160700000Y-122400000D03*
X156850000Y-103500000D03*
X121650000Y-100250000D03*
X160450000Y-96300000D03*
D32*
X138200000Y-115200000D03*
X139800000Y-114400000D03*
D31*
X147500000Y-115500000D03*
X119850000Y-100250000D03*
X160450000Y-98100000D03*
X133000000Y-101500000D03*
X116250000Y-98450000D03*
X130500000Y-121300000D03*
X128700000Y-121300000D03*
X158900000Y-118800000D03*
X126900000Y-119500000D03*
X117850000Y-119500000D03*
X130500000Y-119500000D03*
X135000000Y-122500000D03*
X143250000Y-114635000D03*
X125100000Y-119500000D03*
X116250000Y-100250000D03*
X125100000Y-121300000D03*
X119650000Y-121300000D03*
D32*
X139800000Y-113600000D03*
D31*
X134500000Y-116562500D03*
X160450000Y-99900000D03*
X118050000Y-100250000D03*
X156850000Y-101700000D03*
X126900000Y-121300000D03*
X160700000Y-120600000D03*
X123250000Y-123100000D03*
X133000000Y-118000000D03*
X149250000Y-122500000D03*
X121650000Y-96650000D03*
X123250000Y-121300000D03*
X162250000Y-98100000D03*
X160450000Y-101700000D03*
X158900000Y-122400000D03*
X158650000Y-103500000D03*
X119650000Y-123100000D03*
X160700000Y-118800000D03*
X156850000Y-99900000D03*
X130500000Y-123100000D03*
D32*
X139000000Y-114400000D03*
D31*
X158900000Y-117000000D03*
X158650000Y-98100000D03*
X162250000Y-99900000D03*
X117850000Y-123100000D03*
X162500000Y-117000000D03*
X156850000Y-96300000D03*
X162250000Y-96300000D03*
X117850000Y-121300000D03*
D32*
X139800000Y-115200000D03*
D31*
X154000000Y-119250000D03*
%TD*%
D33*
%TO.N,Net-(U1-SS)*%
X141475000Y-115905000D02*
X144500000Y-115905000D01*
%TO.N,Net-(U1-BST)*%
X143320000Y-113820000D02*
X144500000Y-113820000D01*
X142865000Y-113365000D02*
X143320000Y-113820000D01*
X141475000Y-113365000D02*
X142865000Y-113365000D01*
%TO.N,/FB*%
X136525000Y-115905000D02*
X136525000Y-120500000D01*
X139000000Y-120500000D02*
X141500000Y-120500000D01*
X136525000Y-120500000D02*
X139000000Y-120500000D01*
D34*
%TO.N,+5V*%
X145525000Y-122225000D02*
X147750000Y-120000000D01*
X140275000Y-122225000D02*
X141500000Y-122225000D01*
X147750000Y-120000000D02*
X150500000Y-120000000D01*
X141500000Y-122225000D02*
X145525000Y-122225000D01*
X139000000Y-122500000D02*
X140000000Y-122500000D01*
X140000000Y-122500000D02*
X140275000Y-122225000D01*
D33*
%TO.N,Net-(D2-A)*%
X152500000Y-120000000D02*
X152500000Y-122500000D01*
%TO.N,Net-(U1-EN)*%
X133750000Y-115000000D02*
X134115000Y-114635000D01*
X134115000Y-114635000D02*
X136525000Y-114635000D01*
X128500000Y-115000000D02*
X128500000Y-116562500D01*
X128500000Y-113437500D02*
X128500000Y-115000000D01*
X128500000Y-115000000D02*
X133750000Y-115000000D01*
%TD*%
%TA.AperFunction,Conductor*%
%TO.N,+5V*%
G36*
X150315677Y-95319685D02*
G01*
X150336319Y-95336319D01*
X150463681Y-95463681D01*
X150497166Y-95525004D01*
X150500000Y-95551362D01*
X150500000Y-98500000D01*
X154463681Y-102463681D01*
X154497166Y-102525004D01*
X154500000Y-102551362D01*
X154500000Y-107000000D01*
X154750000Y-107250000D01*
X156698638Y-107250000D01*
X156765677Y-107269685D01*
X156786319Y-107286319D01*
X157500000Y-108000000D01*
X159448638Y-108000000D01*
X159478078Y-108008644D01*
X159508065Y-108015168D01*
X159513080Y-108018922D01*
X159515677Y-108019685D01*
X159536319Y-108036319D01*
X159613681Y-108113681D01*
X159647166Y-108175004D01*
X159650000Y-108201362D01*
X159650000Y-108698638D01*
X159630315Y-108765677D01*
X159613681Y-108786319D01*
X159536319Y-108863681D01*
X159474996Y-108897166D01*
X159448638Y-108900000D01*
X157849999Y-108900000D01*
X157500000Y-109249999D01*
X157500000Y-109250000D01*
X157500000Y-110750000D01*
X157850000Y-111100000D01*
X159448638Y-111100000D01*
X159478078Y-111108644D01*
X159508065Y-111115168D01*
X159513080Y-111118922D01*
X159515677Y-111119685D01*
X159536319Y-111136319D01*
X159613681Y-111213681D01*
X159647166Y-111275004D01*
X159650000Y-111301362D01*
X159650000Y-111798638D01*
X159630315Y-111865677D01*
X159613681Y-111886319D01*
X159536319Y-111963681D01*
X159474996Y-111997166D01*
X159448638Y-112000000D01*
X157749999Y-112000000D01*
X155436319Y-114313681D01*
X155374996Y-114347166D01*
X155348638Y-114350000D01*
X152642000Y-114350000D01*
X151400000Y-115500000D01*
X151400000Y-120648638D01*
X151380315Y-120715677D01*
X151363681Y-120736319D01*
X151136319Y-120963681D01*
X151074996Y-120997166D01*
X151048638Y-121000000D01*
X149951362Y-121000000D01*
X149884323Y-120980315D01*
X149863681Y-120963681D01*
X149636319Y-120736319D01*
X149602834Y-120674996D01*
X149600000Y-120648638D01*
X149600000Y-115152219D01*
X149619685Y-115085180D01*
X149637353Y-115063515D01*
X151750000Y-113000000D01*
X152000000Y-112750000D01*
X152000000Y-104000000D01*
X147350000Y-99350000D01*
X144801362Y-99350000D01*
X144734323Y-99330315D01*
X144713681Y-99313681D01*
X144536319Y-99136319D01*
X144502834Y-99074996D01*
X144500000Y-99048638D01*
X144500000Y-95551362D01*
X144508644Y-95521921D01*
X144515168Y-95491935D01*
X144518922Y-95486919D01*
X144519685Y-95484323D01*
X144536319Y-95463681D01*
X144663681Y-95336319D01*
X144725004Y-95302834D01*
X144751362Y-95300000D01*
X150248638Y-95300000D01*
X150315677Y-95319685D01*
G37*
%TD.AperFunction*%
%TD*%
%TA.AperFunction,Conductor*%
%TO.N,VIN*%
G36*
X134091847Y-103750597D02*
G01*
X134268728Y-103768018D01*
X134292556Y-103772757D01*
X134456788Y-103822576D01*
X134479240Y-103831877D01*
X134630585Y-103912772D01*
X134650797Y-103926277D01*
X134788186Y-104039030D01*
X134797202Y-104047202D01*
X135202797Y-104452797D01*
X135210969Y-104461813D01*
X135323722Y-104599202D01*
X135337227Y-104619414D01*
X135418121Y-104770756D01*
X135427424Y-104793214D01*
X135477240Y-104957437D01*
X135481982Y-104981278D01*
X135499403Y-105158152D01*
X135500000Y-105170306D01*
X135500000Y-111000000D01*
X136000000Y-111500000D01*
X137065097Y-111500000D01*
X137081282Y-111501061D01*
X137167497Y-111512411D01*
X137198762Y-111520788D01*
X137271527Y-111550928D01*
X137299561Y-111567114D01*
X137362048Y-111615063D01*
X137384936Y-111637951D01*
X137432885Y-111700438D01*
X137449071Y-111728473D01*
X137479210Y-111801236D01*
X137487588Y-111832502D01*
X137498939Y-111918716D01*
X137500000Y-111934902D01*
X137500000Y-112065097D01*
X137498939Y-112081283D01*
X137487588Y-112167497D01*
X137479210Y-112198763D01*
X137449071Y-112271526D01*
X137432885Y-112299561D01*
X137384936Y-112362048D01*
X137362048Y-112384936D01*
X137299561Y-112432885D01*
X137271526Y-112449071D01*
X137198763Y-112479210D01*
X137167497Y-112487588D01*
X137094079Y-112497254D01*
X137081281Y-112498939D01*
X137065097Y-112500000D01*
X134749999Y-112500000D01*
X134250000Y-112999999D01*
X134250000Y-113565097D01*
X134248939Y-113581283D01*
X134237588Y-113667497D01*
X134229210Y-113698763D01*
X134199071Y-113771526D01*
X134182885Y-113799561D01*
X134129942Y-113868557D01*
X134119248Y-113880751D01*
X133880751Y-114119248D01*
X133868557Y-114129942D01*
X133799561Y-114182885D01*
X133771526Y-114199071D01*
X133698763Y-114229210D01*
X133667497Y-114237588D01*
X133594079Y-114247254D01*
X133581281Y-114248939D01*
X133565097Y-114250000D01*
X132250000Y-114250000D01*
X130434903Y-114250000D01*
X130418718Y-114248939D01*
X130403270Y-114246905D01*
X130332502Y-114237588D01*
X130301236Y-114229210D01*
X130228473Y-114199071D01*
X130200438Y-114182885D01*
X130137951Y-114134936D01*
X130115063Y-114112048D01*
X130067114Y-114049561D01*
X130050928Y-114021526D01*
X130020789Y-113948763D01*
X130012411Y-113917496D01*
X130006816Y-113875000D01*
X130001061Y-113831282D01*
X130000000Y-113815097D01*
X130000000Y-110250000D01*
X128750000Y-109000000D01*
X128335786Y-109000000D01*
X120670307Y-109000000D01*
X120658153Y-108999403D01*
X120481278Y-108981982D01*
X120457437Y-108977240D01*
X120293214Y-108927424D01*
X120270756Y-108918121D01*
X120119414Y-108837227D01*
X120099202Y-108823722D01*
X119961813Y-108710969D01*
X119952797Y-108702797D01*
X119797202Y-108547202D01*
X119789030Y-108538186D01*
X119676277Y-108400797D01*
X119662772Y-108380585D01*
X119581878Y-108229243D01*
X119572575Y-108206785D01*
X119522757Y-108042556D01*
X119518018Y-108018728D01*
X119500597Y-107841847D01*
X119500000Y-107829693D01*
X119500000Y-104920306D01*
X119500597Y-104908152D01*
X119518018Y-104731269D01*
X119522757Y-104707445D01*
X119572577Y-104543207D01*
X119581875Y-104520762D01*
X119662775Y-104369408D01*
X119676272Y-104349208D01*
X119789039Y-104211802D01*
X119797192Y-104202807D01*
X119952807Y-104047192D01*
X119961802Y-104039039D01*
X120099208Y-103926272D01*
X120119408Y-103912775D01*
X120270762Y-103831875D01*
X120293207Y-103822577D01*
X120457445Y-103772757D01*
X120481269Y-103768018D01*
X120658153Y-103750597D01*
X120670307Y-103750000D01*
X134079693Y-103750000D01*
X134091847Y-103750597D01*
G37*
%TD.AperFunction*%
%TD*%
%TA.AperFunction,Conductor*%
%TO.N,Net-(D1-C)*%
G36*
X150265677Y-105219685D02*
G01*
X150286319Y-105236319D01*
X150463681Y-105413681D01*
X150497166Y-105475004D01*
X150500000Y-105501362D01*
X150500000Y-109448638D01*
X150480315Y-109515677D01*
X150463681Y-109536319D01*
X148750000Y-111249999D01*
X148750000Y-112198638D01*
X148730315Y-112265677D01*
X148713681Y-112286319D01*
X148536319Y-112463681D01*
X148474996Y-112497166D01*
X148448638Y-112500000D01*
X140551362Y-112500000D01*
X140521921Y-112491355D01*
X140491935Y-112484832D01*
X140486919Y-112481077D01*
X140484323Y-112480315D01*
X140463681Y-112463681D01*
X140441819Y-112441819D01*
X140408334Y-112380496D01*
X140405500Y-112354138D01*
X140405500Y-112330249D01*
X140405499Y-112330247D01*
X140393868Y-112271770D01*
X140393867Y-112271769D01*
X140349552Y-112205448D01*
X140305108Y-112175751D01*
X140260304Y-112122138D01*
X140250000Y-112072649D01*
X140250000Y-111801362D01*
X140269685Y-111734323D01*
X140286319Y-111713681D01*
X140463681Y-111536319D01*
X140525004Y-111502834D01*
X140551362Y-111500000D01*
X142750000Y-111500000D01*
X144500000Y-109750000D01*
X144500000Y-105451362D01*
X144508644Y-105421921D01*
X144515168Y-105391935D01*
X144518922Y-105386919D01*
X144519685Y-105384323D01*
X144536319Y-105363681D01*
X144663681Y-105236319D01*
X144725004Y-105202834D01*
X144751362Y-105200000D01*
X150198638Y-105200000D01*
X150265677Y-105219685D01*
G37*
%TD.AperFunction*%
%TD*%
%TA.AperFunction,Conductor*%
%TO.N,GND*%
G36*
X131431037Y-94770185D02*
G01*
X131476792Y-94822989D01*
X131486736Y-94892147D01*
X131477433Y-94924586D01*
X131452910Y-94980125D01*
X131450000Y-95005205D01*
X131450000Y-97500000D01*
X134549999Y-97500000D01*
X134549999Y-95005214D01*
X134549997Y-95005191D01*
X134547091Y-94980130D01*
X134547090Y-94980126D01*
X134522567Y-94924585D01*
X134513496Y-94855306D01*
X134543321Y-94792122D01*
X134602571Y-94755092D01*
X134636002Y-94750500D01*
X160455830Y-94750500D01*
X160496949Y-94750500D01*
X160503032Y-94750648D01*
X160861433Y-94768256D01*
X160873541Y-94769448D01*
X161225475Y-94821653D01*
X161237389Y-94824023D01*
X161582520Y-94910473D01*
X161594147Y-94914000D01*
X161929151Y-95033867D01*
X161940363Y-95038511D01*
X162262012Y-95190639D01*
X162272720Y-95196363D01*
X162577881Y-95379270D01*
X162587996Y-95386028D01*
X162810924Y-95551362D01*
X162873769Y-95597971D01*
X162883175Y-95605691D01*
X163146790Y-95844618D01*
X163155381Y-95853209D01*
X163357883Y-96076635D01*
X163394308Y-96116824D01*
X163402028Y-96126230D01*
X163613969Y-96412000D01*
X163620729Y-96422118D01*
X163803629Y-96727267D01*
X163809366Y-96737999D01*
X163961485Y-97059629D01*
X163966136Y-97070858D01*
X164085994Y-97405837D01*
X164089526Y-97417481D01*
X164175973Y-97762597D01*
X164178347Y-97774532D01*
X164230550Y-98126457D01*
X164231743Y-98138567D01*
X164249351Y-98496966D01*
X164249500Y-98503051D01*
X164249500Y-120496948D01*
X164249351Y-120503033D01*
X164231743Y-120861432D01*
X164230550Y-120873542D01*
X164178347Y-121225467D01*
X164175973Y-121237402D01*
X164089526Y-121582518D01*
X164085994Y-121594162D01*
X163970999Y-121915553D01*
X163966142Y-121929127D01*
X163961485Y-121940370D01*
X163809366Y-122262000D01*
X163803629Y-122272732D01*
X163620729Y-122577881D01*
X163613969Y-122587999D01*
X163402028Y-122873769D01*
X163394308Y-122883175D01*
X163155388Y-123146783D01*
X163146783Y-123155388D01*
X162883175Y-123394308D01*
X162873769Y-123402028D01*
X162587999Y-123613969D01*
X162577881Y-123620729D01*
X162272732Y-123803629D01*
X162262000Y-123809366D01*
X161940370Y-123961485D01*
X161929134Y-123966139D01*
X161805442Y-124010397D01*
X161594162Y-124085994D01*
X161582518Y-124089526D01*
X161237402Y-124175973D01*
X161225467Y-124178347D01*
X160873542Y-124230550D01*
X160861432Y-124231743D01*
X160523927Y-124248324D01*
X160503031Y-124249351D01*
X160496949Y-124249500D01*
X118003051Y-124249500D01*
X117996968Y-124249351D01*
X117974856Y-124248264D01*
X117638567Y-124231743D01*
X117626457Y-124230550D01*
X117274532Y-124178347D01*
X117262597Y-124175973D01*
X116917481Y-124089526D01*
X116905837Y-124085994D01*
X116570858Y-123966136D01*
X116559629Y-123961485D01*
X116237999Y-123809366D01*
X116227272Y-123803631D01*
X115922118Y-123620729D01*
X115912000Y-123613969D01*
X115626230Y-123402028D01*
X115616824Y-123394308D01*
X115510174Y-123297646D01*
X115353209Y-123155381D01*
X115344618Y-123146790D01*
X115114644Y-122893053D01*
X135525000Y-122893053D01*
X135535613Y-122981443D01*
X135591079Y-123122095D01*
X135682435Y-123242564D01*
X135802904Y-123333920D01*
X135943556Y-123389386D01*
X136031946Y-123400000D01*
X136225000Y-123400000D01*
X136825000Y-123400000D01*
X137018054Y-123400000D01*
X137106443Y-123389386D01*
X137247095Y-123333920D01*
X137367564Y-123242564D01*
X137458920Y-123122095D01*
X137514386Y-122981443D01*
X137525000Y-122893053D01*
X137525000Y-122800000D01*
X136825000Y-122800000D01*
X136825000Y-123400000D01*
X136225000Y-123400000D01*
X136225000Y-122800000D01*
X135525000Y-122800000D01*
X135525000Y-122893053D01*
X115114644Y-122893053D01*
X115105691Y-122883175D01*
X115097971Y-122873769D01*
X115090497Y-122863691D01*
X114886028Y-122587996D01*
X114879270Y-122577881D01*
X114874859Y-122570522D01*
X114696363Y-122272720D01*
X114690633Y-122261999D01*
X114640618Y-122156250D01*
X114617299Y-122106946D01*
X135525000Y-122106946D01*
X135525000Y-122200000D01*
X136225000Y-122200000D01*
X136825000Y-122200000D01*
X137525000Y-122200000D01*
X137525000Y-122106944D01*
X137523653Y-122095730D01*
X138099500Y-122095730D01*
X138099500Y-122904269D01*
X138102353Y-122934699D01*
X138102353Y-122934701D01*
X138147206Y-123062880D01*
X138147207Y-123062882D01*
X138227850Y-123172150D01*
X138337118Y-123252793D01*
X138379845Y-123267744D01*
X138465299Y-123297646D01*
X138495730Y-123300500D01*
X138495734Y-123300500D01*
X139504270Y-123300500D01*
X139534699Y-123297646D01*
X139534701Y-123297646D01*
X139598790Y-123275219D01*
X139662882Y-123252793D01*
X139772150Y-123172150D01*
X139852793Y-123062882D01*
X139861658Y-123037547D01*
X139870362Y-123025410D01*
X139874621Y-123011095D01*
X139890315Y-122997591D01*
X139893570Y-122993053D01*
X149575000Y-122993053D01*
X149585613Y-123081443D01*
X149641079Y-123222095D01*
X149732435Y-123342564D01*
X149852904Y-123433920D01*
X149993556Y-123489386D01*
X150081946Y-123500000D01*
X150150000Y-123500000D01*
X150750000Y-123500000D01*
X150818054Y-123500000D01*
X150906443Y-123489386D01*
X151047095Y-123433920D01*
X151167564Y-123342564D01*
X151258920Y-123222095D01*
X151314386Y-123081443D01*
X151325000Y-122993053D01*
X151325000Y-122800000D01*
X150750000Y-122800000D01*
X150750000Y-123500000D01*
X150150000Y-123500000D01*
X150150000Y-122800000D01*
X149575000Y-122800000D01*
X149575000Y-122993053D01*
X139893570Y-122993053D01*
X139902380Y-122980771D01*
X139917144Y-122974508D01*
X139927585Y-122965526D01*
X139949433Y-122960813D01*
X139961485Y-122955702D01*
X139970052Y-122954501D01*
X140059836Y-122954501D01*
X140151002Y-122930072D01*
X140158352Y-122928102D01*
X140158357Y-122928102D01*
X140166975Y-122925792D01*
X140175431Y-122923527D01*
X140279070Y-122863691D01*
X140363691Y-122779070D01*
X140363691Y-122779068D01*
X140373893Y-122768867D01*
X140373897Y-122768862D01*
X140426943Y-122715817D01*
X140488267Y-122682333D01*
X140514623Y-122679500D01*
X140769558Y-122679500D01*
X140836597Y-122699185D01*
X140869328Y-122729867D01*
X140949288Y-122838210D01*
X140949289Y-122838211D01*
X141055523Y-122916615D01*
X141055524Y-122916615D01*
X141055525Y-122916616D01*
X141180151Y-122960225D01*
X141180150Y-122960225D01*
X141209740Y-122963000D01*
X141209744Y-122963000D01*
X141790260Y-122963000D01*
X141819849Y-122960225D01*
X141836210Y-122954500D01*
X141944475Y-122916616D01*
X142050711Y-122838211D01*
X142129116Y-122731975D01*
X142129115Y-122731975D01*
X142130672Y-122729867D01*
X142186319Y-122687616D01*
X142230442Y-122679500D01*
X145457552Y-122679500D01*
X145457568Y-122679501D01*
X145465164Y-122679501D01*
X145584835Y-122679501D01*
X145584836Y-122679501D01*
X145676002Y-122655072D01*
X145700431Y-122648527D01*
X145804070Y-122588691D01*
X145888691Y-122504070D01*
X145888691Y-122504068D01*
X145898895Y-122493865D01*
X145898898Y-122493860D01*
X146385812Y-122006946D01*
X149575000Y-122006946D01*
X149575000Y-122200000D01*
X150150000Y-122200000D01*
X150750000Y-122200000D01*
X151325000Y-122200000D01*
X151325000Y-122006946D01*
X151314386Y-121918556D01*
X151258920Y-121777904D01*
X151167564Y-121657435D01*
X151047095Y-121566079D01*
X150906443Y-121510613D01*
X150818054Y-121500000D01*
X150750000Y-121500000D01*
X150750000Y-122200000D01*
X150150000Y-122200000D01*
X150150000Y-121500000D01*
X150081946Y-121500000D01*
X149993556Y-121510613D01*
X149852904Y-121566079D01*
X149732435Y-121657435D01*
X149641079Y-121777904D01*
X149585613Y-121918556D01*
X149575000Y-122006946D01*
X146385812Y-122006946D01*
X147901941Y-120490819D01*
X147963264Y-120457334D01*
X147989622Y-120454500D01*
X149270500Y-120454500D01*
X149337539Y-120474185D01*
X149383294Y-120526989D01*
X149394500Y-120578500D01*
X149394500Y-120648638D01*
X149395678Y-120670618D01*
X149398511Y-120696965D01*
X149398512Y-120696967D01*
X149422470Y-120773478D01*
X149422471Y-120773483D01*
X149436872Y-120799855D01*
X149455956Y-120834805D01*
X149455958Y-120834808D01*
X149455960Y-120834811D01*
X149490998Y-120881615D01*
X149491002Y-120881619D01*
X149491009Y-120881629D01*
X149491013Y-120881633D01*
X149491016Y-120881636D01*
X149718365Y-121108986D01*
X149718366Y-121108987D01*
X149734716Y-121123674D01*
X149734730Y-121123686D01*
X149734738Y-121123693D01*
X149743136Y-121130460D01*
X149755379Y-121140327D01*
X149826424Y-121177490D01*
X149893456Y-121197173D01*
X149893458Y-121197173D01*
X149893464Y-121197175D01*
X149951362Y-121205500D01*
X149951366Y-121205500D01*
X151048639Y-121205500D01*
X151051180Y-121205363D01*
X151070607Y-121204322D01*
X151070614Y-121204321D01*
X151070618Y-121204321D01*
X151096965Y-121201488D01*
X151173482Y-121177529D01*
X151234805Y-121144044D01*
X151281629Y-121108991D01*
X151508991Y-120881629D01*
X151523693Y-120865262D01*
X151540327Y-120844620D01*
X151577490Y-120773575D01*
X151578656Y-120769603D01*
X151616427Y-120710824D01*
X151679981Y-120681795D01*
X151749140Y-120691735D01*
X151797404Y-120730897D01*
X151827850Y-120772150D01*
X151937118Y-120852793D01*
X152064057Y-120897210D01*
X152120831Y-120937931D01*
X152146578Y-121002884D01*
X152147100Y-121014251D01*
X152147100Y-121494496D01*
X152127415Y-121561535D01*
X152074611Y-121607290D01*
X152064055Y-121611537D01*
X151962119Y-121647206D01*
X151962117Y-121647207D01*
X151852850Y-121727850D01*
X151772207Y-121837117D01*
X151772206Y-121837119D01*
X151727353Y-121965298D01*
X151727353Y-121965300D01*
X151724500Y-121995730D01*
X151724500Y-123004269D01*
X151727353Y-123034699D01*
X151727353Y-123034701D01*
X151772206Y-123162880D01*
X151772207Y-123162882D01*
X151852850Y-123272150D01*
X151962118Y-123352793D01*
X152004845Y-123367744D01*
X152090299Y-123397646D01*
X152120730Y-123400500D01*
X152120734Y-123400500D01*
X152879270Y-123400500D01*
X152909699Y-123397646D01*
X152909701Y-123397646D01*
X152973790Y-123375219D01*
X153037882Y-123352793D01*
X153147150Y-123272150D01*
X153227793Y-123162882D01*
X153256290Y-123081443D01*
X153272646Y-123034701D01*
X153272646Y-123034699D01*
X153275500Y-123004269D01*
X153275500Y-121995730D01*
X153272646Y-121965300D01*
X153272646Y-121965298D01*
X153235772Y-121859921D01*
X153227793Y-121837118D01*
X153147150Y-121727850D01*
X153037882Y-121647207D01*
X153037880Y-121647206D01*
X152935945Y-121611537D01*
X152879169Y-121570815D01*
X152853422Y-121505862D01*
X152852900Y-121494496D01*
X152852900Y-121014251D01*
X152872585Y-120947212D01*
X152925389Y-120901457D01*
X152935925Y-120897216D01*
X153062882Y-120852793D01*
X153172150Y-120772150D01*
X153252793Y-120662882D01*
X153275219Y-120598790D01*
X153297646Y-120534701D01*
X153297646Y-120534699D01*
X153300500Y-120504269D01*
X153300500Y-119495730D01*
X153297646Y-119465300D01*
X153297646Y-119465298D01*
X153252793Y-119337119D01*
X153252792Y-119337117D01*
X153205939Y-119273633D01*
X153172150Y-119227850D01*
X153062882Y-119147207D01*
X153062880Y-119147206D01*
X152934700Y-119102353D01*
X152904270Y-119099500D01*
X152904266Y-119099500D01*
X152095734Y-119099500D01*
X152095730Y-119099500D01*
X152065300Y-119102353D01*
X152065298Y-119102353D01*
X151937119Y-119147206D01*
X151937117Y-119147207D01*
X151827848Y-119227851D01*
X151821279Y-119234421D01*
X151819899Y-119233041D01*
X151773617Y-119268179D01*
X151703960Y-119273633D01*
X151642413Y-119240563D01*
X151608514Y-119179467D01*
X151605500Y-119152292D01*
X151605500Y-118247844D01*
X152700000Y-118247844D01*
X152706401Y-118307372D01*
X152706403Y-118307379D01*
X152756645Y-118442086D01*
X152756649Y-118442093D01*
X152842809Y-118557187D01*
X152842812Y-118557190D01*
X152957906Y-118643350D01*
X152957913Y-118643354D01*
X153092620Y-118693596D01*
X153092627Y-118693598D01*
X153152155Y-118699999D01*
X153152172Y-118700000D01*
X153750000Y-118700000D01*
X154250000Y-118700000D01*
X154847828Y-118700000D01*
X154847844Y-118699999D01*
X154907372Y-118693598D01*
X154907379Y-118693596D01*
X155042086Y-118643354D01*
X155042093Y-118643350D01*
X155157187Y-118557190D01*
X155157190Y-118557187D01*
X155243350Y-118442093D01*
X155243354Y-118442086D01*
X155293596Y-118307379D01*
X155293598Y-118307372D01*
X155299999Y-118247844D01*
X155300000Y-118247827D01*
X155300000Y-116950000D01*
X154250000Y-116950000D01*
X154250000Y-118700000D01*
X153750000Y-118700000D01*
X153750000Y-116950000D01*
X152700000Y-116950000D01*
X152700000Y-118247844D01*
X151605500Y-118247844D01*
X151605500Y-115643963D01*
X151625185Y-115576924D01*
X151645250Y-115552979D01*
X152674949Y-114599556D01*
X152686874Y-114588514D01*
X152749439Y-114557410D01*
X152771121Y-114555500D01*
X152854052Y-114555500D01*
X152921091Y-114575185D01*
X152966846Y-114627989D01*
X152976790Y-114697147D01*
X152947765Y-114760703D01*
X152928363Y-114778766D01*
X152842812Y-114842809D01*
X152842809Y-114842812D01*
X152756649Y-114957906D01*
X152756645Y-114957913D01*
X152706403Y-115092620D01*
X152706401Y-115092627D01*
X152700000Y-115152155D01*
X152700000Y-116450000D01*
X155300000Y-116450000D01*
X155300000Y-115152172D01*
X155299999Y-115152155D01*
X155293598Y-115092627D01*
X155293596Y-115092620D01*
X155243354Y-114957913D01*
X155243350Y-114957906D01*
X155157190Y-114842812D01*
X155157187Y-114842809D01*
X155071637Y-114778766D01*
X155029766Y-114722832D01*
X155024782Y-114653141D01*
X155058268Y-114591818D01*
X155119591Y-114558334D01*
X155145948Y-114555500D01*
X155348639Y-114555500D01*
X155351180Y-114555363D01*
X155370607Y-114554322D01*
X155370614Y-114554321D01*
X155370618Y-114554321D01*
X155396965Y-114551488D01*
X155473482Y-114527529D01*
X155534805Y-114494044D01*
X155581629Y-114458991D01*
X156020621Y-114019999D01*
X157949252Y-114019999D01*
X157949252Y-114020000D01*
X158706104Y-114020000D01*
X158629804Y-114040444D01*
X158561395Y-114079940D01*
X158505540Y-114135795D01*
X158466044Y-114204204D01*
X158445600Y-114280504D01*
X158445600Y-114359496D01*
X158466044Y-114435796D01*
X158505540Y-114504205D01*
X158561395Y-114560060D01*
X158629804Y-114599556D01*
X158706104Y-114620000D01*
X157949252Y-114620000D01*
X157990994Y-114720776D01*
X157990999Y-114720785D01*
X158083590Y-114859356D01*
X158083593Y-114859360D01*
X158201439Y-114977206D01*
X158201443Y-114977209D01*
X158340014Y-115069800D01*
X158340023Y-115069805D01*
X158494001Y-115133584D01*
X158494009Y-115133586D01*
X158657461Y-115166099D01*
X158657464Y-115166100D01*
X158745600Y-115166100D01*
X158745600Y-114620000D01*
X159345600Y-114620000D01*
X159345600Y-115166100D01*
X159433736Y-115166100D01*
X159433738Y-115166099D01*
X159597190Y-115133586D01*
X159597198Y-115133584D01*
X159751176Y-115069805D01*
X159751185Y-115069800D01*
X159889756Y-114977209D01*
X159889760Y-114977206D01*
X160007606Y-114859360D01*
X160007609Y-114859356D01*
X160100200Y-114720785D01*
X160100205Y-114720776D01*
X160141948Y-114620000D01*
X159385096Y-114620000D01*
X159461396Y-114599556D01*
X159529805Y-114560060D01*
X159585660Y-114504205D01*
X159625156Y-114435796D01*
X159645600Y-114359496D01*
X159645600Y-114280504D01*
X159625156Y-114204204D01*
X159585660Y-114135795D01*
X159529805Y-114079940D01*
X159461396Y-114040444D01*
X159385096Y-114020000D01*
X160141948Y-114020000D01*
X160141947Y-114019999D01*
X161749251Y-114019999D01*
X161749251Y-114020000D01*
X162506103Y-114020000D01*
X162429803Y-114040444D01*
X162361394Y-114079940D01*
X162305539Y-114135795D01*
X162266043Y-114204204D01*
X162245599Y-114280504D01*
X162245599Y-114359496D01*
X162266043Y-114435796D01*
X162305539Y-114504205D01*
X162361394Y-114560060D01*
X162429803Y-114599556D01*
X162506103Y-114620000D01*
X161749251Y-114620000D01*
X161790993Y-114720776D01*
X161790998Y-114720785D01*
X161883589Y-114859356D01*
X161883592Y-114859360D01*
X162001438Y-114977206D01*
X162001442Y-114977209D01*
X162140013Y-115069800D01*
X162140022Y-115069805D01*
X162294000Y-115133584D01*
X162294008Y-115133586D01*
X162457460Y-115166099D01*
X162457463Y-115166100D01*
X162545599Y-115166100D01*
X162545599Y-114620000D01*
X163145599Y-114620000D01*
X163145599Y-115166100D01*
X163233735Y-115166100D01*
X163233737Y-115166099D01*
X163397189Y-115133586D01*
X163397197Y-115133584D01*
X163551175Y-115069805D01*
X163551184Y-115069800D01*
X163689755Y-114977209D01*
X163689759Y-114977206D01*
X163807605Y-114859360D01*
X163807608Y-114859356D01*
X163900199Y-114720785D01*
X163900204Y-114720776D01*
X163941947Y-114620000D01*
X163185095Y-114620000D01*
X163261395Y-114599556D01*
X163329804Y-114560060D01*
X163385659Y-114504205D01*
X163425155Y-114435796D01*
X163445599Y-114359496D01*
X163445599Y-114280504D01*
X163425155Y-114204204D01*
X163385659Y-114135795D01*
X163329804Y-114079940D01*
X163261395Y-114040444D01*
X163185095Y-114020000D01*
X163941947Y-114020000D01*
X163941946Y-114019999D01*
X163900204Y-113919223D01*
X163900199Y-113919214D01*
X163807608Y-113780643D01*
X163807605Y-113780639D01*
X163689759Y-113662793D01*
X163689755Y-113662790D01*
X163551184Y-113570199D01*
X163551175Y-113570194D01*
X163397197Y-113506415D01*
X163397189Y-113506413D01*
X163233736Y-113473900D01*
X163145599Y-113473900D01*
X163145599Y-114020000D01*
X162545599Y-114020000D01*
X162545599Y-113473900D01*
X162457462Y-113473900D01*
X162294008Y-113506413D01*
X162294000Y-113506415D01*
X162140022Y-113570194D01*
X162140013Y-113570199D01*
X162001442Y-113662790D01*
X162001438Y-113662793D01*
X161883592Y-113780639D01*
X161883589Y-113780643D01*
X161790998Y-113919214D01*
X161790993Y-113919223D01*
X161749251Y-114019999D01*
X160141947Y-114019999D01*
X160100205Y-113919223D01*
X160100200Y-113919214D01*
X160007609Y-113780643D01*
X160007606Y-113780639D01*
X159889760Y-113662793D01*
X159889756Y-113662790D01*
X159770011Y-113582778D01*
X159725206Y-113529165D01*
X159716499Y-113459840D01*
X159746654Y-113396813D01*
X159751221Y-113391994D01*
X159814404Y-113328811D01*
X159814404Y-113328810D01*
X159859705Y-113226213D01*
X159859705Y-113226211D01*
X159862615Y-113201130D01*
X159862616Y-113201127D01*
X159862616Y-113049936D01*
X159265716Y-113049936D01*
X159265716Y-113343900D01*
X159284054Y-113362238D01*
X159288639Y-113363585D01*
X159334394Y-113416389D01*
X159345600Y-113467900D01*
X159345600Y-114020000D01*
X158745600Y-114020000D01*
X158745600Y-113586336D01*
X158727261Y-113567997D01*
X158722677Y-113566651D01*
X158676922Y-113513847D01*
X158665716Y-113462336D01*
X158665716Y-113049936D01*
X158068817Y-113049936D01*
X158068817Y-113201121D01*
X158068818Y-113201144D01*
X158071724Y-113226205D01*
X158071725Y-113226209D01*
X158117027Y-113328810D01*
X158117030Y-113328815D01*
X158196336Y-113408121D01*
X158196339Y-113408123D01*
X158222449Y-113419652D01*
X158275825Y-113464738D01*
X158296353Y-113531524D01*
X158277515Y-113598806D01*
X158241255Y-113636188D01*
X158201445Y-113662788D01*
X158201439Y-113662793D01*
X158083593Y-113780639D01*
X158083590Y-113780643D01*
X157990999Y-113919214D01*
X157990994Y-113919223D01*
X157949252Y-114019999D01*
X156020621Y-114019999D01*
X156711805Y-113328815D01*
X157798800Y-112241819D01*
X157825727Y-112227115D01*
X157851546Y-112210523D01*
X157857746Y-112209631D01*
X157860123Y-112208334D01*
X157886481Y-112205500D01*
X157944816Y-112205500D01*
X158011855Y-112225185D01*
X158057610Y-112277989D01*
X158068816Y-112329500D01*
X158068816Y-112449936D01*
X159862615Y-112449936D01*
X159862615Y-112298750D01*
X159862613Y-112298727D01*
X159859707Y-112273666D01*
X159859706Y-112273662D01*
X159814404Y-112171061D01*
X159814401Y-112171056D01*
X159801096Y-112157751D01*
X159767611Y-112096428D01*
X159772595Y-112026736D01*
X159787710Y-112000196D01*
X159786985Y-111999721D01*
X159790325Y-111994622D01*
X159790327Y-111994620D01*
X159827490Y-111923575D01*
X159847175Y-111856536D01*
X159855500Y-111798638D01*
X159855500Y-111301362D01*
X159854322Y-111279393D01*
X159851488Y-111253035D01*
X159827529Y-111176518D01*
X159794044Y-111115195D01*
X159760047Y-111069781D01*
X159735629Y-111004317D01*
X159748357Y-110945801D01*
X159746693Y-110945112D01*
X159751367Y-110933828D01*
X159762998Y-110875351D01*
X159762999Y-110875349D01*
X159762999Y-110124648D01*
X159762998Y-110124646D01*
X159751367Y-110066169D01*
X159746693Y-110054886D01*
X159748559Y-110054112D01*
X159732307Y-110002222D01*
X159747839Y-109945588D01*
X159746693Y-109945114D01*
X159750470Y-109935994D01*
X159750787Y-109934841D01*
X159751241Y-109934134D01*
X159751367Y-109933830D01*
X159762998Y-109875353D01*
X159762999Y-109875351D01*
X159762999Y-109124650D01*
X159762998Y-109124648D01*
X159751367Y-109066171D01*
X159746693Y-109054888D01*
X159750157Y-109053452D01*
X159735706Y-109007306D01*
X159754188Y-108939925D01*
X159767440Y-108922222D01*
X159773693Y-108915262D01*
X159790327Y-108894620D01*
X159827490Y-108823575D01*
X159847175Y-108756536D01*
X159855500Y-108698638D01*
X159855500Y-108201362D01*
X159854322Y-108179393D01*
X159851488Y-108153035D01*
X159850837Y-108146979D01*
X159852212Y-108146831D01*
X159857258Y-108084167D01*
X159898738Y-108029271D01*
X159919687Y-108013588D01*
X159919689Y-108013586D01*
X160005851Y-107898488D01*
X160005853Y-107898486D01*
X160056095Y-107763779D01*
X160056097Y-107763772D01*
X160062498Y-107704244D01*
X160062499Y-107704227D01*
X160062499Y-107500000D01*
X157868699Y-107500000D01*
X157868699Y-107670500D01*
X157866148Y-107679185D01*
X157867437Y-107688147D01*
X157856458Y-107712187D01*
X157849014Y-107737539D01*
X157842173Y-107743466D01*
X157838412Y-107751703D01*
X157816177Y-107765992D01*
X157796210Y-107783294D01*
X157785695Y-107785581D01*
X157779634Y-107789477D01*
X157744699Y-107794500D01*
X157636482Y-107794500D01*
X157569443Y-107774815D01*
X157548801Y-107758181D01*
X156931634Y-107141013D01*
X156931633Y-107141012D01*
X156915283Y-107126325D01*
X156915269Y-107126313D01*
X156894620Y-107109672D01*
X156823575Y-107072509D01*
X156756537Y-107052825D01*
X156712761Y-107046530D01*
X156649206Y-107017504D01*
X156611433Y-106958725D01*
X156611435Y-106888856D01*
X156649210Y-106830078D01*
X156664805Y-106818570D01*
X156701397Y-106795755D01*
X157868699Y-106795755D01*
X157868699Y-107000000D01*
X158715599Y-107000000D01*
X158715599Y-106294963D01*
X158735284Y-106227924D01*
X158745600Y-106215122D01*
X158745600Y-105980000D01*
X159345600Y-105980000D01*
X159345600Y-106532100D01*
X159341973Y-106544449D01*
X159343017Y-106557277D01*
X159332318Y-106577332D01*
X159325915Y-106599139D01*
X159316189Y-106607566D01*
X159310131Y-106618923D01*
X159282084Y-106640348D01*
X159215599Y-106677496D01*
X159215599Y-107000000D01*
X160062499Y-107000000D01*
X160062499Y-106795772D01*
X160062498Y-106795755D01*
X160056097Y-106736227D01*
X160056095Y-106736220D01*
X160005853Y-106601513D01*
X160005849Y-106601506D01*
X159919689Y-106486412D01*
X159917803Y-106484526D01*
X159916524Y-106482184D01*
X159914374Y-106479312D01*
X159914787Y-106479002D01*
X159884318Y-106423203D01*
X159889302Y-106353511D01*
X159917803Y-106309164D01*
X160007606Y-106219360D01*
X160007609Y-106219356D01*
X160100200Y-106080785D01*
X160100205Y-106080776D01*
X160141948Y-105980000D01*
X159385096Y-105980000D01*
X159461396Y-105959556D01*
X159529805Y-105920060D01*
X159585660Y-105864205D01*
X159625156Y-105795796D01*
X159645600Y-105719496D01*
X159645600Y-105640504D01*
X159625156Y-105564204D01*
X159585660Y-105495795D01*
X159529805Y-105439940D01*
X159461396Y-105400444D01*
X159385096Y-105380000D01*
X160141948Y-105380000D01*
X160141947Y-105379999D01*
X161749251Y-105379999D01*
X161749251Y-105380000D01*
X162506103Y-105380000D01*
X162429803Y-105400444D01*
X162361394Y-105439940D01*
X162305539Y-105495795D01*
X162266043Y-105564204D01*
X162245599Y-105640504D01*
X162245599Y-105719496D01*
X162266043Y-105795796D01*
X162305539Y-105864205D01*
X162361394Y-105920060D01*
X162429803Y-105959556D01*
X162506103Y-105980000D01*
X161749251Y-105980000D01*
X161790993Y-106080776D01*
X161790998Y-106080785D01*
X161883589Y-106219356D01*
X161883592Y-106219360D01*
X162001438Y-106337206D01*
X162001442Y-106337209D01*
X162140013Y-106429800D01*
X162140022Y-106429805D01*
X162294000Y-106493584D01*
X162294008Y-106493586D01*
X162457460Y-106526099D01*
X162457463Y-106526100D01*
X162545599Y-106526100D01*
X162545599Y-105980000D01*
X163145599Y-105980000D01*
X163145599Y-106526100D01*
X163233735Y-106526100D01*
X163233737Y-106526099D01*
X163397189Y-106493586D01*
X163397197Y-106493584D01*
X163551175Y-106429805D01*
X163551184Y-106429800D01*
X163689755Y-106337209D01*
X163689759Y-106337206D01*
X163807605Y-106219360D01*
X163807608Y-106219356D01*
X163900199Y-106080785D01*
X163900204Y-106080776D01*
X163941947Y-105980000D01*
X163185095Y-105980000D01*
X163261395Y-105959556D01*
X163329804Y-105920060D01*
X163385659Y-105864205D01*
X163425155Y-105795796D01*
X163445599Y-105719496D01*
X163445599Y-105640504D01*
X163425155Y-105564204D01*
X163385659Y-105495795D01*
X163329804Y-105439940D01*
X163261395Y-105400444D01*
X163185095Y-105380000D01*
X163941947Y-105380000D01*
X163941946Y-105379999D01*
X163900204Y-105279223D01*
X163900199Y-105279214D01*
X163807608Y-105140643D01*
X163807605Y-105140639D01*
X163689759Y-105022793D01*
X163689755Y-105022790D01*
X163551184Y-104930199D01*
X163551175Y-104930194D01*
X163397197Y-104866415D01*
X163397189Y-104866413D01*
X163233736Y-104833900D01*
X163145599Y-104833900D01*
X163145599Y-105380000D01*
X162545599Y-105380000D01*
X162545599Y-104833900D01*
X162457462Y-104833900D01*
X162294008Y-104866413D01*
X162294000Y-104866415D01*
X162140022Y-104930194D01*
X162140013Y-104930199D01*
X162001442Y-105022790D01*
X162001438Y-105022793D01*
X161883592Y-105140639D01*
X161883589Y-105140643D01*
X161790998Y-105279214D01*
X161790993Y-105279223D01*
X161749251Y-105379999D01*
X160141947Y-105379999D01*
X160100205Y-105279223D01*
X160100200Y-105279214D01*
X160007609Y-105140643D01*
X160007606Y-105140639D01*
X159889760Y-105022793D01*
X159889756Y-105022790D01*
X159751185Y-104930199D01*
X159751176Y-104930194D01*
X159597198Y-104866415D01*
X159597190Y-104866413D01*
X159433737Y-104833900D01*
X159345600Y-104833900D01*
X159345600Y-105380000D01*
X158745600Y-105380000D01*
X158745600Y-104833900D01*
X158657463Y-104833900D01*
X158494009Y-104866413D01*
X158494001Y-104866415D01*
X158340023Y-104930194D01*
X158340014Y-104930199D01*
X158201443Y-105022790D01*
X158201439Y-105022793D01*
X158083593Y-105140639D01*
X158083590Y-105140643D01*
X157990999Y-105279214D01*
X157990994Y-105279223D01*
X157949252Y-105379999D01*
X157949252Y-105380000D01*
X158706104Y-105380000D01*
X158629804Y-105400444D01*
X158561395Y-105439940D01*
X158505540Y-105495795D01*
X158466044Y-105564204D01*
X158445600Y-105640504D01*
X158445600Y-105719496D01*
X158466044Y-105795796D01*
X158505540Y-105864205D01*
X158561395Y-105920060D01*
X158629804Y-105959556D01*
X158706104Y-105980000D01*
X157949252Y-105980000D01*
X157990994Y-106080776D01*
X157990999Y-106080785D01*
X158083590Y-106219356D01*
X158083593Y-106219360D01*
X158104267Y-106240034D01*
X158137752Y-106301357D01*
X158132768Y-106371049D01*
X158090897Y-106426981D01*
X158011511Y-106486409D01*
X158011508Y-106486412D01*
X157925348Y-106601506D01*
X157925344Y-106601513D01*
X157875102Y-106736220D01*
X157875100Y-106736227D01*
X157868699Y-106795755D01*
X156701397Y-106795755D01*
X156868162Y-106691776D01*
X156958920Y-106572095D01*
X157014386Y-106431443D01*
X157025000Y-106343053D01*
X157025000Y-106262500D01*
X154975000Y-106262500D01*
X154975000Y-106343053D01*
X154985613Y-106431443D01*
X155041079Y-106572095D01*
X155132435Y-106692564D01*
X155252904Y-106783920D01*
X155306727Y-106805145D01*
X155361871Y-106848051D01*
X155385064Y-106913959D01*
X155368944Y-106981943D01*
X155318627Y-107030420D01*
X155261237Y-107044500D01*
X154886482Y-107044500D01*
X154819443Y-107024815D01*
X154798801Y-107008181D01*
X154741819Y-106951199D01*
X154708334Y-106889876D01*
X154705500Y-106863518D01*
X154705500Y-105581946D01*
X154975000Y-105581946D01*
X154975000Y-105662500D01*
X155700000Y-105662500D01*
X156300000Y-105662500D01*
X157025000Y-105662500D01*
X157025000Y-105581946D01*
X157014385Y-105493555D01*
X156992979Y-105439270D01*
X156992978Y-105439268D01*
X156958922Y-105352908D01*
X156958921Y-105352906D01*
X156867564Y-105232435D01*
X156747095Y-105141079D01*
X156606443Y-105085613D01*
X156518054Y-105075000D01*
X156300000Y-105075000D01*
X156300000Y-105662500D01*
X155700000Y-105662500D01*
X155700000Y-105075000D01*
X155481946Y-105075000D01*
X155393556Y-105085613D01*
X155252904Y-105141079D01*
X155132435Y-105232435D01*
X155041079Y-105352904D01*
X154985613Y-105493556D01*
X154975000Y-105581946D01*
X154705500Y-105581946D01*
X154705500Y-102551361D01*
X154704321Y-102529381D01*
X154701488Y-102503034D01*
X154701487Y-102503032D01*
X154694358Y-102480264D01*
X154677529Y-102426518D01*
X154644044Y-102365195D01*
X154608991Y-102318371D01*
X150741819Y-98451199D01*
X150708334Y-98389876D01*
X150705500Y-98363518D01*
X150705500Y-95551361D01*
X150704321Y-95529381D01*
X150701488Y-95503034D01*
X150701487Y-95503032D01*
X150697792Y-95491232D01*
X150677529Y-95426518D01*
X150644044Y-95365195D01*
X150644039Y-95365188D01*
X150609001Y-95318384D01*
X150608997Y-95318379D01*
X150608991Y-95318371D01*
X150481629Y-95191009D01*
X150481628Y-95191008D01*
X150481624Y-95191004D01*
X150465283Y-95176325D01*
X150465269Y-95176313D01*
X150444620Y-95159672D01*
X150373575Y-95122509D01*
X150306543Y-95102826D01*
X150305894Y-95102732D01*
X150248638Y-95094500D01*
X144751362Y-95094500D01*
X144751361Y-95094500D01*
X144729381Y-95095678D01*
X144703034Y-95098511D01*
X144703032Y-95098512D01*
X144626521Y-95122470D01*
X144626516Y-95122471D01*
X144565188Y-95155960D01*
X144518384Y-95190998D01*
X144518370Y-95191010D01*
X144391000Y-95318379D01*
X144380837Y-95329692D01*
X144380791Y-95329745D01*
X144376307Y-95334738D01*
X144371578Y-95340606D01*
X144371547Y-95340643D01*
X144359670Y-95355383D01*
X144356332Y-95360476D01*
X144356100Y-95360324D01*
X144351355Y-95367848D01*
X144350646Y-95368795D01*
X144350641Y-95368803D01*
X144338258Y-95395919D01*
X144336873Y-95398951D01*
X144322525Y-95426375D01*
X144321762Y-95428971D01*
X144322999Y-95429334D01*
X144315549Y-95445652D01*
X144315550Y-95445652D01*
X144314367Y-95448242D01*
X144314367Y-95448243D01*
X144310376Y-95466583D01*
X144308311Y-95474733D01*
X144307416Y-95477821D01*
X144307393Y-95477856D01*
X144307317Y-95478114D01*
X144307297Y-95478226D01*
X144302823Y-95493466D01*
X144302823Y-95493467D01*
X144294500Y-95551359D01*
X144294500Y-99048638D01*
X144295678Y-99070618D01*
X144298511Y-99096965D01*
X144298512Y-99096967D01*
X144322470Y-99173478D01*
X144322471Y-99173483D01*
X144336872Y-99199855D01*
X144355956Y-99234805D01*
X144355958Y-99234808D01*
X144355960Y-99234811D01*
X144390998Y-99281615D01*
X144391002Y-99281619D01*
X144391009Y-99281629D01*
X144391016Y-99281636D01*
X144568365Y-99458986D01*
X144568366Y-99458987D01*
X144584716Y-99473674D01*
X144584730Y-99473686D01*
X144584738Y-99473693D01*
X144593136Y-99480460D01*
X144605379Y-99490327D01*
X144676424Y-99527490D01*
X144743456Y-99547173D01*
X144743458Y-99547173D01*
X144743464Y-99547175D01*
X144801362Y-99555500D01*
X147213518Y-99555500D01*
X147280557Y-99575185D01*
X147301199Y-99591819D01*
X151758181Y-104048801D01*
X151791666Y-104110124D01*
X151794500Y-104136482D01*
X151794500Y-112613517D01*
X151785855Y-112642957D01*
X151779332Y-112672944D01*
X151775577Y-112677959D01*
X151774815Y-112680556D01*
X151758181Y-112701198D01*
X151681390Y-112777989D01*
X151606156Y-112853223D01*
X151605119Y-112854248D01*
X149968629Y-114452681D01*
X149523834Y-114887133D01*
X149493751Y-114916516D01*
X149478097Y-114933638D01*
X149460428Y-114955304D01*
X149460427Y-114955306D01*
X149422513Y-115027274D01*
X149422510Y-115027281D01*
X149402826Y-115094315D01*
X149402825Y-115094320D01*
X149402825Y-115094321D01*
X149394510Y-115152155D01*
X149394500Y-115152222D01*
X149394500Y-119421500D01*
X149374815Y-119488539D01*
X149322011Y-119534294D01*
X149270500Y-119545500D01*
X147817448Y-119545500D01*
X147817432Y-119545499D01*
X147809836Y-119545499D01*
X147690164Y-119545499D01*
X147598997Y-119569927D01*
X147589518Y-119572466D01*
X147574570Y-119576472D01*
X147574565Y-119576474D01*
X147470933Y-119636306D01*
X147470927Y-119636311D01*
X147427424Y-119679815D01*
X147386309Y-119720930D01*
X147386307Y-119720932D01*
X146376342Y-120730898D01*
X145373059Y-121734181D01*
X145311736Y-121767666D01*
X145285378Y-121770500D01*
X142230442Y-121770500D01*
X142163403Y-121750815D01*
X142130672Y-121720133D01*
X142050711Y-121611789D01*
X142050710Y-121611788D01*
X141944476Y-121533384D01*
X141819848Y-121489774D01*
X141819849Y-121489774D01*
X141790260Y-121487000D01*
X141790256Y-121487000D01*
X141209744Y-121487000D01*
X141209740Y-121487000D01*
X141180150Y-121489774D01*
X141055523Y-121533384D01*
X140949289Y-121611788D01*
X140949288Y-121611789D01*
X140869328Y-121720133D01*
X140813681Y-121762384D01*
X140769558Y-121770500D01*
X140342448Y-121770500D01*
X140342432Y-121770499D01*
X140334836Y-121770499D01*
X140215164Y-121770499D01*
X140139249Y-121790840D01*
X140139248Y-121790840D01*
X140123997Y-121794927D01*
X140099569Y-121801473D01*
X139995930Y-121861309D01*
X139971348Y-121885890D01*
X139956677Y-121894196D01*
X139938409Y-121898463D01*
X139921944Y-121907454D01*
X139905090Y-121906248D01*
X139888639Y-121910092D01*
X139870965Y-121903806D01*
X139852252Y-121902468D01*
X139838725Y-121892341D01*
X139822809Y-121886681D01*
X139811339Y-121871838D01*
X139796320Y-121860595D01*
X139795819Y-121859921D01*
X139790132Y-121852215D01*
X139772150Y-121827850D01*
X139662882Y-121747207D01*
X139662880Y-121747206D01*
X139534700Y-121702353D01*
X139504270Y-121699500D01*
X139504266Y-121699500D01*
X138495734Y-121699500D01*
X138495730Y-121699500D01*
X138465300Y-121702353D01*
X138465298Y-121702353D01*
X138337119Y-121747206D01*
X138337117Y-121747207D01*
X138227850Y-121827850D01*
X138147207Y-121937117D01*
X138147206Y-121937119D01*
X138102353Y-122065298D01*
X138102353Y-122065300D01*
X138099500Y-122095730D01*
X137523653Y-122095730D01*
X137514386Y-122018556D01*
X137458920Y-121877904D01*
X137367564Y-121757435D01*
X137247095Y-121666079D01*
X137106443Y-121610613D01*
X137018054Y-121600000D01*
X136825000Y-121600000D01*
X136825000Y-122200000D01*
X136225000Y-122200000D01*
X136225000Y-121600000D01*
X136031946Y-121600000D01*
X135943556Y-121610613D01*
X135802904Y-121666079D01*
X135682435Y-121757435D01*
X135591079Y-121877904D01*
X135535613Y-122018556D01*
X135525000Y-122106946D01*
X114617299Y-122106946D01*
X114597601Y-122065298D01*
X114538511Y-121940363D01*
X114533867Y-121929151D01*
X114414000Y-121594147D01*
X114410473Y-121582518D01*
X114391272Y-121505862D01*
X114324023Y-121237389D01*
X114321652Y-121225467D01*
X114318690Y-121205500D01*
X114269448Y-120873541D01*
X114268256Y-120861431D01*
X114267831Y-120852790D01*
X114255861Y-120609132D01*
X114250649Y-120503032D01*
X114250500Y-120496948D01*
X114250500Y-116671153D01*
X114849500Y-116671153D01*
X114849500Y-116828846D01*
X114880261Y-116983489D01*
X114880264Y-116983501D01*
X114940602Y-117129172D01*
X114940609Y-117129185D01*
X115028210Y-117260288D01*
X115028213Y-117260292D01*
X115139707Y-117371786D01*
X115139711Y-117371789D01*
X115270814Y-117459390D01*
X115270827Y-117459397D01*
X115360210Y-117496420D01*
X115416503Y-117519737D01*
X115571153Y-117550499D01*
X115571156Y-117550500D01*
X115571158Y-117550500D01*
X116928844Y-117550500D01*
X116928845Y-117550499D01*
X117083497Y-117519737D01*
X117220473Y-117463000D01*
X117229172Y-117459397D01*
X117229172Y-117459396D01*
X117229179Y-117459394D01*
X117360289Y-117371789D01*
X117471789Y-117260289D01*
X117559394Y-117129179D01*
X117568812Y-117106443D01*
X117582208Y-117074100D01*
X117619737Y-116983497D01*
X117650500Y-116828842D01*
X117650500Y-116671158D01*
X117650500Y-116671155D01*
X117650499Y-116671153D01*
X117637373Y-116605163D01*
X117619737Y-116516503D01*
X117592191Y-116450000D01*
X117559397Y-116370827D01*
X117559390Y-116370814D01*
X117471789Y-116239711D01*
X117471786Y-116239707D01*
X117360292Y-116128213D01*
X117360288Y-116128210D01*
X117229185Y-116040609D01*
X117229172Y-116040602D01*
X117083501Y-115980264D01*
X117083489Y-115980261D01*
X116928845Y-115949500D01*
X116928842Y-115949500D01*
X115571158Y-115949500D01*
X115571155Y-115949500D01*
X115416510Y-115980261D01*
X115416498Y-115980264D01*
X115270827Y-116040602D01*
X115270814Y-116040609D01*
X115139711Y-116128210D01*
X115139707Y-116128213D01*
X115028213Y-116239707D01*
X115028210Y-116239711D01*
X114940609Y-116370814D01*
X114940602Y-116370827D01*
X114880264Y-116516498D01*
X114880261Y-116516510D01*
X114849500Y-116671153D01*
X114250500Y-116671153D01*
X114250500Y-113458563D01*
X120092000Y-113458563D01*
X120092000Y-113741436D01*
X120092001Y-113741452D01*
X120128922Y-114021897D01*
X120128925Y-114021910D01*
X120202139Y-114295153D01*
X120310394Y-114556503D01*
X120310399Y-114556514D01*
X120437297Y-114776305D01*
X120437298Y-114776306D01*
X121031471Y-114182132D01*
X121095377Y-114307554D01*
X121220278Y-114479466D01*
X121370534Y-114629722D01*
X121542446Y-114754623D01*
X121667866Y-114818528D01*
X121073692Y-115412701D01*
X121073692Y-115412702D01*
X121293485Y-115539600D01*
X121293496Y-115539605D01*
X121554846Y-115647860D01*
X121828089Y-115721074D01*
X121828102Y-115721077D01*
X122108547Y-115757998D01*
X122108564Y-115758000D01*
X122391436Y-115758000D01*
X122391452Y-115757998D01*
X122671897Y-115721077D01*
X122671910Y-115721074D01*
X122945153Y-115647860D01*
X123206503Y-115539605D01*
X123206514Y-115539600D01*
X123426306Y-115412702D01*
X123426306Y-115412701D01*
X122832133Y-114818528D01*
X122957554Y-114754623D01*
X123129466Y-114629722D01*
X123279722Y-114479466D01*
X123404623Y-114307554D01*
X123468528Y-114182133D01*
X124062701Y-114776306D01*
X124062702Y-114776306D01*
X124189600Y-114556514D01*
X124189605Y-114556503D01*
X124297860Y-114295153D01*
X124371074Y-114021910D01*
X124371077Y-114021897D01*
X124407998Y-113741452D01*
X124408000Y-113741436D01*
X124408000Y-113458563D01*
X124407998Y-113458547D01*
X124371077Y-113178102D01*
X124371074Y-113178089D01*
X124297860Y-112904846D01*
X124189605Y-112643496D01*
X124189600Y-112643485D01*
X124062701Y-112423692D01*
X123468528Y-113017865D01*
X123404623Y-112892446D01*
X123279722Y-112720534D01*
X123129466Y-112570278D01*
X122957554Y-112445377D01*
X122832133Y-112381471D01*
X123426306Y-111787298D01*
X123426305Y-111787297D01*
X123206514Y-111660399D01*
X123206503Y-111660394D01*
X122945153Y-111552139D01*
X122671910Y-111478925D01*
X122671897Y-111478922D01*
X122391452Y-111442001D01*
X122391436Y-111442000D01*
X122108564Y-111442000D01*
X122108547Y-111442001D01*
X121828102Y-111478922D01*
X121828089Y-111478925D01*
X121554846Y-111552139D01*
X121293499Y-111660393D01*
X121293489Y-111660397D01*
X121073693Y-111787297D01*
X121667867Y-112381471D01*
X121542446Y-112445377D01*
X121370534Y-112570278D01*
X121220278Y-112720534D01*
X121095377Y-112892446D01*
X121031471Y-113017866D01*
X120437297Y-112423693D01*
X120310397Y-112643489D01*
X120310393Y-112643499D01*
X120202139Y-112904846D01*
X120128925Y-113178089D01*
X120128922Y-113178102D01*
X120092001Y-113458547D01*
X120092000Y-113458563D01*
X114250500Y-113458563D01*
X114250500Y-104920306D01*
X119294500Y-104920306D01*
X119294500Y-107829693D01*
X119294747Y-107839775D01*
X119294748Y-107839787D01*
X119295344Y-107851944D01*
X119296085Y-107861974D01*
X119313506Y-108038856D01*
X119313509Y-108038882D01*
X119316462Y-108058795D01*
X119316464Y-108058805D01*
X119321203Y-108082632D01*
X119321214Y-108082678D01*
X119326097Y-108102176D01*
X119326108Y-108102217D01*
X119375923Y-108266436D01*
X119382723Y-108285440D01*
X119392022Y-108307886D01*
X119392029Y-108307903D01*
X119400643Y-108326117D01*
X119400648Y-108326126D01*
X119481516Y-108477419D01*
X119481533Y-108477450D01*
X119491907Y-108494758D01*
X119491912Y-108494767D01*
X119505387Y-108514934D01*
X119505428Y-108514991D01*
X119517413Y-108531152D01*
X119517415Y-108531155D01*
X119630175Y-108668552D01*
X119636779Y-108676208D01*
X119644923Y-108685193D01*
X119651907Y-108692528D01*
X119807470Y-108848091D01*
X119814805Y-108855075D01*
X119823790Y-108863219D01*
X119831446Y-108869823D01*
X119968843Y-108982583D01*
X119968846Y-108982585D01*
X119985007Y-108994570D01*
X119985034Y-108994590D01*
X119985045Y-108994597D01*
X119985064Y-108994611D01*
X120005231Y-109008086D01*
X120005240Y-109008091D01*
X120005246Y-109008095D01*
X120022542Y-109018462D01*
X120022548Y-109018465D01*
X120022579Y-109018482D01*
X120173872Y-109099350D01*
X120173881Y-109099355D01*
X120192095Y-109107969D01*
X120192110Y-109107976D01*
X120214568Y-109117279D01*
X120233561Y-109124075D01*
X120397784Y-109173891D01*
X120397809Y-109173897D01*
X120397810Y-109173898D01*
X120405524Y-109175830D01*
X120417348Y-109178792D01*
X120441189Y-109183534D01*
X120456581Y-109185816D01*
X120461121Y-109186490D01*
X120461126Y-109186490D01*
X120461135Y-109186492D01*
X120596588Y-109199833D01*
X120638030Y-109203915D01*
X120648051Y-109204655D01*
X120648070Y-109204655D01*
X120648071Y-109204656D01*
X120660225Y-109205253D01*
X120670307Y-109205500D01*
X128613518Y-109205500D01*
X128680557Y-109225185D01*
X128701199Y-109241819D01*
X129758181Y-110298801D01*
X129791666Y-110360124D01*
X129794500Y-110386482D01*
X129794500Y-112669733D01*
X129774815Y-112736772D01*
X129770272Y-112743365D01*
X129747207Y-112774618D01*
X129702353Y-112902803D01*
X129699500Y-112933230D01*
X129699500Y-113941769D01*
X129702353Y-113972199D01*
X129702353Y-113972201D01*
X129738989Y-114076897D01*
X129747207Y-114100382D01*
X129827850Y-114209650D01*
X129937118Y-114290293D01*
X129972018Y-114302505D01*
X130039179Y-114326006D01*
X130056156Y-114333412D01*
X130065411Y-114338302D01*
X130075336Y-114345918D01*
X130097688Y-114360853D01*
X130125723Y-114377039D01*
X130149832Y-114388929D01*
X130202530Y-114410756D01*
X130207655Y-114413465D01*
X130228710Y-114433951D01*
X130251579Y-114452380D01*
X130253460Y-114458032D01*
X130257732Y-114462189D01*
X130264369Y-114490807D01*
X130273644Y-114518674D01*
X130272170Y-114524447D01*
X130273517Y-114530253D01*
X130263628Y-114557916D01*
X130256365Y-114586373D01*
X130252004Y-114590433D01*
X130249998Y-114596045D01*
X130226726Y-114613967D01*
X130205228Y-114633984D01*
X130198748Y-114635515D01*
X130194642Y-114638678D01*
X130180122Y-114639916D01*
X130149723Y-114647100D01*
X128976900Y-114647100D01*
X128909861Y-114627415D01*
X128864106Y-114574611D01*
X128852900Y-114523100D01*
X128852900Y-114451751D01*
X128872585Y-114384712D01*
X128925389Y-114338957D01*
X128935925Y-114334716D01*
X129062882Y-114290293D01*
X129172150Y-114209650D01*
X129252793Y-114100382D01*
X129278799Y-114026061D01*
X129297646Y-113972201D01*
X129297646Y-113972199D01*
X129300500Y-113941769D01*
X129300500Y-112933230D01*
X129297646Y-112902800D01*
X129297646Y-112902798D01*
X129260152Y-112795648D01*
X129252793Y-112774618D01*
X129172150Y-112665350D01*
X129062882Y-112584707D01*
X129062880Y-112584706D01*
X128934700Y-112539853D01*
X128904270Y-112537000D01*
X128904266Y-112537000D01*
X128095734Y-112537000D01*
X128095730Y-112537000D01*
X128065300Y-112539853D01*
X128065298Y-112539853D01*
X127937119Y-112584706D01*
X127937117Y-112584707D01*
X127827850Y-112665350D01*
X127747207Y-112774617D01*
X127747206Y-112774619D01*
X127702353Y-112902798D01*
X127702353Y-112902800D01*
X127699500Y-112933230D01*
X127699500Y-113941769D01*
X127702353Y-113972199D01*
X127702353Y-113972201D01*
X127738989Y-114076897D01*
X127747207Y-114100382D01*
X127827850Y-114209650D01*
X127937118Y-114290293D01*
X128064057Y-114334710D01*
X128120831Y-114375431D01*
X128146578Y-114440384D01*
X128147100Y-114451751D01*
X128147100Y-115548248D01*
X128127415Y-115615287D01*
X128074611Y-115661042D01*
X128064055Y-115665289D01*
X127937119Y-115709706D01*
X127937117Y-115709707D01*
X127827850Y-115790350D01*
X127747207Y-115899617D01*
X127747206Y-115899619D01*
X127702353Y-116027798D01*
X127702353Y-116027800D01*
X127699500Y-116058230D01*
X127699500Y-117066769D01*
X127702353Y-117097199D01*
X127702353Y-117097201D01*
X127747206Y-117225380D01*
X127747207Y-117225382D01*
X127827850Y-117334650D01*
X127937118Y-117415293D01*
X127979845Y-117430244D01*
X128065299Y-117460146D01*
X128095730Y-117463000D01*
X128095734Y-117463000D01*
X128904270Y-117463000D01*
X128934699Y-117460146D01*
X128934701Y-117460146D01*
X128998790Y-117437719D01*
X129062882Y-117415293D01*
X129172150Y-117334650D01*
X129252793Y-117225382D01*
X129286456Y-117129179D01*
X129297646Y-117097201D01*
X129297646Y-117097199D01*
X129300500Y-117066769D01*
X129300500Y-117055553D01*
X129600000Y-117055553D01*
X129610613Y-117143943D01*
X129666079Y-117284595D01*
X129757435Y-117405064D01*
X129877904Y-117496420D01*
X130018556Y-117551886D01*
X130106946Y-117562500D01*
X130200000Y-117562500D01*
X130800000Y-117562500D01*
X130893054Y-117562500D01*
X130981443Y-117551886D01*
X131122095Y-117496420D01*
X131242564Y-117405064D01*
X131333920Y-117284595D01*
X131389386Y-117143943D01*
X131400000Y-117055553D01*
X131400000Y-117018053D01*
X131800000Y-117018053D01*
X131810613Y-117106443D01*
X131866079Y-117247095D01*
X131957435Y-117367564D01*
X132077904Y-117458920D01*
X132218556Y-117514386D01*
X132306946Y-117525000D01*
X132700000Y-117525000D01*
X133300000Y-117525000D01*
X133693054Y-117525000D01*
X133781443Y-117514386D01*
X133922095Y-117458920D01*
X134042564Y-117367564D01*
X134133920Y-117247095D01*
X134189386Y-117106443D01*
X134200000Y-117018053D01*
X134200000Y-116862500D01*
X133300000Y-116862500D01*
X133300000Y-117525000D01*
X132700000Y-117525000D01*
X132700000Y-116862500D01*
X131800000Y-116862500D01*
X131800000Y-117018053D01*
X131400000Y-117018053D01*
X131400000Y-116862500D01*
X130800000Y-116862500D01*
X130800000Y-117562500D01*
X130200000Y-117562500D01*
X130200000Y-116862500D01*
X129600000Y-116862500D01*
X129600000Y-117055553D01*
X129300500Y-117055553D01*
X129300500Y-116058230D01*
X129297646Y-116027800D01*
X129297646Y-116027798D01*
X129252793Y-115899619D01*
X129252792Y-115899617D01*
X129228655Y-115866912D01*
X129172150Y-115790350D01*
X129062882Y-115709707D01*
X129062880Y-115709706D01*
X128935945Y-115665289D01*
X128916957Y-115651670D01*
X128895697Y-115641961D01*
X128889093Y-115631684D01*
X128879169Y-115624567D01*
X128870557Y-115602843D01*
X128857923Y-115583183D01*
X128855167Y-115564016D01*
X128853422Y-115559614D01*
X128852900Y-115548248D01*
X128852900Y-115476900D01*
X128872585Y-115409861D01*
X128925389Y-115364106D01*
X128976900Y-115352900D01*
X129924528Y-115352900D01*
X129991567Y-115372585D01*
X130037322Y-115425389D01*
X130047266Y-115494547D01*
X130018241Y-115558103D01*
X129970018Y-115592255D01*
X129877904Y-115628579D01*
X129757435Y-115719935D01*
X129666079Y-115840404D01*
X129610613Y-115981056D01*
X129600000Y-116069446D01*
X129600000Y-116262500D01*
X131400000Y-116262500D01*
X131400000Y-116069446D01*
X131389386Y-115981056D01*
X131333920Y-115840404D01*
X131242564Y-115719935D01*
X131122095Y-115628579D01*
X131029982Y-115592255D01*
X130974838Y-115549349D01*
X130951645Y-115483441D01*
X130967765Y-115415456D01*
X131018082Y-115366980D01*
X131075472Y-115352900D01*
X132292029Y-115352900D01*
X132359068Y-115372585D01*
X132404823Y-115425389D01*
X132414767Y-115494547D01*
X132385742Y-115558103D01*
X132326964Y-115595877D01*
X132306813Y-115600016D01*
X132218556Y-115610613D01*
X132077904Y-115666079D01*
X131957435Y-115757435D01*
X131866079Y-115877904D01*
X131810613Y-116018556D01*
X131800000Y-116106946D01*
X131800000Y-116262500D01*
X134200000Y-116262500D01*
X134200000Y-116106946D01*
X134189386Y-116018556D01*
X134133920Y-115877904D01*
X134042564Y-115757435D01*
X133922095Y-115666079D01*
X133781443Y-115610613D01*
X133693187Y-115600016D01*
X133628973Y-115572479D01*
X133589840Y-115514596D01*
X133588213Y-115444746D01*
X133624608Y-115385104D01*
X133687470Y-115354606D01*
X133707971Y-115352900D01*
X133796458Y-115352900D01*
X133796460Y-115352900D01*
X133886214Y-115328850D01*
X133966686Y-115282390D01*
X134224857Y-115024219D01*
X134286180Y-114990734D01*
X134312538Y-114987900D01*
X135302840Y-114987900D01*
X135369879Y-115007585D01*
X135405942Y-115043009D01*
X135416373Y-115058621D01*
X135416376Y-115058624D01*
X135507505Y-115119515D01*
X135507509Y-115119516D01*
X135547686Y-115127507D01*
X135587867Y-115135500D01*
X137171000Y-115135499D01*
X137179685Y-115138049D01*
X137188647Y-115136761D01*
X137212687Y-115147739D01*
X137238039Y-115155184D01*
X137243966Y-115162024D01*
X137252203Y-115165786D01*
X137266490Y-115188018D01*
X137283794Y-115207987D01*
X137286081Y-115218502D01*
X137289977Y-115224564D01*
X137295000Y-115259499D01*
X137295000Y-115280500D01*
X137275315Y-115347539D01*
X137222511Y-115393294D01*
X137171000Y-115404500D01*
X135587870Y-115404500D01*
X135507504Y-115420485D01*
X135416375Y-115481375D01*
X135355485Y-115572505D01*
X135355483Y-115572509D01*
X135339500Y-115652862D01*
X135339500Y-116157129D01*
X135355485Y-116237495D01*
X135416375Y-116328624D01*
X135452876Y-116353013D01*
X135507505Y-116389515D01*
X135507508Y-116389515D01*
X135507509Y-116389516D01*
X135534533Y-116394891D01*
X135587867Y-116405500D01*
X136048100Y-116405499D01*
X136115139Y-116425183D01*
X136160894Y-116477987D01*
X136172100Y-116529499D01*
X136172100Y-119575500D01*
X136152415Y-119642539D01*
X136099611Y-119688294D01*
X136048100Y-119699500D01*
X136020730Y-119699500D01*
X135990300Y-119702353D01*
X135990298Y-119702353D01*
X135862119Y-119747206D01*
X135862117Y-119747207D01*
X135752850Y-119827850D01*
X135672207Y-119937117D01*
X135672206Y-119937119D01*
X135627353Y-120065298D01*
X135627353Y-120065300D01*
X135624500Y-120095730D01*
X135624500Y-120904269D01*
X135627353Y-120934699D01*
X135627353Y-120934701D01*
X135655190Y-121014251D01*
X135672207Y-121062882D01*
X135752850Y-121172150D01*
X135862118Y-121252793D01*
X135904845Y-121267744D01*
X135990299Y-121297646D01*
X136020730Y-121300500D01*
X136020734Y-121300500D01*
X137029270Y-121300500D01*
X137059699Y-121297646D01*
X137059701Y-121297646D01*
X137123790Y-121275219D01*
X137187882Y-121252793D01*
X137297150Y-121172150D01*
X137377793Y-121062882D01*
X137418268Y-120947212D01*
X137422211Y-120935945D01*
X137462933Y-120879169D01*
X137527886Y-120853422D01*
X137539252Y-120852900D01*
X137985748Y-120852900D01*
X138052787Y-120872585D01*
X138098542Y-120925389D01*
X138102789Y-120935945D01*
X138130190Y-121014251D01*
X138147207Y-121062882D01*
X138227850Y-121172150D01*
X138337118Y-121252793D01*
X138379845Y-121267744D01*
X138465299Y-121297646D01*
X138495730Y-121300500D01*
X138495734Y-121300500D01*
X139504270Y-121300500D01*
X139534699Y-121297646D01*
X139534701Y-121297646D01*
X139598790Y-121275219D01*
X139662882Y-121252793D01*
X139772150Y-121172150D01*
X139852793Y-121062882D01*
X139893268Y-120947212D01*
X139897211Y-120935945D01*
X139937933Y-120879169D01*
X140002886Y-120853422D01*
X140014252Y-120852900D01*
X140728988Y-120852900D01*
X140796027Y-120872585D01*
X140841782Y-120925389D01*
X140846029Y-120935945D01*
X140870884Y-121006975D01*
X140870884Y-121006976D01*
X140949288Y-121113210D01*
X140949289Y-121113211D01*
X141055523Y-121191615D01*
X141055524Y-121191615D01*
X141055525Y-121191616D01*
X141180151Y-121235225D01*
X141180150Y-121235225D01*
X141209740Y-121238000D01*
X141209744Y-121238000D01*
X141790260Y-121238000D01*
X141819849Y-121235225D01*
X141847735Y-121225467D01*
X141944475Y-121191616D01*
X142050711Y-121113211D01*
X142129116Y-121006975D01*
X142172725Y-120882349D01*
X142174116Y-120867515D01*
X142175500Y-120852760D01*
X142175500Y-120147239D01*
X142172725Y-120117650D01*
X142129115Y-119993023D01*
X142050711Y-119886789D01*
X142050710Y-119886788D01*
X141944476Y-119808384D01*
X141819848Y-119764774D01*
X141819849Y-119764774D01*
X141790260Y-119762000D01*
X141790256Y-119762000D01*
X141209744Y-119762000D01*
X141209740Y-119762000D01*
X141180150Y-119764774D01*
X141055523Y-119808384D01*
X140949289Y-119886788D01*
X140949288Y-119886789D01*
X140870884Y-119993023D01*
X140870884Y-119993024D01*
X140846029Y-120064055D01*
X140805307Y-120120831D01*
X140740355Y-120146578D01*
X140728988Y-120147100D01*
X140014252Y-120147100D01*
X139947213Y-120127415D01*
X139901458Y-120074611D01*
X139897211Y-120064055D01*
X139852793Y-119937119D01*
X139852792Y-119937117D01*
X139772150Y-119827850D01*
X139662882Y-119747207D01*
X139662880Y-119747206D01*
X139534700Y-119702353D01*
X139504270Y-119699500D01*
X139504266Y-119699500D01*
X138495734Y-119699500D01*
X138495730Y-119699500D01*
X138465300Y-119702353D01*
X138465298Y-119702353D01*
X138337119Y-119747206D01*
X138337117Y-119747207D01*
X138227850Y-119827850D01*
X138147207Y-119937117D01*
X138147206Y-119937119D01*
X138102789Y-120064055D01*
X138062067Y-120120831D01*
X137997114Y-120146578D01*
X137985748Y-120147100D01*
X137539252Y-120147100D01*
X137472213Y-120127415D01*
X137426458Y-120074611D01*
X137422211Y-120064055D01*
X137377793Y-119937119D01*
X137377792Y-119937117D01*
X137297150Y-119827850D01*
X137187882Y-119747207D01*
X137187880Y-119747206D01*
X137059700Y-119702353D01*
X137029270Y-119699500D01*
X137029266Y-119699500D01*
X137001900Y-119699500D01*
X136934861Y-119679815D01*
X136889106Y-119627011D01*
X136877900Y-119575500D01*
X136877900Y-117972071D01*
X143725000Y-117972071D01*
X143735373Y-118058458D01*
X143789576Y-118195907D01*
X143789579Y-118195913D01*
X143878856Y-118313643D01*
X143996586Y-118402920D01*
X143996592Y-118402923D01*
X144134039Y-118457125D01*
X144134043Y-118457126D01*
X144200000Y-118465046D01*
X144800000Y-118465046D01*
X144865956Y-118457126D01*
X144865960Y-118457125D01*
X145003407Y-118402923D01*
X145003413Y-118402920D01*
X145121143Y-118313643D01*
X145210420Y-118195913D01*
X145210423Y-118195907D01*
X145264626Y-118058458D01*
X145275000Y-117972071D01*
X145275000Y-117930000D01*
X144800000Y-117930000D01*
X144800000Y-118465046D01*
X144200000Y-118465046D01*
X144200000Y-117930000D01*
X143725000Y-117930000D01*
X143725000Y-117972071D01*
X136877900Y-117972071D01*
X136877900Y-117471944D01*
X146200000Y-117471944D01*
X146206401Y-117531472D01*
X146206403Y-117531479D01*
X146256645Y-117666186D01*
X146256649Y-117666193D01*
X146342809Y-117781287D01*
X146342812Y-117781290D01*
X146457906Y-117867450D01*
X146457913Y-117867454D01*
X146592620Y-117917696D01*
X146592627Y-117917698D01*
X146652155Y-117924099D01*
X146652172Y-117924100D01*
X147250000Y-117924100D01*
X147750000Y-117924100D01*
X148347828Y-117924100D01*
X148347844Y-117924099D01*
X148407372Y-117917698D01*
X148407379Y-117917696D01*
X148542086Y-117867454D01*
X148542093Y-117867450D01*
X148657187Y-117781290D01*
X148657190Y-117781287D01*
X148743350Y-117666193D01*
X148743354Y-117666186D01*
X148793596Y-117531479D01*
X148793598Y-117531472D01*
X148799999Y-117471944D01*
X148800000Y-117471927D01*
X148800000Y-117074100D01*
X147750000Y-117074100D01*
X147750000Y-117924100D01*
X147250000Y-117924100D01*
X147250000Y-117074100D01*
X146200000Y-117074100D01*
X146200000Y-117471944D01*
X136877900Y-117471944D01*
X136877900Y-116529499D01*
X136897585Y-116462460D01*
X136950389Y-116416705D01*
X137001900Y-116405499D01*
X137462130Y-116405499D01*
X137462132Y-116405499D01*
X137542495Y-116389515D01*
X137633624Y-116328624D01*
X137694515Y-116237495D01*
X137694515Y-116237491D01*
X137699051Y-116226545D01*
X137742893Y-116172142D01*
X137809188Y-116150079D01*
X137813611Y-116150000D01*
X138750000Y-116150000D01*
X139250000Y-116150000D01*
X140186390Y-116150000D01*
X140253429Y-116169685D01*
X140299184Y-116222489D01*
X140300952Y-116226549D01*
X140305484Y-116237492D01*
X140305485Y-116237495D01*
X140305486Y-116237496D01*
X140366375Y-116328624D01*
X140402876Y-116353013D01*
X140457505Y-116389515D01*
X140457508Y-116389515D01*
X140457509Y-116389516D01*
X140497686Y-116397507D01*
X140537867Y-116405500D01*
X142412132Y-116405499D01*
X142492495Y-116389515D01*
X142583624Y-116328624D01*
X142594058Y-116313009D01*
X142647670Y-116268204D01*
X142697160Y-116257900D01*
X143728988Y-116257900D01*
X143796027Y-116277585D01*
X143841782Y-116330389D01*
X143846029Y-116340945D01*
X143870884Y-116411975D01*
X143870884Y-116411976D01*
X143949288Y-116518210D01*
X143949289Y-116518211D01*
X144055521Y-116596614D01*
X144055523Y-116596614D01*
X144055525Y-116596616D01*
X144059602Y-116598042D01*
X144063463Y-116600811D01*
X144063740Y-116600958D01*
X144063720Y-116600995D01*
X144116377Y-116638761D01*
X144142127Y-116703713D01*
X144128672Y-116772275D01*
X144080287Y-116822680D01*
X144064141Y-116830438D01*
X143996588Y-116857078D01*
X143996586Y-116857079D01*
X143878856Y-116946356D01*
X143789579Y-117064086D01*
X143789576Y-117064092D01*
X143735373Y-117201541D01*
X143725000Y-117287928D01*
X143725000Y-117330000D01*
X145275000Y-117330000D01*
X145275000Y-117287928D01*
X145264627Y-117201544D01*
X145212054Y-117068228D01*
X145212053Y-117068225D01*
X145210423Y-117064092D01*
X145210420Y-117064086D01*
X145121143Y-116946356D01*
X145003413Y-116857079D01*
X145003409Y-116857077D01*
X144935859Y-116830438D01*
X144880715Y-116787532D01*
X144857523Y-116721624D01*
X144873644Y-116653639D01*
X144923962Y-116605163D01*
X144940387Y-116598046D01*
X144944475Y-116596616D01*
X145050711Y-116518211D01*
X145129116Y-116411975D01*
X145172725Y-116287349D01*
X145173641Y-116277585D01*
X145175500Y-116257760D01*
X145175500Y-116176255D01*
X146200000Y-116176255D01*
X146200000Y-116574100D01*
X147250000Y-116574100D01*
X147750000Y-116574100D01*
X148800000Y-116574100D01*
X148800000Y-116176272D01*
X148799999Y-116176255D01*
X148793598Y-116116727D01*
X148793596Y-116116720D01*
X148743354Y-115982013D01*
X148743350Y-115982006D01*
X148657190Y-115866912D01*
X148657187Y-115866909D01*
X148542093Y-115780749D01*
X148542086Y-115780745D01*
X148407379Y-115730503D01*
X148407372Y-115730501D01*
X148347844Y-115724100D01*
X147750000Y-115724100D01*
X147750000Y-116574100D01*
X147250000Y-116574100D01*
X147250000Y-115724100D01*
X146652155Y-115724100D01*
X146592627Y-115730501D01*
X146592620Y-115730503D01*
X146457913Y-115780745D01*
X146457906Y-115780749D01*
X146342812Y-115866909D01*
X146342809Y-115866912D01*
X146256649Y-115982006D01*
X146256645Y-115982013D01*
X146206403Y-116116720D01*
X146206401Y-116116727D01*
X146200000Y-116176255D01*
X145175500Y-116176255D01*
X145175500Y-115552239D01*
X145172725Y-115522650D01*
X145134251Y-115412701D01*
X145129116Y-115398025D01*
X145125624Y-115393294D01*
X145050711Y-115291789D01*
X145050710Y-115291788D01*
X144944476Y-115213384D01*
X144819848Y-115169774D01*
X144819849Y-115169774D01*
X144790260Y-115167000D01*
X144790256Y-115167000D01*
X144209744Y-115167000D01*
X144209740Y-115167000D01*
X144180150Y-115169774D01*
X144055523Y-115213384D01*
X143949289Y-115291788D01*
X143949288Y-115291789D01*
X143870884Y-115398023D01*
X143870884Y-115398024D01*
X143846029Y-115469055D01*
X143805307Y-115525831D01*
X143740355Y-115551578D01*
X143728988Y-115552100D01*
X142697160Y-115552100D01*
X142630121Y-115532415D01*
X142594058Y-115496991D01*
X142583626Y-115481378D01*
X142583623Y-115481375D01*
X142492494Y-115420484D01*
X142492490Y-115420483D01*
X142412137Y-115404500D01*
X140829000Y-115404500D01*
X140761961Y-115384815D01*
X140716206Y-115332011D01*
X140705000Y-115280500D01*
X140705000Y-114250000D01*
X139250000Y-114250000D01*
X139250000Y-116150000D01*
X138750000Y-116150000D01*
X138750000Y-114250000D01*
X137723611Y-114250000D01*
X137656572Y-114230315D01*
X137635930Y-114213681D01*
X137633625Y-114211376D01*
X137576041Y-114172900D01*
X137542495Y-114150485D01*
X137542493Y-114150484D01*
X137542490Y-114150483D01*
X137462136Y-114134500D01*
X135587870Y-114134500D01*
X135507504Y-114150485D01*
X135416376Y-114211375D01*
X135416373Y-114211378D01*
X135405942Y-114226991D01*
X135352330Y-114271796D01*
X135302840Y-114282100D01*
X134307881Y-114282100D01*
X134240842Y-114262415D01*
X134195087Y-114209611D01*
X134185143Y-114140453D01*
X134214168Y-114076897D01*
X134220200Y-114070419D01*
X134264558Y-114026061D01*
X134273750Y-114016248D01*
X134284444Y-114004054D01*
X134292976Y-113993658D01*
X134345919Y-113924662D01*
X134360853Y-113902311D01*
X134377039Y-113874276D01*
X134388929Y-113850167D01*
X134419068Y-113777404D01*
X134427707Y-113751952D01*
X134436085Y-113720686D01*
X134441330Y-113694322D01*
X134452681Y-113608108D01*
X134453999Y-113594725D01*
X134455060Y-113578539D01*
X134455500Y-113565097D01*
X134455500Y-113136481D01*
X134475185Y-113069442D01*
X134491819Y-113048800D01*
X134798800Y-112741819D01*
X134860123Y-112708334D01*
X134886481Y-112705500D01*
X137065084Y-112705500D01*
X137065097Y-112705500D01*
X137078540Y-112705060D01*
X137094724Y-112703999D01*
X137108105Y-112702681D01*
X137154814Y-112696531D01*
X137223848Y-112707296D01*
X137276105Y-112753675D01*
X137295000Y-112819470D01*
X137295000Y-113750000D01*
X138750000Y-113750000D01*
X138750000Y-111850000D01*
X139250000Y-111850000D01*
X139250000Y-113750000D01*
X140276389Y-113750000D01*
X140343428Y-113769685D01*
X140364070Y-113786319D01*
X140366374Y-113788623D01*
X140389312Y-113803949D01*
X140457505Y-113849515D01*
X140457508Y-113849515D01*
X140457509Y-113849516D01*
X140497686Y-113857507D01*
X140537867Y-113865500D01*
X142412132Y-113865499D01*
X142492495Y-113849515D01*
X142583624Y-113788624D01*
X142583626Y-113788620D01*
X142592262Y-113779986D01*
X142593562Y-113781286D01*
X142635764Y-113746011D01*
X142705088Y-113737297D01*
X142768118Y-113767446D01*
X142772945Y-113772021D01*
X143103314Y-114102390D01*
X143183786Y-114148850D01*
X143273540Y-114172900D01*
X143366460Y-114172900D01*
X143728988Y-114172900D01*
X143796027Y-114192585D01*
X143841782Y-114245389D01*
X143846029Y-114255945D01*
X143870884Y-114326975D01*
X143870884Y-114326976D01*
X143949288Y-114433210D01*
X143949289Y-114433211D01*
X144055523Y-114511615D01*
X144055524Y-114511615D01*
X144055525Y-114511616D01*
X144180151Y-114555225D01*
X144180150Y-114555225D01*
X144209740Y-114558000D01*
X144209744Y-114558000D01*
X144790260Y-114558000D01*
X144819849Y-114555225D01*
X144822432Y-114554321D01*
X144944475Y-114511616D01*
X145050711Y-114433211D01*
X145129116Y-114326975D01*
X145172725Y-114202349D01*
X145173641Y-114192585D01*
X145175500Y-114172760D01*
X145175500Y-113467239D01*
X145172725Y-113437650D01*
X145129115Y-113313023D01*
X145050711Y-113206789D01*
X145050710Y-113206788D01*
X144944476Y-113128384D01*
X144819848Y-113084774D01*
X144819849Y-113084774D01*
X144790260Y-113082000D01*
X144790256Y-113082000D01*
X144209744Y-113082000D01*
X144209740Y-113082000D01*
X144180150Y-113084774D01*
X144055523Y-113128384D01*
X143949289Y-113206788D01*
X143949288Y-113206789D01*
X143870884Y-113313023D01*
X143870884Y-113313024D01*
X143846029Y-113384055D01*
X143832410Y-113403042D01*
X143822701Y-113424303D01*
X143812424Y-113430906D01*
X143805307Y-113440831D01*
X143783582Y-113449442D01*
X143763923Y-113462077D01*
X143744758Y-113464832D01*
X143740355Y-113466578D01*
X143728988Y-113467100D01*
X143517538Y-113467100D01*
X143450499Y-113447415D01*
X143429857Y-113430781D01*
X143081687Y-113082611D01*
X143081686Y-113082610D01*
X143001214Y-113036150D01*
X143001215Y-113036150D01*
X142971296Y-113028133D01*
X142911460Y-113012100D01*
X142911458Y-113012100D01*
X142697160Y-113012100D01*
X142630121Y-112992415D01*
X142608861Y-112975159D01*
X142600596Y-112966776D01*
X142583624Y-112941376D01*
X142559967Y-112925569D01*
X142551084Y-112916559D01*
X142540303Y-112896480D01*
X142525687Y-112878991D01*
X142524091Y-112866284D01*
X142518033Y-112855001D01*
X142519820Y-112832278D01*
X142516980Y-112809666D01*
X142522506Y-112798113D01*
X142523511Y-112785346D01*
X142537297Y-112767197D01*
X142547134Y-112746638D01*
X142558029Y-112739907D01*
X142565776Y-112729710D01*
X142587186Y-112721896D01*
X142606577Y-112709918D01*
X142627862Y-112707051D01*
X142631412Y-112705756D01*
X142633685Y-112706267D01*
X142639383Y-112705500D01*
X143904813Y-112705500D01*
X143971852Y-112725185D01*
X143978446Y-112729730D01*
X144055523Y-112786615D01*
X144055524Y-112786615D01*
X144055525Y-112786616D01*
X144180151Y-112830225D01*
X144180150Y-112830225D01*
X144209740Y-112833000D01*
X144209744Y-112833000D01*
X144790260Y-112833000D01*
X144819849Y-112830225D01*
X144944475Y-112786616D01*
X145003079Y-112743365D01*
X145021554Y-112729730D01*
X145087183Y-112705759D01*
X145095187Y-112705500D01*
X146379804Y-112705500D01*
X146446843Y-112725185D01*
X146492598Y-112777989D01*
X146501421Y-112805309D01*
X146511131Y-112854129D01*
X146511132Y-112854130D01*
X146555447Y-112920452D01*
X146621769Y-112964767D01*
X146621770Y-112964768D01*
X146680247Y-112976399D01*
X146680250Y-112976400D01*
X146680252Y-112976400D01*
X148319750Y-112976400D01*
X148319751Y-112976399D01*
X148334568Y-112973452D01*
X148378229Y-112964768D01*
X148378229Y-112964767D01*
X148378231Y-112964767D01*
X148444552Y-112920452D01*
X148488867Y-112854131D01*
X148488867Y-112854129D01*
X148488868Y-112854129D01*
X148500499Y-112795652D01*
X148500500Y-112795650D01*
X148500500Y-112790581D01*
X148520185Y-112723542D01*
X148568706Y-112681497D01*
X148568134Y-112680449D01*
X148572954Y-112677816D01*
X148572989Y-112677787D01*
X148573092Y-112677741D01*
X148573477Y-112677530D01*
X148573482Y-112677529D01*
X148634805Y-112644044D01*
X148681629Y-112608991D01*
X148858991Y-112431629D01*
X148873693Y-112415262D01*
X148890327Y-112394620D01*
X148927490Y-112323575D01*
X148932202Y-112307528D01*
X148947173Y-112256543D01*
X148947173Y-112256542D01*
X148947175Y-112256536D01*
X148955500Y-112198638D01*
X148955500Y-111386481D01*
X148975185Y-111319442D01*
X148991819Y-111298800D01*
X150608986Y-109681634D01*
X150608987Y-109681633D01*
X150623674Y-109665283D01*
X150623693Y-109665262D01*
X150640327Y-109644620D01*
X150677490Y-109573575D01*
X150697175Y-109506536D01*
X150705500Y-109448638D01*
X150705500Y-105501362D01*
X150704322Y-105479393D01*
X150701488Y-105453035D01*
X150677529Y-105376518D01*
X150644044Y-105315195D01*
X150617108Y-105279214D01*
X150609001Y-105268384D01*
X150608998Y-105268381D01*
X150608991Y-105268371D01*
X150558991Y-105218371D01*
X150431634Y-105091013D01*
X150431633Y-105091012D01*
X150415283Y-105076325D01*
X150415269Y-105076313D01*
X150394620Y-105059672D01*
X150323575Y-105022509D01*
X150256543Y-105002826D01*
X150255894Y-105002732D01*
X150198638Y-104994500D01*
X144751362Y-104994500D01*
X144751361Y-104994500D01*
X144729381Y-104995678D01*
X144703034Y-104998511D01*
X144703032Y-104998512D01*
X144626521Y-105022470D01*
X144626516Y-105022471D01*
X144565188Y-105055960D01*
X144518384Y-105090998D01*
X144518370Y-105091010D01*
X144391000Y-105218379D01*
X144380837Y-105229692D01*
X144380791Y-105229745D01*
X144376307Y-105234738D01*
X144371578Y-105240606D01*
X144371547Y-105240643D01*
X144359670Y-105255383D01*
X144356332Y-105260476D01*
X144356100Y-105260324D01*
X144351355Y-105267848D01*
X144350646Y-105268795D01*
X144350641Y-105268803D01*
X144338258Y-105295919D01*
X144336873Y-105298951D01*
X144322525Y-105326375D01*
X144321762Y-105328971D01*
X144322999Y-105329334D01*
X144315549Y-105345652D01*
X144315550Y-105345652D01*
X144314367Y-105348242D01*
X144314367Y-105348243D01*
X144310376Y-105366583D01*
X144308311Y-105374733D01*
X144307416Y-105377821D01*
X144307393Y-105377856D01*
X144307317Y-105378114D01*
X144307297Y-105378226D01*
X144302823Y-105393466D01*
X144302823Y-105393467D01*
X144294500Y-105451359D01*
X144294500Y-109613518D01*
X144274815Y-109680557D01*
X144258181Y-109701199D01*
X142701199Y-111258181D01*
X142639876Y-111291666D01*
X142613518Y-111294500D01*
X140551361Y-111294500D01*
X140529381Y-111295678D01*
X140503034Y-111298511D01*
X140503032Y-111298512D01*
X140426521Y-111322470D01*
X140426516Y-111322471D01*
X140365188Y-111355960D01*
X140318384Y-111390998D01*
X140318363Y-111391016D01*
X140141013Y-111568365D01*
X140141012Y-111568366D01*
X140126325Y-111584716D01*
X140126313Y-111584730D01*
X140109672Y-111605379D01*
X140072509Y-111676424D01*
X140052825Y-111743460D01*
X140052798Y-111743653D01*
X140052770Y-111743714D01*
X140051886Y-111747780D01*
X140051577Y-111747712D01*
X140051577Y-111747713D01*
X140051574Y-111747712D01*
X140051000Y-111747587D01*
X140023770Y-111807207D01*
X139964990Y-111844979D01*
X139930061Y-111850000D01*
X139250000Y-111850000D01*
X138750000Y-111850000D01*
X137813611Y-111850000D01*
X137801753Y-111846518D01*
X137789445Y-111847622D01*
X137768859Y-111836859D01*
X137746572Y-111830315D01*
X137736970Y-111820187D01*
X137727527Y-111815250D01*
X137715361Y-111797394D01*
X137705869Y-111787382D01*
X137696026Y-111770106D01*
X137694515Y-111762505D01*
X137675389Y-111733882D01*
X137673205Y-111730048D01*
X137672707Y-111727945D01*
X137666386Y-111716119D01*
X137649944Y-111676425D01*
X137638929Y-111649832D01*
X137637715Y-111647371D01*
X137627047Y-111625738D01*
X137627040Y-111625726D01*
X137627039Y-111625723D01*
X137615294Y-111605380D01*
X137610858Y-111597695D01*
X137595918Y-111575336D01*
X137578118Y-111552139D01*
X137547969Y-111512849D01*
X137530246Y-111492641D01*
X137507358Y-111469753D01*
X137487150Y-111452030D01*
X137424663Y-111404081D01*
X137402314Y-111389147D01*
X137374280Y-111372961D01*
X137374278Y-111372960D01*
X137374243Y-111372942D01*
X137350184Y-111361078D01*
X137350181Y-111361076D01*
X137277415Y-111330935D01*
X137251939Y-111322287D01*
X137220693Y-111313915D01*
X137220669Y-111313910D01*
X137207135Y-111311218D01*
X137194319Y-111308669D01*
X137194313Y-111308668D01*
X137194317Y-111308668D01*
X137108095Y-111297317D01*
X137094749Y-111296002D01*
X137078543Y-111294940D01*
X137076019Y-111294857D01*
X137065097Y-111294500D01*
X137065084Y-111294500D01*
X136136482Y-111294500D01*
X136069443Y-111274815D01*
X136048801Y-111258181D01*
X135741819Y-110951199D01*
X135708334Y-110889876D01*
X135705500Y-110863518D01*
X135705500Y-105170319D01*
X135705500Y-105170306D01*
X135705253Y-105160224D01*
X135704656Y-105148070D01*
X135704108Y-105140643D01*
X135703915Y-105138029D01*
X135698752Y-105085613D01*
X135686492Y-104961135D01*
X135683534Y-104941189D01*
X135678792Y-104917348D01*
X135673891Y-104897784D01*
X135624075Y-104733561D01*
X135617279Y-104714568D01*
X135607976Y-104692110D01*
X135599356Y-104673884D01*
X135599355Y-104673881D01*
X135599350Y-104673872D01*
X135518482Y-104522579D01*
X135518465Y-104522548D01*
X135518462Y-104522542D01*
X135508095Y-104505246D01*
X135508091Y-104505240D01*
X135508086Y-104505231D01*
X135494611Y-104485064D01*
X135494597Y-104485045D01*
X135494590Y-104485034D01*
X135493485Y-104483544D01*
X135482585Y-104468846D01*
X135482583Y-104468843D01*
X135369823Y-104331446D01*
X135363219Y-104323790D01*
X135355075Y-104314805D01*
X135348091Y-104307470D01*
X134942528Y-103901907D01*
X134935193Y-103894923D01*
X134926208Y-103886779D01*
X134918552Y-103880175D01*
X134781155Y-103767415D01*
X134781152Y-103767413D01*
X134764991Y-103755428D01*
X134764981Y-103755421D01*
X134764965Y-103755409D01*
X134764953Y-103755401D01*
X134764925Y-103755381D01*
X134744763Y-103741911D01*
X134744753Y-103741904D01*
X134727456Y-103731537D01*
X134727447Y-103731532D01*
X134727437Y-103731526D01*
X134576127Y-103650650D01*
X134576104Y-103650638D01*
X134557895Y-103642026D01*
X134557885Y-103642021D01*
X134535443Y-103632724D01*
X134516439Y-103625924D01*
X134352217Y-103576108D01*
X134352176Y-103576097D01*
X134332678Y-103571214D01*
X134332645Y-103571206D01*
X134332641Y-103571205D01*
X134332637Y-103571204D01*
X134332632Y-103571203D01*
X134308805Y-103566464D01*
X134308795Y-103566462D01*
X134288882Y-103563509D01*
X134288856Y-103563506D01*
X134111974Y-103546085D01*
X134101944Y-103545344D01*
X134094137Y-103544961D01*
X134089775Y-103544747D01*
X134079693Y-103544500D01*
X120670307Y-103544500D01*
X120663249Y-103544672D01*
X120660219Y-103544747D01*
X120648063Y-103545344D01*
X120638011Y-103546086D01*
X120461141Y-103563505D01*
X120461115Y-103563508D01*
X120441193Y-103566464D01*
X120441175Y-103566467D01*
X120417360Y-103571204D01*
X120417350Y-103571206D01*
X120397806Y-103576101D01*
X120397772Y-103576110D01*
X120233556Y-103625923D01*
X120233544Y-103625928D01*
X120214582Y-103632713D01*
X120214536Y-103632731D01*
X120192121Y-103642018D01*
X120192114Y-103642021D01*
X120175959Y-103649661D01*
X120173873Y-103650648D01*
X120022549Y-103731532D01*
X120005239Y-103741907D01*
X119985052Y-103755395D01*
X119985013Y-103755423D01*
X119968852Y-103767408D01*
X119968849Y-103767410D01*
X119831421Y-103880195D01*
X119823804Y-103886766D01*
X119814804Y-103894923D01*
X119807480Y-103901897D01*
X119651897Y-104057480D01*
X119644923Y-104064804D01*
X119636766Y-104073804D01*
X119630195Y-104081421D01*
X119517410Y-104218849D01*
X119517408Y-104218852D01*
X119505423Y-104235013D01*
X119505395Y-104235052D01*
X119491907Y-104255239D01*
X119481532Y-104272549D01*
X119400648Y-104423873D01*
X119392018Y-104442121D01*
X119382731Y-104464536D01*
X119382713Y-104464582D01*
X119375928Y-104483544D01*
X119375923Y-104483556D01*
X119326110Y-104647772D01*
X119326101Y-104647806D01*
X119321206Y-104667350D01*
X119321204Y-104667360D01*
X119316467Y-104691175D01*
X119316464Y-104691193D01*
X119313508Y-104711115D01*
X119313505Y-104711137D01*
X119296085Y-104888014D01*
X119295344Y-104898062D01*
X119295344Y-104898070D01*
X119294747Y-104910224D01*
X119294500Y-104920306D01*
X114250500Y-104920306D01*
X114250500Y-103171153D01*
X114849500Y-103171153D01*
X114849500Y-103328846D01*
X114880261Y-103483489D01*
X114880264Y-103483501D01*
X114940602Y-103629172D01*
X114940609Y-103629185D01*
X115028210Y-103760288D01*
X115028213Y-103760292D01*
X115139707Y-103871786D01*
X115139711Y-103871789D01*
X115270814Y-103959390D01*
X115270827Y-103959397D01*
X115416498Y-104019735D01*
X115416503Y-104019737D01*
X115562617Y-104048801D01*
X115571153Y-104050499D01*
X115571156Y-104050500D01*
X115571158Y-104050500D01*
X116928844Y-104050500D01*
X116928845Y-104050499D01*
X117083497Y-104019737D01*
X117229179Y-103959394D01*
X117360289Y-103871789D01*
X117471789Y-103760289D01*
X117559394Y-103629179D01*
X117619737Y-103483497D01*
X117650500Y-103328842D01*
X117650500Y-103171158D01*
X117650500Y-103171155D01*
X117650499Y-103171153D01*
X117619738Y-103016510D01*
X117619737Y-103016503D01*
X117619735Y-103016498D01*
X117559397Y-102870827D01*
X117559390Y-102870814D01*
X117471789Y-102739711D01*
X117471786Y-102739707D01*
X117360292Y-102628213D01*
X117360288Y-102628210D01*
X117229185Y-102540609D01*
X117229172Y-102540602D01*
X117083501Y-102480264D01*
X117083489Y-102480261D01*
X116928845Y-102449500D01*
X116928842Y-102449500D01*
X115571158Y-102449500D01*
X115571155Y-102449500D01*
X115416510Y-102480261D01*
X115416498Y-102480264D01*
X115270827Y-102540602D01*
X115270814Y-102540609D01*
X115139711Y-102628210D01*
X115139707Y-102628213D01*
X115028213Y-102739707D01*
X115028210Y-102739711D01*
X114940609Y-102870814D01*
X114940602Y-102870827D01*
X114880264Y-103016498D01*
X114880261Y-103016510D01*
X114849500Y-103171153D01*
X114250500Y-103171153D01*
X114250500Y-100894785D01*
X131450001Y-100894785D01*
X131450002Y-100894808D01*
X131452908Y-100919869D01*
X131452909Y-100919873D01*
X131498211Y-101022474D01*
X131498214Y-101022479D01*
X131577520Y-101101785D01*
X131577525Y-101101788D01*
X131680123Y-101147089D01*
X131705206Y-101149999D01*
X132549999Y-101149999D01*
X133450000Y-101149999D01*
X134294786Y-101149999D01*
X134294808Y-101149997D01*
X134319869Y-101147091D01*
X134319873Y-101147090D01*
X134422474Y-101101788D01*
X134422479Y-101101785D01*
X134501785Y-101022479D01*
X134501788Y-101022474D01*
X134547089Y-100919877D01*
X134547089Y-100919875D01*
X134549999Y-100894794D01*
X134550000Y-100894791D01*
X134550000Y-98400000D01*
X133450000Y-98400000D01*
X133450000Y-101149999D01*
X132549999Y-101149999D01*
X132550000Y-101149998D01*
X132550000Y-98400000D01*
X131450001Y-98400000D01*
X131450001Y-100894785D01*
X114250500Y-100894785D01*
X114250500Y-98503051D01*
X114250649Y-98496966D01*
X114258235Y-98342553D01*
X114258235Y-98342552D01*
X114268256Y-98138568D01*
X114269449Y-98126457D01*
X114301240Y-97912139D01*
X114321654Y-97774520D01*
X114324022Y-97762613D01*
X114410475Y-97417473D01*
X114413998Y-97405858D01*
X114533869Y-97070840D01*
X114538508Y-97059643D01*
X114690643Y-96737979D01*
X114696358Y-96727287D01*
X114879278Y-96422105D01*
X114886021Y-96412012D01*
X115097979Y-96126219D01*
X115105682Y-96116834D01*
X115344628Y-95853198D01*
X115353198Y-95844628D01*
X115616834Y-95605682D01*
X115626219Y-95597979D01*
X115912012Y-95386021D01*
X115922105Y-95379278D01*
X116227287Y-95196358D01*
X116237979Y-95190643D01*
X116559643Y-95038508D01*
X116570840Y-95033869D01*
X116905858Y-94913998D01*
X116917473Y-94910475D01*
X117262613Y-94824022D01*
X117274520Y-94821654D01*
X117626460Y-94769448D01*
X117638564Y-94768256D01*
X117996967Y-94750648D01*
X118003051Y-94750500D01*
X118044170Y-94750500D01*
X131363998Y-94750500D01*
X131431037Y-94770185D01*
G37*
%TD.AperFunction*%
%TD*%
M02*
