M48
; DRILL file {KiCad 9.0.4} date 2025-09-28T14:02:55+0300
; FORMAT={-:-/ absolute / metric / decimal}
; #@! TF.CreationDate,2025-09-28T14:02:55+03:00
; #@! TF.GenerationSoftware,Kicad,Pcbnew,9.0.4
; #@! TF.FileFunction,Plated,1,2,PTH
FMAT,2
METRIC
; #@! TA.AperFunction,Plated,PTH,ViaDrill
T1C0.300
; #@! TA.AperFunction,Plated,PTH,ViaDrill
T2C0.400
; #@! TA.AperFunction,Plated,PTH,ComponentDrill
T3C0.600
; #@! TA.AperFunction,Plated,PTH,ComponentDrill
T4C2.700
%
G90
G05
T1
X138.2Y-112.8
X138.2Y-113.6
X138.2Y-114.4
X138.2Y-115.2
X139.0Y-112.8
X139.0Y-113.6
X139.0Y-114.4
X139.0Y-115.2
X139.8Y-112.8
X139.8Y-113.6
X139.8Y-114.4
X139.8Y-115.2
T2
X116.25Y-96.65
X116.25Y-98.45
X116.25Y-100.25
X117.85Y-119.5
X117.85Y-121.3
X117.85Y-123.1
X118.05Y-96.65
X118.05Y-98.45
X118.05Y-100.25
X119.65Y-119.5
X119.65Y-121.3
X119.65Y-123.1
X119.85Y-96.65
X119.85Y-98.45
X119.85Y-100.25
X121.45Y-119.5
X121.45Y-121.3
X121.45Y-123.1
X121.65Y-96.65
X121.65Y-98.45
X121.65Y-100.25
X123.25Y-119.5
X123.25Y-121.3
X123.25Y-123.1
X123.75Y-96.65
X123.75Y-98.45
X123.75Y-100.25
X125.1Y-119.5
X125.1Y-121.3
X125.1Y-123.1
X126.9Y-119.5
X126.9Y-121.3
X126.9Y-123.1
X128.7Y-119.5
X128.7Y-121.3
X128.7Y-123.1
X130.5Y-118.0
X130.5Y-119.5
X130.5Y-121.3
X130.5Y-123.1
X131.0Y-97.95
X133.0Y-101.5
X133.0Y-118.0
X134.5Y-116.562
X135.0Y-97.95
X135.0Y-113.365
X135.0Y-122.5
X143.25Y-114.635
X143.25Y-117.63
X144.5Y-119.0
X147.5Y-115.5
X147.5Y-118.25
X149.25Y-122.5
X152.25Y-116.7
X154.0Y-119.25
X155.75Y-116.7
X156.0Y-104.75
X156.85Y-96.3
X156.85Y-98.1
X156.85Y-99.9
X156.85Y-101.7
X156.85Y-103.5
X157.1Y-117.0
X157.1Y-118.8
X157.1Y-120.6
X157.1Y-122.4
X158.65Y-96.3
X158.65Y-98.1
X158.65Y-99.9
X158.65Y-101.7
X158.65Y-103.5
X158.9Y-117.0
X158.9Y-118.8
X158.9Y-120.6
X158.9Y-122.4
X160.45Y-96.3
X160.45Y-98.1
X160.45Y-99.9
X160.45Y-101.7
X160.45Y-103.5
X160.7Y-117.0
X160.7Y-118.8
X160.7Y-120.6
X160.7Y-122.4
X162.25Y-96.3
X162.25Y-98.1
X162.25Y-99.9
X162.25Y-101.7
X162.25Y-103.5
X162.5Y-117.0
X162.5Y-118.8
X162.5Y-120.6
X162.5Y-122.4
T4
X122.25Y-106.4
X122.25Y-113.6
T3
G00X115.7Y-103.25
M15
G01X116.8Y-103.25
M16
G05
G00X115.7Y-116.75
M15
G01X116.8Y-116.75
M16
G05
G00X158.746Y-105.68
M15
G01X159.346Y-105.68
M16
G05
G00X158.746Y-114.32
M15
G01X159.346Y-114.32
M16
G05
G00X162.546Y-105.68
M15
G01X163.146Y-105.68
M16
G05
G00X162.546Y-114.32
M15
G01X163.146Y-114.32
M16
G05
M30
