%TF.GenerationSoftware,KiCad,Pcbnew,9.0.4*%
%TF.CreationDate,2025-09-28T14:02:47+03:00*%
%TF.ProjectId,Project_MP2494,50726f6a-6563-4745-9f4d-50323439342e,1.0*%
%TF.SameCoordinates,Original*%
%TF.FileFunction,Paste,Top*%
%TF.FilePolarity,Positive*%
%FSLAX46Y46*%
G04 Gerber Fmt 4.6, Leading zero omitted, Abs format (unit mm)*
G04 Created by KiCad (PCBNEW 9.0.4) date 2025-09-28 14:02:47*
%MOMM*%
%LPD*%
G01*
G04 APERTURE LIST*
G04 Aperture macros list*
%AMRoundRect*
0 Rectangle with rounded corners*
0 $1 Rounding radius*
0 $2 $3 $4 $5 $6 $7 $8 $9 X,Y pos of 4 corners*
0 Add a 4 corners polygon primitive as box body*
4,1,4,$2,$3,$4,$5,$6,$7,$8,$9,$2,$3,0*
0 Add four circle primitives for the rounded corners*
1,1,$1+$1,$2,$3*
1,1,$1+$1,$4,$5*
1,1,$1+$1,$6,$7*
1,1,$1+$1,$8,$9*
0 Add four rect primitives between the rounded corners*
20,1,$1+$1,$2,$3,$4,$5,0*
20,1,$1+$1,$4,$5,$6,$7,0*
20,1,$1+$1,$6,$7,$8,$9,0*
20,1,$1+$1,$8,$9,$2,$3,0*%
G04 Aperture macros list end*
%ADD10C,0.010000*%
%ADD11RoundRect,0.250000X-0.325000X-0.450000X0.325000X-0.450000X0.325000X0.450000X-0.325000X0.450000X0*%
%ADD12R,1.600000X3.000000*%
%ADD13RoundRect,0.250000X-0.350000X-0.450000X0.350000X-0.450000X0.350000X0.450000X-0.350000X0.450000X0*%
%ADD14RoundRect,0.250000X0.475000X-0.337500X0.475000X0.337500X-0.475000X0.337500X-0.475000X-0.337500X0*%
%ADD15RoundRect,0.250000X0.350000X0.450000X-0.350000X0.450000X-0.350000X-0.450000X0.350000X-0.450000X0*%
%ADD16RoundRect,0.237500X0.237500X-0.300000X0.237500X0.300000X-0.237500X0.300000X-0.237500X-0.300000X0*%
%ADD17RoundRect,0.250000X-0.450000X0.350000X-0.450000X-0.350000X0.450000X-0.350000X0.450000X0.350000X0*%
%ADD18R,2.500000X5.800000*%
%ADD19RoundRect,0.250000X-0.650000X0.412500X-0.650000X-0.412500X0.650000X-0.412500X0.650000X0.412500X0*%
%ADD20R,1.193800X0.711200*%
%ADD21R,1.193800X0.762000*%
%ADD22R,1.193800X0.812800*%
%ADD23RoundRect,0.075000X-0.910000X-0.225000X0.910000X-0.225000X0.910000X0.225000X-0.910000X0.225000X0*%
%ADD24RoundRect,0.250000X0.450000X-0.350000X0.450000X0.350000X-0.450000X0.350000X-0.450000X-0.350000X0*%
%ADD25R,5.400000X2.900000*%
%ADD26R,1.600000X1.200000*%
G04 APERTURE END LIST*
D10*
%TO.C,U1*%
X138865000Y-113865000D02*
X138065000Y-113865000D01*
X138065000Y-112625000D01*
X138865000Y-112625000D01*
X138865000Y-113865000D01*
G36*
X138865000Y-113865000D02*
G01*
X138065000Y-113865000D01*
X138065000Y-112625000D01*
X138865000Y-112625000D01*
X138865000Y-113865000D01*
G37*
X138865000Y-115375000D02*
X138065000Y-115375000D01*
X138065000Y-114135000D01*
X138865000Y-114135000D01*
X138865000Y-115375000D01*
G36*
X138865000Y-115375000D02*
G01*
X138065000Y-115375000D01*
X138065000Y-114135000D01*
X138865000Y-114135000D01*
X138865000Y-115375000D01*
G37*
X139935000Y-113865000D02*
X139135000Y-113865000D01*
X139135000Y-112625000D01*
X139935000Y-112625000D01*
X139935000Y-113865000D01*
G36*
X139935000Y-113865000D02*
G01*
X139135000Y-113865000D01*
X139135000Y-112625000D01*
X139935000Y-112625000D01*
X139935000Y-113865000D01*
G37*
X139935000Y-115375000D02*
X139135000Y-115375000D01*
X139135000Y-114135000D01*
X139935000Y-114135000D01*
X139935000Y-115375000D01*
G36*
X139935000Y-115375000D02*
G01*
X139135000Y-115375000D01*
X139135000Y-114135000D01*
X139935000Y-114135000D01*
X139935000Y-115375000D01*
G37*
%TD*%
D11*
%TO.C,D2*%
X150450000Y-122500000D03*
X152500000Y-122500000D03*
%TD*%
D12*
%TO.C,C6*%
X154000000Y-112300000D03*
X154000000Y-116700000D03*
%TD*%
D13*
%TO.C,R2*%
X128500000Y-116562500D03*
X130500000Y-116562500D03*
%TD*%
D14*
%TO.C,C7*%
X156000000Y-108037500D03*
X156000000Y-105962500D03*
%TD*%
D15*
%TO.C,R1*%
X130500000Y-113437500D03*
X128500000Y-113437500D03*
%TD*%
D16*
%TO.C,C4*%
X144500000Y-113820000D03*
X144500000Y-112095000D03*
%TD*%
D13*
%TO.C,R5*%
X150500000Y-120000000D03*
X152500000Y-120000000D03*
%TD*%
D17*
%TO.C,R4*%
X136525000Y-120500000D03*
X136525000Y-122500000D03*
%TD*%
D18*
%TO.C,C1*%
X133000000Y-108050000D03*
X133000000Y-97950000D03*
%TD*%
D16*
%TO.C,C5*%
X141500000Y-122225000D03*
X141500000Y-120500000D03*
%TD*%
D19*
%TO.C,C2*%
X133000000Y-113437500D03*
X133000000Y-116562500D03*
%TD*%
D20*
%TO.C,J2*%
X158965599Y-110499999D03*
D21*
X158965599Y-108480000D03*
D22*
X158965599Y-107250000D03*
D20*
X158965599Y-109500001D03*
D21*
X158965716Y-111519936D03*
D22*
X158965716Y-112749936D03*
%TD*%
D23*
%TO.C,U1*%
X136525000Y-112095000D03*
X136525000Y-113365000D03*
X136525000Y-114635000D03*
X136525000Y-115905000D03*
X141475000Y-115905000D03*
X141475000Y-114635000D03*
X141475000Y-113365000D03*
X141475000Y-112095000D03*
%TD*%
D16*
%TO.C,C3*%
X144500000Y-117630000D03*
X144500000Y-115905000D03*
%TD*%
D24*
%TO.C,R3*%
X139000000Y-122500000D03*
X139000000Y-120500000D03*
%TD*%
D25*
%TO.C,L1*%
X147500000Y-106950000D03*
X147500000Y-97050000D03*
%TD*%
D26*
%TO.C,D1*%
X147500000Y-112175900D03*
X147500000Y-116824100D03*
%TD*%
M02*
